M48
; DRILL file {KiCad (5.1.4-0)} date 2021 February 22, Monday 17:12:33
; FORMAT={-:-/ absolute / inch / decimal}
; #@! TF.CreationDate,2021-02-22T17:12:33+11:00
; #@! TF.GenerationSoftware,Kicad,Pcbnew,(5.1.4-0)
; #@! TF.FileFunction,NonPlated,1,2,NPTH
FMAT,2
INCH
T1C0.0256
T2C0.0390
T3C0.0670
T4C0.1350
%
G90
G05
T1
X5.0043Y-0.2421
X5.2319Y-0.2421
T2
X7.7155Y-1.9371
X0.7693Y-2.2779
X8.3443Y-0.9929
X2.6024Y-2.7138
X3.6858Y-1.466
X3.0468Y-0.6395
X6.4792Y-3.0518
X9.818Y-1.5753
X0.886Y-0.9444
X2.243Y-1.6955
X7.0182Y-2.0969
X1.5748Y-1.2023
X9.8763Y-2.2421
X7.6572Y-1.2704
X9.0125Y-0.4997
X2.9885Y-1.3062
X0.8277Y-1.6112
X9.0709Y-1.1665
X2.3597Y-0.362
X4.1295Y-3.2255
X8.0386Y-2.6424
X9.1292Y-1.8332
X1.5165Y-1.869
X3.7442Y-0.7993
X6.9598Y-1.4302
X3.3688Y-2.8994
X7.5989Y-0.6036
X8.286Y-0.3262
X8.4026Y-1.6596
X3.6275Y-2.1328
X7.2645Y-2.793
X1.6332Y-0.5355
X9.7597Y-0.9086
X2.9301Y-1.9729
X2.3014Y-1.0287
X6.9015Y-0.7634
T3
X9.4703Y-2.4436
X9.9017Y-2.4058
X1.14Y-1.3302
X1.5714Y-1.368
X0.4512Y-1.0724
X6.6121Y-2.2984
X7.0436Y-2.2607
X1.8082Y-1.8234
X2.2396Y-1.8612
X2.5536Y-1.4341
X2.985Y-1.4719
X7.2512Y-1.4719
X7.6826Y-1.4341
X9.0379Y-0.6635
X0.8826Y-1.1101
X8.6065Y-0.7012
X7.9966Y-1.8612
X8.428Y-1.8234
X3.1927Y-2.2607
X3.6241Y-2.2984
X0.8242Y-1.7768
X8.0782Y-2.8033
X9.412Y-1.7768
X9.8434Y-1.7391
X0.3928Y-1.7391
X3.6771Y-3.197
X4.0696Y-3.38
X7.8799Y-0.5277
X8.3114Y-0.4899
X7.6517Y-2.8785
X8.6648Y-1.368
X1.9249Y-0.4899
X2.3563Y-0.5277
X9.0963Y-1.3302
X3.3366Y-3.0619
X3.3093Y-0.9272
X3.7408Y-0.965
X6.4955Y-0.965
X6.9269Y-0.9272
X1.0816Y-1.997
X1.5131Y-2.0347
X7.1929Y-0.8051
X7.6243Y-0.7674
X6.8996Y-3.0619
X7.3179Y-2.9498
X9.1546Y-1.997
X6.5538Y-1.6317
X6.9852Y-1.594
X8.7232Y-2.0347
X2.9183Y-2.9498
X1.8665Y-1.1567
X2.2979Y-1.1944
X7.3095Y-2.1386
X7.7409Y-2.1009
X0.3345Y-2.4058
X9.3536Y-1.1101
X9.7851Y-1.0724
X1.1983Y-0.6635
X1.6297Y-0.7012
X2.4953Y-2.1009
X2.9267Y-2.1386
X7.9383Y-1.1944
X3.6824Y-1.6317
X3.251Y-1.594
X8.3697Y-1.1567
X0.7659Y-2.4436
X2.5845Y-2.8785
X2.6119Y-0.7674
X3.0434Y-0.8051
X2.158Y-2.8033
X6.1666Y-3.38
X6.5591Y-3.197
T4
X8.154Y-1.1755
X2.3713Y-2.8409
X9.686Y-2.4247
X1.3557Y-1.3491
X0.6669Y-1.0912
X6.8278Y-2.2796
X8.8222Y-0.6824
X2.8277Y-0.7863
X6.3628Y-3.2885
X2.0239Y-1.8423
X9.6277Y-1.758
X2.7693Y-1.453
X7.4669Y-1.453
X3.8734Y-3.2885
X7.1088Y-3.0059
X7.865Y-2.8409
X3.4084Y-2.2796
X3.525Y-0.9461
X6.7112Y-0.9461
X7.4086Y-0.7863
X6.7695Y-1.6128
X8.0957Y-0.5088
X2.1406Y-0.5088
X8.2123Y-1.8423
X0.6085Y-1.758
X8.8805Y-1.3491
X8.9389Y-2.0158
X1.2973Y-2.0158
X3.1275Y-3.0059
X0.5502Y-2.4247
X1.414Y-0.6824
X2.711Y-2.1198
X2.0822Y-1.1755
X3.4667Y-1.6128
X9.5694Y-1.0912
X7.5252Y-2.1198
T0
M30
