M48
; DRILL file {KiCad (5.1.4-0)} date 2020 October 31, Saturday 16:51:14
; FORMAT={-:-/ absolute / inch / decimal}
; #@! TF.CreationDate,2020-10-31T16:51:14+08:00
; #@! TF.GenerationSoftware,Kicad,Pcbnew,(5.1.4-0)
; #@! TF.FileFunction,Plated,1,2,PTH
FMAT,2
INCH
T1C0.0157
T2C0.0315
T3C0.0394
T4C0.0430
T5C0.0433
T6C0.0472
T7C0.0591
T8C0.0630
T9C0.0866
%
G90
G05
T1
X-1.2833Y1.0319
T2
X0.6171Y3.6427
X0.6959Y3.6427
X0.7746Y3.6427
T3
X2.5993Y2.7615
X-2.2827Y3.2164
X-1.9768Y3.1896
X1.9088Y2.5105
X2.2147Y2.5372
X1.2113Y2.373
X1.5172Y2.3997
X-3.0299Y2.8032
X-2.7239Y2.7764
X-2.3423Y2.5505
X-2.0363Y2.5237
X3.3793Y1.9815
X3.6852Y2.0083
X-2.4003Y1.8841
X-2.0944Y1.8573
X-3.0877Y2.1364
X-2.7818Y2.1096
X-3.8103Y2.0241
X-3.5044Y1.9973
X1.2693Y1.7074
X1.5752Y1.7342
X1.9692Y1.8463
X2.2751Y1.8731
X-3.3949Y3.2997
X-4.5578Y1.6041
X-4.2519Y1.5773
X-3.7009Y3.3264
X3.3238Y2.648
X3.6297Y2.6747
X2.9052Y2.7883
X-4.4999Y2.2707
X2.4925Y3.3784
X2.7984Y3.4052
X2.173Y3.1926
X3.2618Y3.3488
X3.5677Y3.3756
X1.8671Y3.1659
X-4.1939Y2.2439
X-1.6404Y2.4143
X-1.3345Y2.3875
X-3.7534Y2.6902
X-3.4475Y2.6634
X1.1544Y3.0417
X1.4603Y3.0685
X4.0118Y2.8965
X4.3177Y2.9233
X-2.9809Y3.4389
X-2.6749Y3.4122
X-1.277Y3.055
X4.1274Y1.5626
X4.4333Y1.5894
X1.6622Y1.0069
X1.9588Y1.0864
X4.0713Y2.2305
X4.3772Y2.2572
X-1.5829Y3.0818
X-4.4404Y2.9368
X-4.1345Y2.91
X2.4441Y1.1937
X2.7466Y1.247
X0.9082Y0.6967
X1.1865Y0.8265
X-2.0764Y1.1247
X-1.7798Y1.0452
X2.6594Y2.0942
X-2.8661Y1.2699
X-2.5636Y1.2165
X2.9653Y2.121
X-1.2965Y0.8906
X-1.0182Y0.7608
X-1.7002Y1.7489
X-1.3943Y1.7221
T4
X-0.2872Y3.5244
X-0.2872Y3.4244
X-0.2872Y3.3244
X-0.2872Y3.2244
X-0.2872Y3.1244
X-0.2872Y3.0244
X-0.2872Y2.9244
X-0.2872Y2.8244
X-0.2872Y2.7244
X-0.2872Y2.6244
X-0.2872Y2.5244
X-0.2872Y2.4244
X0.3128Y3.5244
X0.3128Y3.4244
X0.3128Y3.3244
X0.3128Y3.2244
X0.3128Y3.1244
X0.3128Y3.0244
X0.3128Y2.9244
X0.3128Y2.8244
X0.3128Y2.7244
X0.3128Y2.6244
X0.3128Y2.5244
X0.3128Y2.4244
T5
X-0.0778Y2.0886
X-0.7865Y3.5252
X-0.7865Y3.348
X-0.5306Y3.5252
X-0.5306Y3.348
X0.1112Y2.0886
T6
X-4.4425Y2.5581
X-4.2537Y2.4586
X-4.5009Y1.8913
X2.1788Y2.07
X1.3343Y1.3329
X1.5376Y1.2677
X1.9755Y2.1352
X3.3277Y2.9411
X3.531Y2.8759
X-2.4007Y1.5031
X-2.2118Y1.4036
X-4.312Y1.7918
X-1.4243Y0.5278
X-1.2809Y0.3697
X1.0968Y0.3679
X1.3102Y0.3762
X-3.8113Y1.6423
X-3.6224Y1.5428
X-1.5845Y2.7013
X-1.3957Y2.6018
X4.134Y1.8565
X4.0756Y2.5232
X4.2789Y2.458
X-3.0316Y2.4228
X-2.8428Y2.3233
X1.7896Y0.6503
X2.0011Y0.6213
X-2.9014Y0.8931
X-2.7219Y0.7775
X3.386Y2.2744
X1.2176Y2.6664
X3.5893Y2.2092
X4.3373Y1.7913
X1.4209Y2.6012
X2.7231Y1.7212
X2.9264Y1.656
X1.9171Y2.8019
X-3.753Y2.3092
X2.1204Y2.7367
X4.1923Y1.1895
X4.3956Y1.1243
X-3.6946Y2.976
X-2.2841Y2.8368
X-3.09Y1.7561
X-2.9011Y1.6565
X-2.0952Y2.7373
X-2.3424Y2.17
X2.0337Y1.4715
X2.237Y1.4063
X2.6647Y2.3879
X2.868Y2.3227
X-3.5057Y2.8765
X2.5399Y0.8265
X2.7481Y0.7793
X-3.5641Y2.2097
X-2.1535Y2.0705
X-2.1441Y0.7504
X-1.9754Y0.6196
X-1.6429Y2.0345
X2.6064Y3.0543
X-2.9702Y3.0844
X-2.7813Y2.9849
X3.4444Y1.6074
X3.6477Y1.5422
X-1.454Y1.935
X-1.7012Y1.3678
X-1.5123Y1.2683
X1.2759Y1.9997
X1.4793Y1.9345
X-4.5592Y1.2244
X-4.3703Y1.1249
X2.8097Y2.9891
T7
X0.5344Y3.6427
T8
X0.8573Y3.6427
T9
X0.8002Y1.2028
X3.5561Y0.8091
X-4.3179Y3.3681
X-0.7746Y2.7776
X0.8002Y2.7776
X-0.7746Y1.2028
X-3.5305Y0.8091
X4.3435Y3.3681
T0
M30
