G04 #@! TF.GenerationSoftware,KiCad,Pcbnew,(5.1.4-0)*
G04 #@! TF.CreationDate,2020-10-31T16:51:09+08:00*
G04 #@! TF.ProjectId,ahokore,61686f6b-6f72-4652-9e6b-696361645f70,rev?*
G04 #@! TF.SameCoordinates,Original*
G04 #@! TF.FileFunction,Paste,Bot*
G04 #@! TF.FilePolarity,Positive*
%FSLAX46Y46*%
G04 Gerber Fmt 4.6, Leading zero omitted, Abs format (unit mm)*
G04 Created by KiCad (PCBNEW (5.1.4-0)) date 2020-10-31 16:51:09*
%MOMM*%
%LPD*%
G04 APERTURE LIST*
%ADD10C,1.200000*%
%ADD11C,0.100000*%
G04 APERTURE END LIST*
D10*
X110115090Y40152183D03*
D11*
G36*
X109370428Y39484742D02*
G01*
X109265841Y40680175D01*
X110859752Y40819624D01*
X110964339Y39624191D01*
X109370428Y39484742D01*
X109370428Y39484742D01*
G37*
D10*
X107325744Y39908147D03*
D11*
G36*
X106581082Y39240706D02*
G01*
X106476495Y40436139D01*
X108070406Y40575588D01*
X108174993Y39380155D01*
X106581082Y39240706D01*
X106581082Y39240706D01*
G37*
D10*
X108690115Y57115404D03*
D11*
G36*
X107945453Y56447963D02*
G01*
X107840866Y57643396D01*
X109434777Y57782845D01*
X109539364Y56587412D01*
X107945453Y56447963D01*
X107945453Y56447963D01*
G37*
D10*
X105900769Y56871368D03*
D11*
G36*
X105156107Y56203927D02*
G01*
X105051520Y57399360D01*
X106645431Y57538809D01*
X106750018Y56343376D01*
X105156107Y56203927D01*
X105156107Y56203927D01*
G37*
D10*
X107180102Y74033794D03*
D11*
G36*
X106435440Y73366353D02*
G01*
X106330853Y74561786D01*
X107924764Y74701235D01*
X108029351Y73505802D01*
X106435440Y73366353D01*
X106435440Y73366353D01*
G37*
D10*
X104390756Y73789758D03*
D11*
G36*
X103646094Y73122317D02*
G01*
X103541507Y74317750D01*
X105135418Y74457199D01*
X105240005Y73261766D01*
X103646094Y73122317D01*
X103646094Y73122317D01*
G37*
D10*
X67300640Y31239263D03*
D11*
G36*
X66616983Y30509460D02*
G01*
X66408605Y31691229D01*
X67984297Y31969066D01*
X68192675Y30787297D01*
X66616983Y30509460D01*
X66616983Y30509460D01*
G37*
D10*
X64543178Y30753049D03*
D11*
G36*
X63859521Y30023246D02*
G01*
X63651143Y31205015D01*
X65226835Y31482852D01*
X65435213Y30301083D01*
X63859521Y30023246D01*
X63859521Y30023246D01*
G37*
D10*
X47339521Y26947968D03*
D11*
G36*
X46722072Y26161357D02*
G01*
X46411489Y27320468D01*
X47956970Y27734579D01*
X48267553Y26575468D01*
X46722072Y26161357D01*
X46722072Y26161357D01*
G37*
D10*
X44634929Y26223274D03*
D11*
G36*
X44017480Y25436663D02*
G01*
X43706897Y26595774D01*
X45252378Y27009885D01*
X45562961Y25850774D01*
X44017480Y25436663D01*
X44017480Y25436663D01*
G37*
D10*
X27870929Y19936777D03*
D11*
G36*
X27399454Y19054898D02*
G01*
X26892312Y20142467D01*
X28342404Y20818656D01*
X28849546Y19731087D01*
X27399454Y19054898D01*
X27399454Y19054898D01*
G37*
D10*
X25333267Y18753445D03*
D11*
G36*
X24861792Y17871566D02*
G01*
X24354650Y18959135D01*
X25804742Y19635324D01*
X26311884Y18547755D01*
X24861792Y17871566D01*
X24861792Y17871566D01*
G37*
D10*
X-28128102Y20381077D03*
D11*
G36*
X-29106719Y20175387D02*
G01*
X-28599577Y21262956D01*
X-27149485Y20586767D01*
X-27656627Y19499198D01*
X-29106719Y20175387D01*
X-29106719Y20175387D01*
G37*
D10*
X-30665764Y21564409D03*
D11*
G36*
X-31644381Y21358719D02*
G01*
X-31137239Y22446288D01*
X-29687147Y21770099D01*
X-30194289Y20682530D01*
X-31644381Y21358719D01*
X-31644381Y21358719D01*
G37*
D10*
X-47621433Y27195742D03*
D11*
G36*
X-48549465Y26823242D02*
G01*
X-48238882Y27982353D01*
X-46693401Y27568242D01*
X-47003984Y26409131D01*
X-48549465Y26823242D01*
X-48549465Y26823242D01*
G37*
D10*
X-50326025Y27920436D03*
D11*
G36*
X-51254057Y27547936D02*
G01*
X-50943474Y28707047D01*
X-49397993Y28292936D01*
X-49708576Y27133825D01*
X-51254057Y27547936D01*
X-51254057Y27547936D01*
G37*
D10*
X-67578702Y31334137D03*
D11*
G36*
X-68470737Y30882171D02*
G01*
X-68262359Y32063940D01*
X-66686667Y31786103D01*
X-66895045Y30604334D01*
X-68470737Y30882171D01*
X-68470737Y30882171D01*
G37*
D10*
X-70336164Y31820351D03*
D11*
G36*
X-71228199Y31368385D02*
G01*
X-71019821Y32550154D01*
X-69444129Y32272317D01*
X-69652507Y31090548D01*
X-71228199Y31368385D01*
X-71228199Y31368385D01*
G37*
D10*
X91114603Y50792795D03*
D11*
G36*
X90369941Y50125354D02*
G01*
X90265354Y51320787D01*
X91859265Y51460236D01*
X91963852Y50264803D01*
X90369941Y50125354D01*
X90369941Y50125354D01*
G37*
D10*
X88325257Y50548759D03*
D11*
G36*
X87580595Y49881318D02*
G01*
X87476008Y51076751D01*
X89069919Y51216200D01*
X89174506Y50020767D01*
X87580595Y49881318D01*
X87580595Y49881318D01*
G37*
D10*
X72828930Y53655276D03*
D11*
G36*
X72084268Y52987835D02*
G01*
X71979681Y54183268D01*
X73573592Y54322717D01*
X73678179Y53127284D01*
X72084268Y52987835D01*
X72084268Y52987835D01*
G37*
D10*
X70039584Y53411240D03*
D11*
G36*
X69294922Y52743799D02*
G01*
X69190335Y53939232D01*
X70784246Y54078681D01*
X70888833Y52883248D01*
X69294922Y52743799D01*
X69294922Y52743799D01*
G37*
D10*
X55298275Y47358812D03*
D11*
G36*
X54553613Y46691371D02*
G01*
X54449026Y47886804D01*
X56042937Y48026253D01*
X56147524Y46830820D01*
X54553613Y46691371D01*
X54553613Y46691371D01*
G37*
D10*
X52508929Y47114776D03*
D11*
G36*
X51764267Y46447335D02*
G01*
X51659680Y47642768D01*
X53253591Y47782217D01*
X53358178Y46586784D01*
X51764267Y46447335D01*
X51764267Y46447335D01*
G37*
D10*
X37520603Y43830200D03*
D11*
G36*
X36775941Y43162759D02*
G01*
X36671354Y44358192D01*
X38265265Y44497641D01*
X38369852Y43302208D01*
X36775941Y43162759D01*
X36775941Y43162759D01*
G37*
D10*
X34731257Y43586164D03*
D11*
G36*
X33986595Y42918723D02*
G01*
X33882008Y44114156D01*
X35475919Y44253605D01*
X35580506Y43058172D01*
X33986595Y42918723D01*
X33986595Y42918723D01*
G37*
D10*
X-37905932Y43959743D03*
D11*
G36*
X-38755181Y43431751D02*
G01*
X-38650594Y44627184D01*
X-37056683Y44487735D01*
X-37161270Y43292302D01*
X-38755181Y43431751D01*
X-38755181Y43431751D01*
G37*
D10*
X-40695278Y44203779D03*
D11*
G36*
X-41544527Y43675787D02*
G01*
X-41439940Y44871220D01*
X-39846029Y44731771D01*
X-39950616Y43536338D01*
X-41544527Y43675787D01*
X-41544527Y43675787D01*
G37*
D10*
X-55688260Y47393724D03*
D11*
G36*
X-56537509Y46865732D02*
G01*
X-56432922Y48061165D01*
X-54839011Y47921716D01*
X-54943598Y46726283D01*
X-56537509Y46865732D01*
X-56537509Y46865732D01*
G37*
D10*
X-58477606Y47637760D03*
D11*
G36*
X-59326855Y47109768D02*
G01*
X-59222268Y48305201D01*
X-57628357Y48165752D01*
X-57732944Y46970319D01*
X-59326855Y47109768D01*
X-59326855Y47109768D01*
G37*
D10*
X-73148432Y53802243D03*
D11*
G36*
X-73997681Y53274251D02*
G01*
X-73893094Y54469684D01*
X-72299183Y54330235D01*
X-72403770Y53134802D01*
X-73997681Y53274251D01*
X-73997681Y53274251D01*
G37*
D10*
X-75937778Y54046279D03*
D11*
G36*
X-76787027Y53518287D02*
G01*
X-76682440Y54713720D01*
X-75088529Y54574271D01*
X-75193116Y53378838D01*
X-76787027Y53518287D01*
X-76787027Y53518287D01*
G37*
D10*
X-91502259Y50949725D03*
D11*
G36*
X-92351508Y50421733D02*
G01*
X-92246921Y51617166D01*
X-90653010Y51477717D01*
X-90757597Y50282284D01*
X-92351508Y50421733D01*
X-92351508Y50421733D01*
G37*
D10*
X-94291605Y51193761D03*
D11*
G36*
X-95140854Y50665769D02*
G01*
X-95036267Y51861202D01*
X-93442356Y51721753D01*
X-93546943Y50526320D01*
X-95140854Y50665769D01*
X-95140854Y50665769D01*
G37*
D10*
X-110488759Y40281725D03*
D11*
G36*
X-111338008Y39753733D02*
G01*
X-111233421Y40949166D01*
X-109639510Y40809717D01*
X-109744097Y39614284D01*
X-111338008Y39753733D01*
X-111338008Y39753733D01*
G37*
D10*
X-113278105Y40525761D03*
D11*
G36*
X-114127354Y39997769D02*
G01*
X-114022767Y41193202D01*
X-112428856Y41053753D01*
X-112533443Y39858320D01*
X-114127354Y39997769D01*
X-114127354Y39997769D01*
G37*
D10*
X89703616Y67719905D03*
D11*
G36*
X88958954Y67052464D02*
G01*
X88854367Y68247897D01*
X90448278Y68387346D01*
X90552865Y67191913D01*
X88958954Y67052464D01*
X88958954Y67052464D01*
G37*
D10*
X86914270Y67475869D03*
D11*
G36*
X86169608Y66808428D02*
G01*
X86065021Y68003861D01*
X87658932Y68143310D01*
X87763519Y66947877D01*
X86169608Y66808428D01*
X86169608Y66808428D01*
G37*
D10*
X71302603Y70604794D03*
D11*
G36*
X70557941Y69937353D02*
G01*
X70453354Y71132786D01*
X72047265Y71272235D01*
X72151852Y70076802D01*
X70557941Y69937353D01*
X70557941Y69937353D01*
G37*
D10*
X68513257Y70360758D03*
D11*
G36*
X67768595Y69693317D02*
G01*
X67664008Y70888750D01*
X69257919Y71028199D01*
X69362506Y69832766D01*
X67768595Y69693317D01*
X67768595Y69693317D01*
G37*
D10*
X53762616Y64227405D03*
D11*
G36*
X53017954Y63559964D02*
G01*
X52913367Y64755397D01*
X54507278Y64894846D01*
X54611865Y63699413D01*
X53017954Y63559964D01*
X53017954Y63559964D01*
G37*
D10*
X50973270Y63983369D03*
D11*
G36*
X50228608Y63315928D02*
G01*
X50124021Y64511361D01*
X51717932Y64650810D01*
X51822519Y63455377D01*
X50228608Y63315928D01*
X50228608Y63315928D01*
G37*
D10*
X36046116Y60734905D03*
D11*
G36*
X35301454Y60067464D02*
G01*
X35196867Y61262897D01*
X36790778Y61402346D01*
X36895365Y60206913D01*
X35301454Y60067464D01*
X35301454Y60067464D01*
G37*
D10*
X33256770Y60490869D03*
D11*
G36*
X32512108Y59823428D02*
G01*
X32407521Y61018861D01*
X34001432Y61158310D01*
X34106019Y59962877D01*
X32512108Y59823428D01*
X32512108Y59823428D01*
G37*
D10*
X-36386587Y60860707D03*
D11*
G36*
X-37235836Y60332715D02*
G01*
X-37131249Y61528148D01*
X-35537338Y61388699D01*
X-35641925Y60193266D01*
X-37235836Y60332715D01*
X-37235836Y60332715D01*
G37*
D10*
X-39175933Y61104743D03*
D11*
G36*
X-40025182Y60576751D02*
G01*
X-39920595Y61772184D01*
X-38326684Y61632735D01*
X-38431271Y60437302D01*
X-40025182Y60576751D01*
X-40025182Y60576751D01*
G37*
D10*
X-54213773Y64320836D03*
D11*
G36*
X-55063022Y63792844D02*
G01*
X-54958435Y64988277D01*
X-53364524Y64848828D01*
X-53469111Y63653395D01*
X-55063022Y63792844D01*
X-55063022Y63792844D01*
G37*
D10*
X-57003119Y64564872D03*
D11*
G36*
X-57852368Y64036880D02*
G01*
X-57747781Y65232313D01*
X-56153870Y65092864D01*
X-56258457Y63897431D01*
X-57852368Y64036880D01*
X-57852368Y64036880D01*
G37*
D10*
X-71678601Y70739319D03*
D11*
G36*
X-72527850Y70211327D02*
G01*
X-72423263Y71406760D01*
X-70829352Y71267311D01*
X-70933939Y70071878D01*
X-72527850Y70211327D01*
X-72527850Y70211327D01*
G37*
D10*
X-74467947Y70983355D03*
D11*
G36*
X-75317196Y70455363D02*
G01*
X-75212609Y71650796D01*
X-73618698Y71511347D01*
X-73723285Y70315914D01*
X-75317196Y70455363D01*
X-75317196Y70455363D01*
G37*
D10*
X-90055746Y67868115D03*
D11*
G36*
X-90904995Y67340123D02*
G01*
X-90800408Y68535556D01*
X-89206497Y68396107D01*
X-89311084Y67200674D01*
X-90904995Y67340123D01*
X-90904995Y67340123D01*
G37*
D10*
X-92845092Y68112151D03*
D11*
G36*
X-93694341Y67584159D02*
G01*
X-93589754Y68779592D01*
X-91995843Y68640143D01*
X-92100430Y67444710D01*
X-93694341Y67584159D01*
X-93694341Y67584159D01*
G37*
D10*
X-109016601Y57213818D03*
D11*
G36*
X-109865850Y56685826D02*
G01*
X-109761263Y57881259D01*
X-108167352Y57741810D01*
X-108271939Y56546377D01*
X-109865850Y56685826D01*
X-109865850Y56685826D01*
G37*
D10*
X-111805947Y57457854D03*
D11*
G36*
X-112655196Y56929862D02*
G01*
X-112550609Y58125295D01*
X-110956698Y57985846D01*
X-111061285Y56790413D01*
X-112655196Y56929862D01*
X-112655196Y56929862D01*
G37*
D10*
X88130103Y85521794D03*
D11*
G36*
X87385441Y84854353D02*
G01*
X87280854Y86049786D01*
X88874765Y86189235D01*
X88979352Y84993802D01*
X87385441Y84854353D01*
X87385441Y84854353D01*
G37*
D10*
X85340757Y85277758D03*
D11*
G36*
X84596095Y84610317D02*
G01*
X84491508Y85805750D01*
X86085419Y85945199D01*
X86190006Y84749766D01*
X84596095Y84610317D01*
X84596095Y84610317D01*
G37*
D10*
X68589775Y86274311D03*
D11*
G36*
X67845113Y85606870D02*
G01*
X67740526Y86802303D01*
X69334437Y86941752D01*
X69439024Y85746319D01*
X67845113Y85606870D01*
X67845113Y85606870D01*
G37*
D10*
X65800429Y86030275D03*
D11*
G36*
X65055767Y85362834D02*
G01*
X64951180Y86558267D01*
X66545091Y86697716D01*
X66649678Y85502283D01*
X65055767Y85362834D01*
X65055767Y85362834D01*
G37*
D10*
X52704322Y80875123D03*
D11*
G36*
X51959660Y80207682D02*
G01*
X51855073Y81403115D01*
X53448984Y81542564D01*
X53553571Y80347131D01*
X51959660Y80207682D01*
X51959660Y80207682D01*
G37*
D10*
X49914976Y80631087D03*
D11*
G36*
X49170314Y79963646D02*
G01*
X49065727Y81159079D01*
X50659638Y81298528D01*
X50764225Y80103095D01*
X49170314Y79963646D01*
X49170314Y79963646D01*
G37*
D10*
X34601930Y77721776D03*
D11*
G36*
X33857268Y77054335D02*
G01*
X33752681Y78249768D01*
X35346592Y78389217D01*
X35451179Y77193784D01*
X33857268Y77054335D01*
X33857268Y77054335D01*
G37*
D10*
X31812584Y77477740D03*
D11*
G36*
X31067922Y76810299D02*
G01*
X30963335Y78005732D01*
X32557246Y78145181D01*
X32661833Y76949748D01*
X31067922Y76810299D01*
X31067922Y76810299D01*
G37*
D10*
X-34926087Y77815207D03*
D11*
G36*
X-35775336Y77287215D02*
G01*
X-35670749Y78482648D01*
X-34076838Y78343199D01*
X-34181425Y77147766D01*
X-35775336Y77287215D01*
X-35775336Y77287215D01*
G37*
D10*
X-37715433Y78059243D03*
D11*
G36*
X-38564682Y77531251D02*
G01*
X-38460095Y78726684D01*
X-36866184Y78587235D01*
X-36970771Y77391802D01*
X-38564682Y77531251D01*
X-38564682Y77531251D01*
G37*
D10*
X-52701433Y81234243D03*
D11*
G36*
X-53550682Y80706251D02*
G01*
X-53446095Y81901684D01*
X-51852184Y81762235D01*
X-51956771Y80566802D01*
X-53550682Y80706251D01*
X-53550682Y80706251D01*
G37*
D10*
X-55490779Y81478279D03*
D11*
G36*
X-56340028Y80950287D02*
G01*
X-56235441Y82145720D01*
X-54641530Y82006271D01*
X-54746117Y80810838D01*
X-56340028Y80950287D01*
X-56340028Y80950287D01*
G37*
D10*
X-70434101Y86887318D03*
D11*
G36*
X-71283350Y86359326D02*
G01*
X-71178763Y87554759D01*
X-69584852Y87415310D01*
X-69689439Y86219877D01*
X-71283350Y86359326D01*
X-71283350Y86359326D01*
G37*
D10*
X-73223447Y87131354D03*
D11*
G36*
X-74072696Y86603362D02*
G01*
X-73968109Y87798795D01*
X-72374198Y87659346D01*
X-72478785Y86463913D01*
X-74072696Y86603362D01*
X-74072696Y86603362D01*
G37*
D10*
X-88722101Y84029818D03*
D11*
G36*
X-89571350Y83501826D02*
G01*
X-89466763Y84697259D01*
X-87872852Y84557810D01*
X-87977439Y83362377D01*
X-89571350Y83501826D01*
X-89571350Y83501826D01*
G37*
D10*
X-91511447Y84273854D03*
D11*
G36*
X-92360696Y83745862D02*
G01*
X-92256109Y84941295D01*
X-90662198Y84801846D01*
X-90766785Y83606413D01*
X-92360696Y83745862D01*
X-92360696Y83745862D01*
G37*
D10*
X-107506586Y74132207D03*
D11*
G36*
X-108355835Y73604215D02*
G01*
X-108251248Y74799648D01*
X-106657337Y74660199D01*
X-106761924Y73464766D01*
X-108355835Y73604215D01*
X-108355835Y73604215D01*
G37*
D10*
X-110295932Y74376243D03*
D11*
G36*
X-111145181Y73848251D02*
G01*
X-111040594Y75043684D01*
X-109446683Y74904235D01*
X-109551270Y73708802D01*
X-111145181Y73848251D01*
X-111145181Y73848251D01*
G37*
M02*
