G04 #@! TF.GenerationSoftware,KiCad,Pcbnew,(5.1.4-0)*
G04 #@! TF.CreationDate,2020-10-31T16:51:09+08:00*
G04 #@! TF.ProjectId,ahokore,61686f6b-6f72-4652-9e6b-696361645f70,rev?*
G04 #@! TF.SameCoordinates,Original*
G04 #@! TF.FileFunction,Copper,L1,Top*
G04 #@! TF.FilePolarity,Positive*
%FSLAX46Y46*%
G04 Gerber Fmt 4.6, Leading zero omitted, Abs format (unit mm)*
G04 Created by KiCad (PCBNEW (5.1.4-0)) date 2020-10-31 16:51:09*
%MOMM*%
%LPD*%
G04 APERTURE LIST*
%ADD10C,0.010000*%
%ADD11C,4.400000*%
%ADD12C,2.000000*%
%ADD13C,1.600000*%
%ADD14C,0.100000*%
%ADD15C,1.752600*%
%ADD16R,1.752600X1.752600*%
%ADD17C,2.250000*%
%ADD18C,1.250000*%
%ADD19C,2.300000*%
%ADD20C,0.800000*%
%ADD21C,0.250000*%
G04 APERTURE END LIST*
D10*
G36*
X-4834375Y5280382D02*
G01*
X-6222951Y5280382D01*
X-6225950Y5483073D01*
X-6228950Y5685764D01*
X-6343614Y5615734D01*
X-6501435Y5525941D01*
X-6662829Y5446593D01*
X-6822997Y5379789D01*
X-6977141Y5327623D01*
X-7046940Y5308558D01*
X-7109941Y5293280D01*
X-7167605Y5280597D01*
X-7222904Y5270252D01*
X-7278811Y5261988D01*
X-7338299Y5255547D01*
X-7404342Y5250672D01*
X-7479911Y5247107D01*
X-7567981Y5244592D01*
X-7671523Y5242872D01*
X-7793511Y5241689D01*
X-7821962Y5241483D01*
X-7919122Y5240926D01*
X-8010410Y5240623D01*
X-8093234Y5240566D01*
X-8165001Y5240748D01*
X-8223121Y5241161D01*
X-8265001Y5241797D01*
X-8288048Y5242648D01*
X-8290495Y5242884D01*
X-8316040Y5246097D01*
X-8356532Y5250972D01*
X-8405012Y5256677D01*
X-8428299Y5259377D01*
X-8529835Y5275176D01*
X-8642089Y5299553D01*
X-8756563Y5330267D01*
X-8864764Y5365078D01*
X-8942367Y5394908D01*
X-9084573Y5462078D01*
X-9223711Y5542701D01*
X-9362117Y5638448D01*
X-9502128Y5750989D01*
X-9646080Y5881995D01*
X-9707190Y5941840D01*
X-9818987Y6056852D01*
X-9916563Y6165053D01*
X-10004205Y6271619D01*
X-10086199Y6381724D01*
X-10154701Y6482031D01*
X-10284618Y6696409D01*
X-10396091Y6917792D01*
X-10489480Y7147410D01*
X-10565145Y7386495D01*
X-10623445Y7636276D01*
X-10664740Y7897985D01*
X-10689389Y8172851D01*
X-10696090Y8334281D01*
X-10696020Y8345018D01*
X-9485835Y8345018D01*
X-9472294Y8138785D01*
X-9443269Y7937372D01*
X-9430651Y7874457D01*
X-9379670Y7681817D01*
X-9312404Y7499729D01*
X-9229851Y7329254D01*
X-9133016Y7171450D01*
X-9022899Y7027378D01*
X-8900502Y6898097D01*
X-8766828Y6784666D01*
X-8622876Y6688145D01*
X-8469651Y6609594D01*
X-8308152Y6550073D01*
X-8141667Y6511028D01*
X-8091170Y6502627D01*
X-8044498Y6495222D01*
X-8008930Y6489954D01*
X-7998351Y6488569D01*
X-7958740Y6486089D01*
X-7902519Y6485548D01*
X-7835019Y6486715D01*
X-7761571Y6489358D01*
X-7687507Y6493247D01*
X-7618157Y6498149D01*
X-7558854Y6503834D01*
X-7518793Y6509373D01*
X-7335397Y6552056D01*
X-7162251Y6614033D01*
X-7000003Y6694752D01*
X-6849301Y6793658D01*
X-6710793Y6910199D01*
X-6585129Y7043820D01*
X-6472954Y7193969D01*
X-6374919Y7360092D01*
X-6291670Y7541636D01*
X-6282439Y7565119D01*
X-6223689Y7744320D01*
X-6180190Y7935917D01*
X-6152011Y8136316D01*
X-6139224Y8341920D01*
X-6141900Y8549136D01*
X-6160109Y8754366D01*
X-6193922Y8954017D01*
X-6243410Y9144493D01*
X-6250890Y9168060D01*
X-6287507Y9267231D01*
X-6334953Y9375071D01*
X-6389471Y9484091D01*
X-6447306Y9586799D01*
X-6504701Y9675703D01*
X-6507086Y9679080D01*
X-6545092Y9729006D01*
X-6593024Y9786639D01*
X-6644633Y9844702D01*
X-6691792Y9894054D01*
X-6828010Y10015955D01*
X-6973031Y10118158D01*
X-7127639Y10201012D01*
X-7292620Y10264865D01*
X-7468758Y10310064D01*
X-7656838Y10336956D01*
X-7699300Y10340409D01*
X-7891942Y10344147D01*
X-8077492Y10327705D01*
X-8255181Y10291257D01*
X-8424236Y10234975D01*
X-8583888Y10159032D01*
X-8630886Y10131805D01*
X-8772938Y10033589D01*
X-8906723Y9916738D01*
X-9030371Y9783718D01*
X-9142013Y9636994D01*
X-9239779Y9479032D01*
X-9321799Y9312296D01*
X-9386204Y9139254D01*
X-9388035Y9133377D01*
X-9434993Y8950251D01*
X-9467041Y8754990D01*
X-9484036Y8551833D01*
X-9485835Y8345018D01*
X-10696020Y8345018D01*
X-10694161Y8627200D01*
X-10673286Y8908931D01*
X-10633398Y9179671D01*
X-10574431Y9439618D01*
X-10496320Y9688969D01*
X-10398999Y9927923D01*
X-10282402Y10156675D01*
X-10146464Y10375425D01*
X-9991118Y10584370D01*
X-9918321Y10671268D01*
X-9772997Y10832950D01*
X-9633635Y10975301D01*
X-9498258Y11099555D01*
X-9364885Y11206949D01*
X-9231538Y11298718D01*
X-9096236Y11376099D01*
X-8957000Y11440328D01*
X-8811850Y11492641D01*
X-8658808Y11534273D01*
X-8495893Y11566461D01*
X-8480667Y11568939D01*
X-8375252Y11583089D01*
X-8254845Y11594615D01*
X-8123982Y11603422D01*
X-7987204Y11609413D01*
X-7849050Y11612491D01*
X-7714057Y11612560D01*
X-7586765Y11609526D01*
X-7471712Y11603290D01*
X-7373438Y11593758D01*
X-7364453Y11592585D01*
X-7159776Y11556424D01*
X-6960444Y11503169D01*
X-6763667Y11431800D01*
X-6566655Y11341298D01*
X-6366616Y11230644D01*
X-6355729Y11224109D01*
X-6228950Y11147710D01*
X-6226168Y13505713D01*
X-6223387Y15863715D01*
X-4834375Y15863715D01*
X-4834375Y5280382D01*
X-4834375Y5280382D01*
G37*
X-4834375Y5280382D02*
X-6222951Y5280382D01*
X-6225950Y5483073D01*
X-6228950Y5685764D01*
X-6343614Y5615734D01*
X-6501435Y5525941D01*
X-6662829Y5446593D01*
X-6822997Y5379789D01*
X-6977141Y5327623D01*
X-7046940Y5308558D01*
X-7109941Y5293280D01*
X-7167605Y5280597D01*
X-7222904Y5270252D01*
X-7278811Y5261988D01*
X-7338299Y5255547D01*
X-7404342Y5250672D01*
X-7479911Y5247107D01*
X-7567981Y5244592D01*
X-7671523Y5242872D01*
X-7793511Y5241689D01*
X-7821962Y5241483D01*
X-7919122Y5240926D01*
X-8010410Y5240623D01*
X-8093234Y5240566D01*
X-8165001Y5240748D01*
X-8223121Y5241161D01*
X-8265001Y5241797D01*
X-8288048Y5242648D01*
X-8290495Y5242884D01*
X-8316040Y5246097D01*
X-8356532Y5250972D01*
X-8405012Y5256677D01*
X-8428299Y5259377D01*
X-8529835Y5275176D01*
X-8642089Y5299553D01*
X-8756563Y5330267D01*
X-8864764Y5365078D01*
X-8942367Y5394908D01*
X-9084573Y5462078D01*
X-9223711Y5542701D01*
X-9362117Y5638448D01*
X-9502128Y5750989D01*
X-9646080Y5881995D01*
X-9707190Y5941840D01*
X-9818987Y6056852D01*
X-9916563Y6165053D01*
X-10004205Y6271619D01*
X-10086199Y6381724D01*
X-10154701Y6482031D01*
X-10284618Y6696409D01*
X-10396091Y6917792D01*
X-10489480Y7147410D01*
X-10565145Y7386495D01*
X-10623445Y7636276D01*
X-10664740Y7897985D01*
X-10689389Y8172851D01*
X-10696090Y8334281D01*
X-10696020Y8345018D01*
X-9485835Y8345018D01*
X-9472294Y8138785D01*
X-9443269Y7937372D01*
X-9430651Y7874457D01*
X-9379670Y7681817D01*
X-9312404Y7499729D01*
X-9229851Y7329254D01*
X-9133016Y7171450D01*
X-9022899Y7027378D01*
X-8900502Y6898097D01*
X-8766828Y6784666D01*
X-8622876Y6688145D01*
X-8469651Y6609594D01*
X-8308152Y6550073D01*
X-8141667Y6511028D01*
X-8091170Y6502627D01*
X-8044498Y6495222D01*
X-8008930Y6489954D01*
X-7998351Y6488569D01*
X-7958740Y6486089D01*
X-7902519Y6485548D01*
X-7835019Y6486715D01*
X-7761571Y6489358D01*
X-7687507Y6493247D01*
X-7618157Y6498149D01*
X-7558854Y6503834D01*
X-7518793Y6509373D01*
X-7335397Y6552056D01*
X-7162251Y6614033D01*
X-7000003Y6694752D01*
X-6849301Y6793658D01*
X-6710793Y6910199D01*
X-6585129Y7043820D01*
X-6472954Y7193969D01*
X-6374919Y7360092D01*
X-6291670Y7541636D01*
X-6282439Y7565119D01*
X-6223689Y7744320D01*
X-6180190Y7935917D01*
X-6152011Y8136316D01*
X-6139224Y8341920D01*
X-6141900Y8549136D01*
X-6160109Y8754366D01*
X-6193922Y8954017D01*
X-6243410Y9144493D01*
X-6250890Y9168060D01*
X-6287507Y9267231D01*
X-6334953Y9375071D01*
X-6389471Y9484091D01*
X-6447306Y9586799D01*
X-6504701Y9675703D01*
X-6507086Y9679080D01*
X-6545092Y9729006D01*
X-6593024Y9786639D01*
X-6644633Y9844702D01*
X-6691792Y9894054D01*
X-6828010Y10015955D01*
X-6973031Y10118158D01*
X-7127639Y10201012D01*
X-7292620Y10264865D01*
X-7468758Y10310064D01*
X-7656838Y10336956D01*
X-7699300Y10340409D01*
X-7891942Y10344147D01*
X-8077492Y10327705D01*
X-8255181Y10291257D01*
X-8424236Y10234975D01*
X-8583888Y10159032D01*
X-8630886Y10131805D01*
X-8772938Y10033589D01*
X-8906723Y9916738D01*
X-9030371Y9783718D01*
X-9142013Y9636994D01*
X-9239779Y9479032D01*
X-9321799Y9312296D01*
X-9386204Y9139254D01*
X-9388035Y9133377D01*
X-9434993Y8950251D01*
X-9467041Y8754990D01*
X-9484036Y8551833D01*
X-9485835Y8345018D01*
X-10696020Y8345018D01*
X-10694161Y8627200D01*
X-10673286Y8908931D01*
X-10633398Y9179671D01*
X-10574431Y9439618D01*
X-10496320Y9688969D01*
X-10398999Y9927923D01*
X-10282402Y10156675D01*
X-10146464Y10375425D01*
X-9991118Y10584370D01*
X-9918321Y10671268D01*
X-9772997Y10832950D01*
X-9633635Y10975301D01*
X-9498258Y11099555D01*
X-9364885Y11206949D01*
X-9231538Y11298718D01*
X-9096236Y11376099D01*
X-8957000Y11440328D01*
X-8811850Y11492641D01*
X-8658808Y11534273D01*
X-8495893Y11566461D01*
X-8480667Y11568939D01*
X-8375252Y11583089D01*
X-8254845Y11594615D01*
X-8123982Y11603422D01*
X-7987204Y11609413D01*
X-7849050Y11612491D01*
X-7714057Y11612560D01*
X-7586765Y11609526D01*
X-7471712Y11603290D01*
X-7373438Y11593758D01*
X-7364453Y11592585D01*
X-7159776Y11556424D01*
X-6960444Y11503169D01*
X-6763667Y11431800D01*
X-6566655Y11341298D01*
X-6366616Y11230644D01*
X-6355729Y11224109D01*
X-6228950Y11147710D01*
X-6226168Y13505713D01*
X-6223387Y15863715D01*
X-4834375Y15863715D01*
X-4834375Y5280382D01*
G36*
X-1342186Y11598867D02*
G01*
X-1179559Y11590291D01*
X-1029027Y11575133D01*
X-885924Y11552709D01*
X-745586Y11522336D01*
X-603350Y11483330D01*
X-507335Y11452913D01*
X-291316Y11370611D01*
X-88437Y11271127D01*
X102760Y11153560D01*
X283732Y11017010D01*
X455938Y10860575D01*
X463258Y10853299D01*
X622349Y10679474D01*
X764758Y10491953D01*
X890632Y10290453D01*
X1000118Y10074689D01*
X1093362Y9844377D01*
X1170512Y9599233D01*
X1222288Y9384964D01*
X1251452Y9227072D01*
X1275762Y9055170D01*
X1294786Y8875112D01*
X1308091Y8692751D01*
X1315244Y8513941D01*
X1315813Y8344536D01*
X1309956Y8199067D01*
X1302838Y8091580D01*
X-2952066Y8091580D01*
X-2944183Y8001210D01*
X-2917254Y7807664D01*
X-2871103Y7617531D01*
X-2806877Y7434159D01*
X-2725724Y7260895D01*
X-2642549Y7121441D01*
X-2600635Y7064558D01*
X-2546628Y7000402D01*
X-2484863Y6933376D01*
X-2419678Y6867881D01*
X-2355408Y6808317D01*
X-2296390Y6759086D01*
X-2258873Y6732043D01*
X-2115330Y6648425D01*
X-1967462Y6583264D01*
X-1812625Y6535819D01*
X-1648177Y6505347D01*
X-1471472Y6491109D01*
X-1394792Y6489791D01*
X-1219563Y6496345D01*
X-1059791Y6516738D01*
X-913094Y6551853D01*
X-777086Y6602574D01*
X-649386Y6669783D01*
X-527610Y6754363D01*
X-413244Y6853504D01*
X-321982Y6945329D01*
X-230546Y7047641D01*
X-137093Y7162744D01*
X-39779Y7292943D01*
X63241Y7440543D01*
X99416Y7494383D01*
X132950Y7543824D01*
X162725Y7586039D01*
X186448Y7617906D01*
X201826Y7636306D01*
X206115Y7639584D01*
X216609Y7634360D01*
X244267Y7619454D01*
X287043Y7596009D01*
X342894Y7565169D01*
X409775Y7528079D01*
X485643Y7485884D01*
X568454Y7439728D01*
X656163Y7390755D01*
X746727Y7340111D01*
X838102Y7288939D01*
X928242Y7238384D01*
X1015106Y7189590D01*
X1096648Y7143702D01*
X1170824Y7101864D01*
X1235591Y7065222D01*
X1288904Y7034918D01*
X1328719Y7012098D01*
X1352993Y6997907D01*
X1359682Y6993688D01*
X1357100Y6982267D01*
X1343423Y6955417D01*
X1320324Y6915684D01*
X1289475Y6865614D01*
X1252548Y6807753D01*
X1211217Y6744648D01*
X1167153Y6678844D01*
X1122030Y6612889D01*
X1077520Y6549329D01*
X1035295Y6490709D01*
X997028Y6439576D01*
X988248Y6428226D01*
X816747Y6221937D01*
X640153Y6036789D01*
X457668Y5872295D01*
X268492Y5727968D01*
X71828Y5603323D01*
X-133124Y5497873D01*
X-347164Y5411131D01*
X-571090Y5342612D01*
X-805700Y5291829D01*
X-904617Y5276100D01*
X-1015317Y5262541D01*
X-1136641Y5251668D01*
X-1262888Y5243720D01*
X-1388362Y5238938D01*
X-1507363Y5237565D01*
X-1614193Y5239839D01*
X-1675911Y5243507D01*
X-1884828Y5264319D01*
X-2076454Y5292482D01*
X-2254592Y5328931D01*
X-2423045Y5374602D01*
X-2585616Y5430429D01*
X-2746110Y5497350D01*
X-2789366Y5517340D01*
X-2993461Y5625604D01*
X-3187599Y5752799D01*
X-3370647Y5897648D01*
X-3541470Y6058875D01*
X-3698931Y6235204D01*
X-3841896Y6425358D01*
X-3969231Y6628060D01*
X-4079799Y6842035D01*
X-4172466Y7066005D01*
X-4176573Y7077344D01*
X-4241047Y7273164D01*
X-4293048Y7469028D01*
X-4333289Y7669050D01*
X-4362484Y7877343D01*
X-4381349Y8098023D01*
X-4389991Y8306554D01*
X-4388651Y8606718D01*
X-4370181Y8893350D01*
X-4334475Y9166929D01*
X-4320009Y9238108D01*
X-2861444Y9238108D01*
X-106504Y9238108D01*
X-126804Y9307010D01*
X-183510Y9475451D01*
X-249495Y9625810D01*
X-326173Y9760604D01*
X-414957Y9882348D01*
X-506356Y9982815D01*
X-615157Y10080153D01*
X-729948Y10160400D01*
X-853762Y10225039D01*
X-989630Y10275553D01*
X-1140587Y10313426D01*
X-1207247Y10325596D01*
X-1284454Y10335056D01*
X-1374914Y10340865D01*
X-1471817Y10343017D01*
X-1568353Y10341507D01*
X-1657714Y10336332D01*
X-1733089Y10327485D01*
X-1742057Y10325967D01*
X-1911115Y10285176D01*
X-2070707Y10224767D01*
X-2219897Y10145452D01*
X-2357747Y10047947D01*
X-2483324Y9932963D01*
X-2595690Y9801215D01*
X-2693909Y9653416D01*
X-2742674Y9563325D01*
X-2765758Y9513307D01*
X-2790994Y9452344D01*
X-2815618Y9387754D01*
X-2836862Y9326857D01*
X-2851961Y9276970D01*
X-2854129Y9268425D01*
X-2861444Y9238108D01*
X-4320009Y9238108D01*
X-4281427Y9427937D01*
X-4210929Y9676855D01*
X-4122874Y9914163D01*
X-4017155Y10140343D01*
X-3958293Y10248266D01*
X-3825780Y10458949D01*
X-3679059Y10653190D01*
X-3518685Y10830579D01*
X-3345214Y10990709D01*
X-3159204Y11133170D01*
X-2961209Y11257554D01*
X-2751787Y11363452D01*
X-2531494Y11450457D01*
X-2300886Y11518158D01*
X-2197872Y11541402D01*
X-2102148Y11560047D01*
X-2014200Y11574600D01*
X-1929032Y11585507D01*
X-1841649Y11593210D01*
X-1747053Y11598155D01*
X-1640250Y11600785D01*
X-1521571Y11601545D01*
X-1342186Y11598867D01*
X-1342186Y11598867D01*
G37*
X-1342186Y11598867D02*
X-1179559Y11590291D01*
X-1029027Y11575133D01*
X-885924Y11552709D01*
X-745586Y11522336D01*
X-603350Y11483330D01*
X-507335Y11452913D01*
X-291316Y11370611D01*
X-88437Y11271127D01*
X102760Y11153560D01*
X283732Y11017010D01*
X455938Y10860575D01*
X463258Y10853299D01*
X622349Y10679474D01*
X764758Y10491953D01*
X890632Y10290453D01*
X1000118Y10074689D01*
X1093362Y9844377D01*
X1170512Y9599233D01*
X1222288Y9384964D01*
X1251452Y9227072D01*
X1275762Y9055170D01*
X1294786Y8875112D01*
X1308091Y8692751D01*
X1315244Y8513941D01*
X1315813Y8344536D01*
X1309956Y8199067D01*
X1302838Y8091580D01*
X-2952066Y8091580D01*
X-2944183Y8001210D01*
X-2917254Y7807664D01*
X-2871103Y7617531D01*
X-2806877Y7434159D01*
X-2725724Y7260895D01*
X-2642549Y7121441D01*
X-2600635Y7064558D01*
X-2546628Y7000402D01*
X-2484863Y6933376D01*
X-2419678Y6867881D01*
X-2355408Y6808317D01*
X-2296390Y6759086D01*
X-2258873Y6732043D01*
X-2115330Y6648425D01*
X-1967462Y6583264D01*
X-1812625Y6535819D01*
X-1648177Y6505347D01*
X-1471472Y6491109D01*
X-1394792Y6489791D01*
X-1219563Y6496345D01*
X-1059791Y6516738D01*
X-913094Y6551853D01*
X-777086Y6602574D01*
X-649386Y6669783D01*
X-527610Y6754363D01*
X-413244Y6853504D01*
X-321982Y6945329D01*
X-230546Y7047641D01*
X-137093Y7162744D01*
X-39779Y7292943D01*
X63241Y7440543D01*
X99416Y7494383D01*
X132950Y7543824D01*
X162725Y7586039D01*
X186448Y7617906D01*
X201826Y7636306D01*
X206115Y7639584D01*
X216609Y7634360D01*
X244267Y7619454D01*
X287043Y7596009D01*
X342894Y7565169D01*
X409775Y7528079D01*
X485643Y7485884D01*
X568454Y7439728D01*
X656163Y7390755D01*
X746727Y7340111D01*
X838102Y7288939D01*
X928242Y7238384D01*
X1015106Y7189590D01*
X1096648Y7143702D01*
X1170824Y7101864D01*
X1235591Y7065222D01*
X1288904Y7034918D01*
X1328719Y7012098D01*
X1352993Y6997907D01*
X1359682Y6993688D01*
X1357100Y6982267D01*
X1343423Y6955417D01*
X1320324Y6915684D01*
X1289475Y6865614D01*
X1252548Y6807753D01*
X1211217Y6744648D01*
X1167153Y6678844D01*
X1122030Y6612889D01*
X1077520Y6549329D01*
X1035295Y6490709D01*
X997028Y6439576D01*
X988248Y6428226D01*
X816747Y6221937D01*
X640153Y6036789D01*
X457668Y5872295D01*
X268492Y5727968D01*
X71828Y5603323D01*
X-133124Y5497873D01*
X-347164Y5411131D01*
X-571090Y5342612D01*
X-805700Y5291829D01*
X-904617Y5276100D01*
X-1015317Y5262541D01*
X-1136641Y5251668D01*
X-1262888Y5243720D01*
X-1388362Y5238938D01*
X-1507363Y5237565D01*
X-1614193Y5239839D01*
X-1675911Y5243507D01*
X-1884828Y5264319D01*
X-2076454Y5292482D01*
X-2254592Y5328931D01*
X-2423045Y5374602D01*
X-2585616Y5430429D01*
X-2746110Y5497350D01*
X-2789366Y5517340D01*
X-2993461Y5625604D01*
X-3187599Y5752799D01*
X-3370647Y5897648D01*
X-3541470Y6058875D01*
X-3698931Y6235204D01*
X-3841896Y6425358D01*
X-3969231Y6628060D01*
X-4079799Y6842035D01*
X-4172466Y7066005D01*
X-4176573Y7077344D01*
X-4241047Y7273164D01*
X-4293048Y7469028D01*
X-4333289Y7669050D01*
X-4362484Y7877343D01*
X-4381349Y8098023D01*
X-4389991Y8306554D01*
X-4388651Y8606718D01*
X-4370181Y8893350D01*
X-4334475Y9166929D01*
X-4320009Y9238108D01*
X-2861444Y9238108D01*
X-106504Y9238108D01*
X-126804Y9307010D01*
X-183510Y9475451D01*
X-249495Y9625810D01*
X-326173Y9760604D01*
X-414957Y9882348D01*
X-506356Y9982815D01*
X-615157Y10080153D01*
X-729948Y10160400D01*
X-853762Y10225039D01*
X-989630Y10275553D01*
X-1140587Y10313426D01*
X-1207247Y10325596D01*
X-1284454Y10335056D01*
X-1374914Y10340865D01*
X-1471817Y10343017D01*
X-1568353Y10341507D01*
X-1657714Y10336332D01*
X-1733089Y10327485D01*
X-1742057Y10325967D01*
X-1911115Y10285176D01*
X-2070707Y10224767D01*
X-2219897Y10145452D01*
X-2357747Y10047947D01*
X-2483324Y9932963D01*
X-2595690Y9801215D01*
X-2693909Y9653416D01*
X-2742674Y9563325D01*
X-2765758Y9513307D01*
X-2790994Y9452344D01*
X-2815618Y9387754D01*
X-2836862Y9326857D01*
X-2851961Y9276970D01*
X-2854129Y9268425D01*
X-2861444Y9238108D01*
X-4320009Y9238108D01*
X-4281427Y9427937D01*
X-4210929Y9676855D01*
X-4122874Y9914163D01*
X-4017155Y10140343D01*
X-3958293Y10248266D01*
X-3825780Y10458949D01*
X-3679059Y10653190D01*
X-3518685Y10830579D01*
X-3345214Y10990709D01*
X-3159204Y11133170D01*
X-2961209Y11257554D01*
X-2751787Y11363452D01*
X-2531494Y11450457D01*
X-2300886Y11518158D01*
X-2197872Y11541402D01*
X-2102148Y11560047D01*
X-2014200Y11574600D01*
X-1929032Y11585507D01*
X-1841649Y11593210D01*
X-1747053Y11598155D01*
X-1640250Y11600785D01*
X-1521571Y11601545D01*
X-1342186Y11598867D01*
G36*
X4742509Y11266560D02*
G01*
X4987016Y11266501D01*
X5224797Y11266405D01*
X5454938Y11266274D01*
X5676524Y11266109D01*
X5888643Y11265911D01*
X6090380Y11265683D01*
X6280823Y11265427D01*
X6459057Y11265143D01*
X6624170Y11264834D01*
X6775247Y11264501D01*
X6911374Y11264146D01*
X7031639Y11263771D01*
X7135128Y11263377D01*
X7220927Y11262966D01*
X7288122Y11262540D01*
X7335800Y11262100D01*
X7363048Y11261648D01*
X7369531Y11261293D01*
X7362727Y11252125D01*
X7343023Y11227207D01*
X7311485Y11187854D01*
X7269177Y11135378D01*
X7217163Y11071094D01*
X7156509Y10996315D01*
X7088278Y10912354D01*
X7013535Y10820526D01*
X6933345Y10722143D01*
X6848773Y10618521D01*
X6831259Y10597078D01*
X6767646Y10519199D01*
X6691147Y10425532D01*
X6602816Y10317369D01*
X6503710Y10196002D01*
X6394884Y10062726D01*
X6277393Y9918832D01*
X6152293Y9765612D01*
X6020639Y9604361D01*
X5883487Y9436370D01*
X5741892Y9262933D01*
X5596909Y9085341D01*
X5449594Y8904888D01*
X5301002Y8722866D01*
X5152189Y8540568D01*
X5004210Y8359287D01*
X4911671Y8245920D01*
X3530354Y6553689D01*
X5295603Y6550900D01*
X7060851Y6548110D01*
X7060851Y5236285D01*
X3928239Y5236285D01*
X3616900Y5236289D01*
X3326861Y5236306D01*
X3057375Y5236338D01*
X2807695Y5236392D01*
X2577073Y5236471D01*
X2364760Y5236581D01*
X2170010Y5236726D01*
X1992074Y5236910D01*
X1830205Y5237139D01*
X1683655Y5237416D01*
X1551676Y5237747D01*
X1433521Y5238136D01*
X1328442Y5238588D01*
X1235690Y5239107D01*
X1154519Y5239699D01*
X1084181Y5240366D01*
X1023928Y5241116D01*
X973011Y5241951D01*
X930685Y5242876D01*
X896199Y5243897D01*
X868808Y5245018D01*
X847763Y5246242D01*
X832317Y5247576D01*
X821721Y5249024D01*
X815228Y5250590D01*
X812091Y5252279D01*
X811561Y5254096D01*
X812454Y5255577D01*
X820769Y5265662D01*
X842446Y5292138D01*
X876914Y5334307D01*
X923604Y5391469D01*
X981946Y5462928D01*
X1051371Y5547983D01*
X1131307Y5645938D01*
X1221187Y5756092D01*
X1320439Y5877748D01*
X1428494Y6010207D01*
X1544782Y6152771D01*
X1668734Y6304741D01*
X1799778Y6465418D01*
X1937347Y6634105D01*
X2080870Y6810102D01*
X2229776Y6992710D01*
X2383497Y7181233D01*
X2541462Y7374970D01*
X2703102Y7573224D01*
X2739228Y7617535D01*
X4649176Y9960200D01*
X1614844Y9965790D01*
X1614844Y11266580D01*
X4492188Y11266580D01*
X4742509Y11266560D01*
X4742509Y11266560D01*
G37*
X4742509Y11266560D02*
X4987016Y11266501D01*
X5224797Y11266405D01*
X5454938Y11266274D01*
X5676524Y11266109D01*
X5888643Y11265911D01*
X6090380Y11265683D01*
X6280823Y11265427D01*
X6459057Y11265143D01*
X6624170Y11264834D01*
X6775247Y11264501D01*
X6911374Y11264146D01*
X7031639Y11263771D01*
X7135128Y11263377D01*
X7220927Y11262966D01*
X7288122Y11262540D01*
X7335800Y11262100D01*
X7363048Y11261648D01*
X7369531Y11261293D01*
X7362727Y11252125D01*
X7343023Y11227207D01*
X7311485Y11187854D01*
X7269177Y11135378D01*
X7217163Y11071094D01*
X7156509Y10996315D01*
X7088278Y10912354D01*
X7013535Y10820526D01*
X6933345Y10722143D01*
X6848773Y10618521D01*
X6831259Y10597078D01*
X6767646Y10519199D01*
X6691147Y10425532D01*
X6602816Y10317369D01*
X6503710Y10196002D01*
X6394884Y10062726D01*
X6277393Y9918832D01*
X6152293Y9765612D01*
X6020639Y9604361D01*
X5883487Y9436370D01*
X5741892Y9262933D01*
X5596909Y9085341D01*
X5449594Y8904888D01*
X5301002Y8722866D01*
X5152189Y8540568D01*
X5004210Y8359287D01*
X4911671Y8245920D01*
X3530354Y6553689D01*
X5295603Y6550900D01*
X7060851Y6548110D01*
X7060851Y5236285D01*
X3928239Y5236285D01*
X3616900Y5236289D01*
X3326861Y5236306D01*
X3057375Y5236338D01*
X2807695Y5236392D01*
X2577073Y5236471D01*
X2364760Y5236581D01*
X2170010Y5236726D01*
X1992074Y5236910D01*
X1830205Y5237139D01*
X1683655Y5237416D01*
X1551676Y5237747D01*
X1433521Y5238136D01*
X1328442Y5238588D01*
X1235690Y5239107D01*
X1154519Y5239699D01*
X1084181Y5240366D01*
X1023928Y5241116D01*
X973011Y5241951D01*
X930685Y5242876D01*
X896199Y5243897D01*
X868808Y5245018D01*
X847763Y5246242D01*
X832317Y5247576D01*
X821721Y5249024D01*
X815228Y5250590D01*
X812091Y5252279D01*
X811561Y5254096D01*
X812454Y5255577D01*
X820769Y5265662D01*
X842446Y5292138D01*
X876914Y5334307D01*
X923604Y5391469D01*
X981946Y5462928D01*
X1051371Y5547983D01*
X1131307Y5645938D01*
X1221187Y5756092D01*
X1320439Y5877748D01*
X1428494Y6010207D01*
X1544782Y6152771D01*
X1668734Y6304741D01*
X1799778Y6465418D01*
X1937347Y6634105D01*
X2080870Y6810102D01*
X2229776Y6992710D01*
X2383497Y7181233D01*
X2541462Y7374970D01*
X2703102Y7573224D01*
X2739228Y7617535D01*
X4649176Y9960200D01*
X1614844Y9965790D01*
X1614844Y11266580D01*
X4492188Y11266580D01*
X4742509Y11266560D01*
G36*
X9155469Y5236285D02*
G01*
X7777431Y5236285D01*
X7777431Y15687327D01*
X9155469Y15687327D01*
X9155469Y5236285D01*
X9155469Y5236285D01*
G37*
X9155469Y5236285D02*
X7777431Y5236285D01*
X7777431Y15687327D01*
X9155469Y15687327D01*
X9155469Y5236285D01*
G36*
X11139844Y5236285D02*
G01*
X9761806Y5236285D01*
X9761806Y11266580D01*
X11139844Y11266580D01*
X11139844Y5236285D01*
X11139844Y5236285D01*
G37*
X11139844Y5236285D02*
X9761806Y5236285D01*
X9761806Y11266580D01*
X11139844Y11266580D01*
X11139844Y5236285D01*
G36*
X6678205Y8584034D02*
G01*
X6781973Y8566381D01*
X6882638Y8530297D01*
X6900998Y8521704D01*
X7006018Y8459410D01*
X7098844Y8381170D01*
X7177225Y8289676D01*
X7238910Y8187616D01*
X7281648Y8077682D01*
X7286080Y8061474D01*
X7296718Y8001186D01*
X7302234Y7927731D01*
X7302631Y7849384D01*
X7297914Y7774419D01*
X7288089Y7711114D01*
X7285882Y7701997D01*
X7245269Y7587047D01*
X7187087Y7483566D01*
X7113343Y7392886D01*
X7026045Y7316335D01*
X6927204Y7255246D01*
X6818827Y7210947D01*
X6702924Y7184769D01*
X6581502Y7178043D01*
X6504123Y7184253D01*
X6398413Y7208718D01*
X6294825Y7252397D01*
X6197927Y7312589D01*
X6112292Y7386596D01*
X6060807Y7446081D01*
X5994744Y7550446D01*
X5948716Y7660809D01*
X5922325Y7774885D01*
X5915171Y7890389D01*
X5926858Y8005036D01*
X5956986Y8116542D01*
X6005156Y8222621D01*
X6070971Y8320988D01*
X6154031Y8409359D01*
X6240540Y8476685D01*
X6335103Y8529731D01*
X6434624Y8564480D01*
X6544493Y8582717D01*
X6565420Y8584360D01*
X6678205Y8584034D01*
X6678205Y8584034D01*
G37*
X6678205Y8584034D02*
X6781973Y8566381D01*
X6882638Y8530297D01*
X6900998Y8521704D01*
X7006018Y8459410D01*
X7098844Y8381170D01*
X7177225Y8289676D01*
X7238910Y8187616D01*
X7281648Y8077682D01*
X7286080Y8061474D01*
X7296718Y8001186D01*
X7302234Y7927731D01*
X7302631Y7849384D01*
X7297914Y7774419D01*
X7288089Y7711114D01*
X7285882Y7701997D01*
X7245269Y7587047D01*
X7187087Y7483566D01*
X7113343Y7392886D01*
X7026045Y7316335D01*
X6927204Y7255246D01*
X6818827Y7210947D01*
X6702924Y7184769D01*
X6581502Y7178043D01*
X6504123Y7184253D01*
X6398413Y7208718D01*
X6294825Y7252397D01*
X6197927Y7312589D01*
X6112292Y7386596D01*
X6060807Y7446081D01*
X5994744Y7550446D01*
X5948716Y7660809D01*
X5922325Y7774885D01*
X5915171Y7890389D01*
X5926858Y8005036D01*
X5956986Y8116542D01*
X6005156Y8222621D01*
X6070971Y8320988D01*
X6154031Y8409359D01*
X6240540Y8476685D01*
X6335103Y8529731D01*
X6434624Y8564480D01*
X6544493Y8582717D01*
X6565420Y8584360D01*
X6678205Y8584034D01*
G36*
X10514664Y13214243D02*
G01*
X10618431Y13196590D01*
X10719096Y13160505D01*
X10737457Y13151912D01*
X10842477Y13089618D01*
X10935302Y13011379D01*
X11013683Y12919884D01*
X11075369Y12817825D01*
X11118107Y12707890D01*
X11122539Y12691682D01*
X11133177Y12631395D01*
X11138692Y12557940D01*
X11139089Y12479592D01*
X11134373Y12404628D01*
X11124547Y12341323D01*
X11122340Y12332205D01*
X11081728Y12217255D01*
X11023545Y12113774D01*
X10949801Y12023094D01*
X10862504Y11946544D01*
X10763662Y11885454D01*
X10655286Y11841155D01*
X10539382Y11814978D01*
X10417960Y11808252D01*
X10340582Y11814461D01*
X10234872Y11838927D01*
X10131283Y11882605D01*
X10034386Y11942797D01*
X9948750Y12016804D01*
X9897265Y12076289D01*
X9831202Y12180654D01*
X9785174Y12291017D01*
X9758783Y12405093D01*
X9751630Y12520597D01*
X9763316Y12635244D01*
X9793444Y12746750D01*
X9841615Y12852829D01*
X9907429Y12951196D01*
X9990490Y13039567D01*
X10076999Y13106893D01*
X10171561Y13159939D01*
X10271083Y13194688D01*
X10380952Y13212926D01*
X10401878Y13214568D01*
X10514664Y13214243D01*
X10514664Y13214243D01*
G37*
X10514664Y13214243D02*
X10618431Y13196590D01*
X10719096Y13160505D01*
X10737457Y13151912D01*
X10842477Y13089618D01*
X10935302Y13011379D01*
X11013683Y12919884D01*
X11075369Y12817825D01*
X11118107Y12707890D01*
X11122539Y12691682D01*
X11133177Y12631395D01*
X11138692Y12557940D01*
X11139089Y12479592D01*
X11134373Y12404628D01*
X11124547Y12341323D01*
X11122340Y12332205D01*
X11081728Y12217255D01*
X11023545Y12113774D01*
X10949801Y12023094D01*
X10862504Y11946544D01*
X10763662Y11885454D01*
X10655286Y11841155D01*
X10539382Y11814978D01*
X10417960Y11808252D01*
X10340582Y11814461D01*
X10234872Y11838927D01*
X10131283Y11882605D01*
X10034386Y11942797D01*
X9948750Y12016804D01*
X9897265Y12076289D01*
X9831202Y12180654D01*
X9785174Y12291017D01*
X9758783Y12405093D01*
X9751630Y12520597D01*
X9763316Y12635244D01*
X9793444Y12746750D01*
X9841615Y12852829D01*
X9907429Y12951196D01*
X9990490Y13039567D01*
X10076999Y13106893D01*
X10171561Y13159939D01*
X10271083Y13194688D01*
X10380952Y13212926D01*
X10401878Y13214568D01*
X10514664Y13214243D01*
D11*
X-19675000Y70550000D03*
X20325000Y70550000D03*
X20325000Y30550000D03*
X-19675000Y30550000D03*
X90325000Y20550000D03*
X-89675000Y20550000D03*
X-109675000Y85550000D03*
X110325000Y85550000D03*
D12*
X84523266Y74704606D03*
X89687267Y73048376D03*
D13*
X112605576Y40370072D03*
D14*
G36*
X111878345Y39503392D02*
G01*
X111738896Y41097303D01*
X113332807Y41236752D01*
X113472256Y39642841D01*
X111878345Y39503392D01*
X111878345Y39503392D01*
G37*
D13*
X104835258Y39690258D03*
X111180601Y57333293D03*
D14*
G36*
X110453370Y56466613D02*
G01*
X110313921Y58060524D01*
X111907832Y58199973D01*
X112047281Y56606062D01*
X110453370Y56466613D01*
X110453370Y56466613D01*
G37*
D13*
X103410283Y56653479D03*
X109670588Y74251683D03*
D14*
G36*
X108943357Y73385003D02*
G01*
X108803908Y74978914D01*
X110397819Y75118363D01*
X110537268Y73524452D01*
X108943357Y73385003D01*
X108943357Y73385003D01*
G37*
D13*
X101900270Y73571869D03*
D12*
X106484416Y30214351D03*
X111648417Y28558121D03*
X105002334Y47154640D03*
X110166335Y45498410D03*
X32409113Y50791563D03*
X37573114Y49135333D03*
X-59496809Y55118746D03*
X-54698863Y52590958D03*
X-77003865Y61539017D03*
X-72205919Y59011229D03*
X-95324955Y58654830D03*
X-90527009Y56127042D03*
X-114322374Y48040172D03*
X-109524428Y45512384D03*
X103520685Y64089953D03*
X108684686Y62433723D03*
X66203050Y77578832D03*
X71367051Y75922602D03*
X48695119Y71168522D03*
X53859120Y69512292D03*
X-40247509Y68612406D03*
X-35449563Y66084618D03*
X-58015161Y72054055D03*
X-53217215Y69526267D03*
X-75443089Y78344365D03*
X-70645143Y75816577D03*
X-93843307Y75590140D03*
X-89045361Y73062352D03*
X-112840727Y64975483D03*
X-108042781Y62447695D03*
D13*
X69762659Y31673384D03*
D14*
G36*
X69113731Y30746619D02*
G01*
X68835894Y32322312D01*
X70411587Y32600149D01*
X70689424Y31024456D01*
X69113731Y30746619D01*
X69113731Y30746619D01*
G37*
D13*
X62081159Y30318928D03*
X49754336Y27595015D03*
D14*
G36*
X49188651Y26615219D02*
G01*
X48774540Y28160700D01*
X50320021Y28574811D01*
X50734132Y27029330D01*
X49188651Y26615219D01*
X49188651Y26615219D01*
G37*
D13*
X42220114Y25576227D03*
X30136698Y20993322D03*
D14*
G36*
X29749746Y19930181D02*
G01*
X29073557Y21380274D01*
X30523650Y22056463D01*
X31199839Y20606370D01*
X29749746Y19930181D01*
X29749746Y19930181D01*
G37*
D13*
X23067498Y17696900D03*
X-25862333Y19324532D03*
D14*
G36*
X-26925474Y18937580D02*
G01*
X-26249285Y20387673D01*
X-24799192Y19711484D01*
X-25475381Y18261391D01*
X-26925474Y18937580D01*
X-26925474Y18937580D01*
G37*
D13*
X-32931533Y22620954D03*
X-45206618Y26548695D03*
D14*
G36*
X-46186414Y25983010D02*
G01*
X-45772303Y27528491D01*
X-44226822Y27114380D01*
X-44640933Y25568899D01*
X-46186414Y25983010D01*
X-46186414Y25983010D01*
G37*
D13*
X-52740840Y28567483D03*
X-65116683Y30900016D03*
D14*
G36*
X-66043448Y30251088D02*
G01*
X-65765611Y31826781D01*
X-64189918Y31548944D01*
X-64467755Y29973251D01*
X-66043448Y30251088D01*
X-66043448Y30251088D01*
G37*
D13*
X-72798183Y32254472D03*
X93605089Y51010684D03*
D14*
G36*
X92877858Y50144004D02*
G01*
X92738409Y51737915D01*
X94332320Y51877364D01*
X94471769Y50283453D01*
X92877858Y50144004D01*
X92877858Y50144004D01*
G37*
D13*
X85834771Y50330870D03*
X75319416Y53873165D03*
D14*
G36*
X74592185Y53006485D02*
G01*
X74452736Y54600396D01*
X76046647Y54739845D01*
X76186096Y53145934D01*
X74592185Y53006485D01*
X74592185Y53006485D01*
G37*
D13*
X67549098Y53193351D03*
X57788761Y47576701D03*
D14*
G36*
X57061530Y46710021D02*
G01*
X56922081Y48303932D01*
X58515992Y48443381D01*
X58655441Y46849470D01*
X57061530Y46710021D01*
X57061530Y46710021D01*
G37*
D13*
X50018443Y46896887D03*
X40011089Y44048089D03*
D14*
G36*
X39283858Y43181409D02*
G01*
X39144409Y44775320D01*
X40738320Y44914769D01*
X40877769Y43320858D01*
X39283858Y43181409D01*
X39283858Y43181409D01*
G37*
D13*
X32240771Y43368275D03*
X-35415446Y43741854D03*
D14*
G36*
X-36282126Y43014623D02*
G01*
X-36142677Y44608534D01*
X-34548766Y44469085D01*
X-34688215Y42875174D01*
X-36282126Y43014623D01*
X-36282126Y43014623D01*
G37*
D13*
X-43185764Y44421668D03*
X-53197774Y47175835D03*
D14*
G36*
X-54064454Y46448604D02*
G01*
X-53925005Y48042515D01*
X-52331094Y47903066D01*
X-52470543Y46309155D01*
X-54064454Y46448604D01*
X-54064454Y46448604D01*
G37*
D13*
X-60968092Y47855649D03*
X-70657946Y53584354D03*
D14*
G36*
X-71524626Y52857123D02*
G01*
X-71385177Y54451034D01*
X-69791266Y54311585D01*
X-69930715Y52717674D01*
X-71524626Y52857123D01*
X-71524626Y52857123D01*
G37*
D13*
X-78428264Y54264168D03*
X-89011773Y50731836D03*
D14*
G36*
X-89878453Y50004605D02*
G01*
X-89739004Y51598516D01*
X-88145093Y51459067D01*
X-88284542Y49865156D01*
X-89878453Y50004605D01*
X-89878453Y50004605D01*
G37*
D13*
X-96782091Y51411650D03*
X-107998273Y40063836D03*
D14*
G36*
X-108864953Y39336605D02*
G01*
X-108725504Y40930516D01*
X-107131593Y40791067D01*
X-107271042Y39197156D01*
X-108864953Y39336605D01*
X-108864953Y39336605D01*
G37*
D13*
X-115768591Y40743650D03*
X92194102Y67937794D03*
D14*
G36*
X91466871Y67071114D02*
G01*
X91327422Y68665025D01*
X92921333Y68804474D01*
X93060782Y67210563D01*
X91466871Y67071114D01*
X91466871Y67071114D01*
G37*
D13*
X84423784Y67257980D03*
X73793089Y70822683D03*
D14*
G36*
X73065858Y69956003D02*
G01*
X72926409Y71549914D01*
X74520320Y71689363D01*
X74659769Y70095452D01*
X73065858Y69956003D01*
X73065858Y69956003D01*
G37*
D13*
X66022771Y70142869D03*
X56253102Y64445294D03*
D14*
G36*
X55525871Y63578614D02*
G01*
X55386422Y65172525D01*
X56980333Y65311974D01*
X57119782Y63718063D01*
X55525871Y63578614D01*
X55525871Y63578614D01*
G37*
D13*
X48482784Y63765480D03*
X38536602Y60952794D03*
D14*
G36*
X37809371Y60086114D02*
G01*
X37669922Y61680025D01*
X39263833Y61819474D01*
X39403282Y60225563D01*
X37809371Y60086114D01*
X37809371Y60086114D01*
G37*
D13*
X30766284Y60272980D03*
X-33896101Y60642818D03*
D14*
G36*
X-34762781Y59915587D02*
G01*
X-34623332Y61509498D01*
X-33029421Y61370049D01*
X-33168870Y59776138D01*
X-34762781Y59915587D01*
X-34762781Y59915587D01*
G37*
D13*
X-41666419Y61322632D03*
X-51723287Y64102947D03*
D14*
G36*
X-52589967Y63375716D02*
G01*
X-52450518Y64969627D01*
X-50856607Y64830178D01*
X-50996056Y63236267D01*
X-52589967Y63375716D01*
X-52589967Y63375716D01*
G37*
D13*
X-59493605Y64782761D03*
X-69188115Y70521430D03*
D14*
G36*
X-70054795Y69794199D02*
G01*
X-69915346Y71388110D01*
X-68321435Y71248661D01*
X-68460884Y69654750D01*
X-70054795Y69794199D01*
X-70054795Y69794199D01*
G37*
D13*
X-76958433Y71201244D03*
X-87565260Y67650226D03*
D14*
G36*
X-88431940Y66922995D02*
G01*
X-88292491Y68516906D01*
X-86698580Y68377457D01*
X-86838029Y66783546D01*
X-88431940Y66922995D01*
X-88431940Y66922995D01*
G37*
D13*
X-95335578Y68330040D03*
X-106526115Y56995929D03*
D14*
G36*
X-107392795Y56268698D02*
G01*
X-107253346Y57862609D01*
X-105659435Y57723160D01*
X-105798884Y56129249D01*
X-107392795Y56268698D01*
X-107392795Y56268698D01*
G37*
D13*
X-114296433Y57675743D03*
X90620589Y85739683D03*
D14*
G36*
X89893358Y84873003D02*
G01*
X89753909Y86466914D01*
X91347820Y86606363D01*
X91487269Y85012452D01*
X89893358Y84873003D01*
X89893358Y84873003D01*
G37*
D13*
X82850271Y85059869D03*
X71080261Y86492200D03*
D14*
G36*
X70353030Y85625520D02*
G01*
X70213581Y87219431D01*
X71807492Y87358880D01*
X71946941Y85764969D01*
X70353030Y85625520D01*
X70353030Y85625520D01*
G37*
D13*
X63309943Y85812386D03*
X55194808Y81093012D03*
D14*
G36*
X54467577Y80226332D02*
G01*
X54328128Y81820243D01*
X55922039Y81959692D01*
X56061488Y80365781D01*
X54467577Y80226332D01*
X54467577Y80226332D01*
G37*
D13*
X47424490Y80413198D03*
X37092416Y77939665D03*
D14*
G36*
X36365185Y77072985D02*
G01*
X36225736Y78666896D01*
X37819647Y78806345D01*
X37959096Y77212434D01*
X36365185Y77072985D01*
X36365185Y77072985D01*
G37*
D13*
X29322098Y77259851D03*
X-32435601Y77597318D03*
D14*
G36*
X-33302281Y76870087D02*
G01*
X-33162832Y78463998D01*
X-31568921Y78324549D01*
X-31708370Y76730638D01*
X-33302281Y76870087D01*
X-33302281Y76870087D01*
G37*
D13*
X-40205919Y78277132D03*
X-50210947Y81016354D03*
D14*
G36*
X-51077627Y80289123D02*
G01*
X-50938178Y81883034D01*
X-49344267Y81743585D01*
X-49483716Y80149674D01*
X-51077627Y80289123D01*
X-51077627Y80289123D01*
G37*
D13*
X-57981265Y81696168D03*
X-67943615Y86669429D03*
D14*
G36*
X-68810295Y85942198D02*
G01*
X-68670846Y87536109D01*
X-67076935Y87396660D01*
X-67216384Y85802749D01*
X-68810295Y85942198D01*
X-68810295Y85942198D01*
G37*
D13*
X-75713933Y87349243D03*
X-86231615Y83811929D03*
D14*
G36*
X-87098295Y83084698D02*
G01*
X-86958846Y84678609D01*
X-85364935Y84539160D01*
X-85504384Y82945249D01*
X-87098295Y83084698D01*
X-87098295Y83084698D01*
G37*
D13*
X-94001933Y84491743D03*
X-105016100Y73914318D03*
D14*
G36*
X-105882780Y73187087D02*
G01*
X-105743331Y74780998D01*
X-104149420Y74641549D01*
X-104288869Y73047638D01*
X-105882780Y73187087D01*
X-105882780Y73187087D01*
G37*
D13*
X-112786418Y74594132D03*
D15*
X7945000Y89520000D03*
X-7295000Y61580000D03*
X7945000Y86980000D03*
X7945000Y84440000D03*
X7945000Y81900000D03*
X7945000Y79360000D03*
X7945000Y76820000D03*
X7945000Y74280000D03*
X7945000Y71740000D03*
X7945000Y69200000D03*
X7945000Y66660000D03*
X7945000Y64120000D03*
X7945000Y61580000D03*
X-7295000Y64120000D03*
X-7295000Y66660000D03*
X-7295000Y69200000D03*
X-7295000Y71740000D03*
X-7295000Y74280000D03*
X-7295000Y76820000D03*
X-7295000Y79360000D03*
X-7295000Y81900000D03*
X-7295000Y84440000D03*
X-7295000Y86980000D03*
D16*
X-7295000Y89520000D03*
D12*
X-19977393Y85040403D03*
X-19977393Y89540403D03*
X-13477393Y85040403D03*
X-13477393Y89540403D03*
D17*
X21775000Y92525000D03*
D18*
X19675000Y92525000D03*
X17675000Y92525000D03*
X15675000Y92525000D03*
D17*
X13575000Y92525000D03*
D12*
X-60978892Y38178456D03*
X-56180946Y35650668D03*
X-43210804Y34741786D03*
X-38412858Y32213998D03*
X45455608Y16516453D03*
X50828757Y15782104D03*
X51657048Y37376580D03*
X56821049Y35720350D03*
X-36177849Y13405581D03*
X-32533809Y9389243D03*
X67683825Y60653486D03*
X72847826Y58997256D03*
X30927466Y67726869D03*
X36091467Y66070639D03*
X64512311Y20993582D03*
X69801011Y19793726D03*
X27859061Y9345101D03*
X33278099Y9554946D03*
X-54460540Y19059812D03*
X-50174430Y15737273D03*
X-73696099Y22684361D03*
X-69136721Y19748024D03*
X87486998Y40829003D03*
X92650999Y39172773D03*
X69165471Y43718173D03*
X74329472Y42061943D03*
X33890766Y33856253D03*
X39054767Y32200023D03*
X-78485512Y44603707D03*
X-73687566Y42075919D03*
X-96807038Y41714539D03*
X-92009092Y39186751D03*
X-115804458Y31099881D03*
X-111006512Y28572093D03*
X86004914Y57769293D03*
X91168915Y56113063D03*
X50176768Y54233214D03*
X55340769Y52576984D03*
X-41729156Y51677096D03*
X-36931210Y49149308D03*
D19*
X2825000Y53050000D03*
D14*
G36*
X-1050496Y54198796D02*
G01*
X-1026227Y54195196D01*
X-1002429Y54189235D01*
X-979329Y54180970D01*
X-957151Y54170480D01*
X-936107Y54157867D01*
X-916402Y54143253D01*
X-898223Y54126777D01*
X-881747Y54108598D01*
X-867133Y54088893D01*
X-854520Y54067849D01*
X-844030Y54045671D01*
X-835765Y54022571D01*
X-829804Y53998773D01*
X-826204Y53974504D01*
X-825000Y53950000D01*
X-825000Y52150000D01*
X-826204Y52125496D01*
X-829804Y52101227D01*
X-835765Y52077429D01*
X-844030Y52054329D01*
X-854520Y52032151D01*
X-867133Y52011107D01*
X-881747Y51991402D01*
X-898223Y51973223D01*
X-916402Y51956747D01*
X-936107Y51942133D01*
X-957151Y51929520D01*
X-979329Y51919030D01*
X-1002429Y51910765D01*
X-1026227Y51904804D01*
X-1050496Y51901204D01*
X-1075000Y51900000D01*
X-2875000Y51900000D01*
X-2899504Y51901204D01*
X-2923773Y51904804D01*
X-2947571Y51910765D01*
X-2970671Y51919030D01*
X-2992849Y51929520D01*
X-3013893Y51942133D01*
X-3033598Y51956747D01*
X-3051777Y51973223D01*
X-3068253Y51991402D01*
X-3082867Y52011107D01*
X-3095480Y52032151D01*
X-3105970Y52054329D01*
X-3114235Y52077429D01*
X-3120196Y52101227D01*
X-3123796Y52125496D01*
X-3125000Y52150000D01*
X-3125000Y53950000D01*
X-3123796Y53974504D01*
X-3120196Y53998773D01*
X-3114235Y54022571D01*
X-3105970Y54045671D01*
X-3095480Y54067849D01*
X-3082867Y54088893D01*
X-3068253Y54108598D01*
X-3051777Y54126777D01*
X-3033598Y54143253D01*
X-3013893Y54157867D01*
X-2992849Y54170480D01*
X-2970671Y54180970D01*
X-2947571Y54189235D01*
X-2923773Y54195196D01*
X-2899504Y54198796D01*
X-2875000Y54200000D01*
X-1075000Y54200000D01*
X-1050496Y54198796D01*
X-1050496Y54198796D01*
G37*
D19*
X-1975000Y53050000D03*
D20*
X-32596472Y26209642D03*
D21*
X2838000Y56926326D02*
X-5337Y59769663D01*
X-475010Y75935664D02*
X-35664Y76375010D01*
X-475010Y60239336D02*
X-475010Y75935664D01*
X-5337Y59769663D02*
X-475010Y60239336D01*
X-35664Y76375010D02*
X4014336Y76375010D01*
X4014336Y84808660D02*
X6205676Y87000000D01*
X4014336Y76375010D02*
X4014336Y84808660D01*
X6205676Y87000000D02*
X7650000Y87000000D01*
X-19977393Y89540403D02*
X-13609597Y89540403D01*
X2838000Y56926326D02*
X2825000Y56913326D01*
X2825000Y56913326D02*
X2825000Y53050000D01*
X-1225019Y76246329D02*
X-346328Y77125020D01*
X-1225020Y59928672D02*
X-1225019Y76246329D01*
X11824999Y91684999D02*
X12734999Y90774999D01*
X12734999Y90774999D02*
X14415001Y90774999D01*
X3264326Y77164326D02*
X3264326Y87061252D01*
X7888073Y91684999D02*
X11824999Y91684999D01*
X3264326Y87061252D02*
X7888073Y91684999D01*
X3225020Y77125020D02*
X3264326Y77164326D01*
X14415001Y90774999D02*
X15525000Y91884998D01*
X-346328Y77125020D02*
X3225020Y77125020D01*
X15525000Y91884998D02*
X15525000Y92450000D01*
X-1225020Y59928672D02*
X-1225020Y53999980D01*
X-32404411Y76663073D02*
X-32404411Y61628938D01*
X-32435601Y76694263D02*
X-32404411Y76663073D01*
X-32435601Y77597318D02*
X-32435601Y76694263D01*
X-11321062Y61628938D02*
X-11300030Y61649970D01*
X-11300030Y61649970D02*
X-11300030Y67949970D01*
X-32404411Y61628938D02*
X-11321062Y61628938D01*
X-11300030Y67949970D02*
X-7675000Y71575000D01*
X-7675000Y71575000D02*
X-7325000Y71575000D01*
X-33896101Y60642818D02*
X-10557202Y60642818D01*
X-10550020Y60650000D02*
X-10550020Y65949980D01*
X-10557202Y60642818D02*
X-10550020Y60650000D01*
X-10550020Y65949980D02*
X-7500000Y69000000D01*
X-35415446Y43741854D02*
X-16124934Y43741854D01*
X-9800010Y50066778D02*
X-9800010Y64124990D01*
X-16124934Y43741854D02*
X-9800010Y50066778D01*
X-9800010Y64124990D02*
X-7275000Y66650000D01*
X-24879631Y19324532D02*
X-23204163Y21000000D01*
X-25862333Y19324532D02*
X-24879631Y19324532D01*
X-23204163Y21000000D02*
X30150000Y21000000D01*
X-9050000Y49756114D02*
X-9050000Y62375000D01*
X-32596472Y26209642D02*
X-9050000Y49756114D01*
X-9050000Y62375000D02*
X-7350000Y64075000D01*
X-19977393Y85040403D02*
X-13340403Y85040403D01*
X-115266299Y62940187D02*
X-116381348Y50195119D01*
X-112840727Y64975483D02*
X-115266299Y62940187D01*
X-116381348Y50195119D02*
X-114720627Y48215949D01*
X-117212333Y46125159D02*
X-118290886Y33797250D01*
X-114720627Y48215949D02*
X-117212333Y46125159D01*
X-118290886Y33797250D02*
X-116200096Y31305544D01*
X-114482634Y66617390D02*
X-114482634Y69512602D01*
X-92720217Y91275019D02*
X-9200019Y91275019D01*
X-114482634Y69512602D02*
X-92720217Y91275019D01*
X-112840727Y64975483D02*
X-114482634Y66617390D01*
X-9200019Y91275019D02*
X-7700000Y89775000D01*
X-96312084Y73518591D02*
X-97418438Y60872904D01*
X-93843308Y75590140D02*
X-96312084Y73518591D01*
X-97418438Y60872904D02*
X-95539657Y58633861D01*
X-97742380Y56785556D02*
X-98839104Y44249942D01*
X-95539657Y58633861D02*
X-97742380Y56785556D01*
X-98839104Y44249942D02*
X-96899896Y41938884D01*
X-96100000Y84502678D02*
X-93827678Y86775000D01*
X-96100000Y77846833D02*
X-96100000Y84502678D01*
X-93843307Y75590140D02*
X-96100000Y77846833D01*
X-26806327Y90525009D02*
X-23156318Y86875000D01*
X-90077669Y90525009D02*
X-26806327Y90525009D01*
X-93827678Y86775000D02*
X-90077669Y90525009D01*
X-23156318Y86875000D02*
X-7325000Y86875000D01*
X-78412696Y61662274D02*
X-79274743Y60938931D01*
X-79274743Y60938931D02*
X-80531180Y46577788D01*
X-77003866Y61539017D02*
X-78412696Y61662274D01*
X-80531180Y46577788D02*
X-78874112Y44602971D01*
X-78874112Y44602971D02*
X-80166196Y29834384D01*
X-80166196Y29834384D02*
X-74143813Y22657188D01*
X-77947811Y76242653D02*
X-79038584Y63775065D01*
X-75443089Y78344365D02*
X-77947811Y76242653D01*
X-79038584Y63775065D02*
X-77257045Y61651911D01*
X-77138934Y88033244D02*
X-75397178Y89775000D01*
X-77138934Y78625997D02*
X-77138934Y88033244D01*
X-76857302Y78344365D02*
X-77138934Y78625997D01*
X-75443089Y78344365D02*
X-76857302Y78344365D01*
X-20600046Y83258054D02*
X-16986705Y83258053D01*
X-27116992Y89775000D02*
X-20600046Y83258054D01*
X-75397178Y89775000D02*
X-27116992Y89775000D01*
X-16986705Y83258053D02*
X-13053652Y79325000D01*
X-13053652Y79325000D02*
X-7400000Y79325000D01*
X-62659546Y68156953D02*
X-63398413Y59711668D01*
X-58015161Y72054055D02*
X-62659546Y68156953D01*
X-63398413Y59711668D02*
X-59989517Y55649104D01*
X-61853539Y54085003D02*
X-63107168Y39755956D01*
X-59989517Y55649104D02*
X-61853539Y54085003D01*
X-63107168Y39755956D02*
X-61770328Y38162771D01*
X-60341320Y36459746D02*
X-61151869Y27195136D01*
X-61770328Y38162771D02*
X-60341320Y36459746D01*
X-61151869Y27195136D02*
X-54922223Y19770933D01*
X-59657068Y75110175D02*
X-59657068Y76591174D01*
X-59657068Y76591174D02*
X-53740198Y82508044D01*
X-58015161Y73468268D02*
X-59657068Y75110175D01*
X-53740198Y82508044D02*
X-17297370Y82508044D01*
X-58015161Y72054055D02*
X-58015161Y73468268D01*
X-17297370Y82508044D02*
X-11489326Y76700000D01*
X-11489326Y76700000D02*
X-7325000Y76700000D01*
X-43104366Y66215218D02*
X-44145663Y54313137D01*
X-40247509Y68612406D02*
X-43104366Y66215218D01*
X-44145663Y54313137D02*
X-41963971Y51713096D01*
X-44137882Y49888967D02*
X-45267568Y36976604D01*
X-41963971Y51713096D02*
X-44137882Y49888967D01*
X-45267568Y36976604D02*
X-43216179Y34531854D01*
X-36175626Y20833498D02*
X-36750858Y14258566D01*
X-43648467Y29739283D02*
X-36175626Y20833498D01*
X-43210804Y34741786D02*
X-43648467Y29739283D01*
X-36750858Y14258566D02*
X-35916953Y13264756D01*
X-40889920Y79702133D02*
X-33627133Y79702133D01*
X-44200000Y76392053D02*
X-40889920Y79702133D01*
X-44200000Y72564897D02*
X-44200000Y76392053D01*
X-40247509Y68612406D02*
X-44200000Y72564897D01*
X-15552133Y79702133D02*
X-10050000Y74200000D01*
X-33627133Y79702133D02*
X-15552133Y79702133D01*
X-10050000Y74200000D02*
X-7550000Y74200000D01*
X33890766Y33856253D02*
X31464396Y35892220D01*
X30370336Y48397380D02*
X32267155Y50657921D01*
X29987587Y52823466D02*
X28902248Y65228943D01*
X32409114Y50791564D02*
X29987587Y52823466D01*
X28902248Y65228943D02*
X30910455Y67622231D01*
X28902248Y65228943D02*
X28821057Y65228943D01*
X30384579Y48234579D02*
X12590421Y48234579D01*
X31464396Y35892220D02*
X30384579Y48234579D01*
X30384579Y48234579D02*
X30370336Y48397380D01*
X12590421Y48234579D02*
X275000Y60550000D01*
X275000Y60550000D02*
X275000Y75625000D01*
X275000Y75625000D02*
X4325000Y75625000D01*
X4325000Y75625000D02*
X8000000Y79300000D01*
X66770934Y45737741D02*
X65669084Y58331953D01*
X69209925Y43691185D02*
X66770934Y45737741D01*
X65669084Y58331953D02*
X67600191Y60633357D01*
X65243382Y62701261D02*
X64146532Y75238316D01*
X67683825Y60653487D02*
X65243382Y62701261D01*
X64146532Y75238316D02*
X66116975Y77586599D01*
X61225270Y23751737D02*
X60377283Y33444269D01*
X64512311Y20993582D02*
X61225270Y23751737D01*
X60377283Y33444269D02*
X68841443Y43531462D01*
X32537947Y82584702D02*
X27225000Y77271755D01*
X63898760Y76122037D02*
X57436095Y82584702D01*
X57436095Y82584702D02*
X32537947Y82584702D01*
X63898760Y75486088D02*
X63898760Y76122037D01*
X64146532Y75238316D02*
X63898760Y75486088D01*
X27225000Y67490079D02*
X26499990Y66765069D01*
X27225000Y77271755D02*
X27225000Y67490079D01*
X26500000Y55124980D02*
X26500000Y54035674D01*
X26499990Y55124990D02*
X26500000Y55124980D01*
X26499990Y66765069D02*
X26499990Y55124990D01*
X22198925Y49734599D02*
X19110664Y49734599D01*
X26500000Y54035674D02*
X22198925Y49734599D01*
X19110664Y49734599D02*
X13226075Y49734599D01*
X13226075Y49734599D02*
X1775020Y61185654D01*
X1775020Y61185654D02*
X1775020Y74124980D01*
X1775020Y74124980D02*
X7249980Y74124980D01*
X7249980Y74124980D02*
X7575000Y74450000D01*
X84959908Y43980542D02*
X83971674Y55276109D01*
X87389645Y41941751D02*
X84959908Y43980542D01*
X87486998Y40829003D02*
X87389645Y41941751D01*
X83971674Y55276109D02*
X86079490Y57788107D01*
X86079490Y57788107D02*
X85952974Y57777039D01*
X85952974Y57777039D02*
X83654046Y59706068D01*
X82540728Y72431352D02*
X84354309Y74592695D01*
X61583890Y87983890D02*
X56934712Y83334712D01*
X75955148Y87983890D02*
X61583890Y87983890D01*
X77806904Y86132134D02*
X75955148Y87983890D01*
X77806904Y77043096D02*
X77806904Y86132134D01*
X82552432Y72297568D02*
X77806904Y77043096D01*
X83654046Y59706068D02*
X82552432Y72297568D01*
X82552432Y72297568D02*
X82540728Y72431352D01*
X32227282Y83334711D02*
X25576821Y76684250D01*
X56934712Y83334712D02*
X32227282Y83334711D01*
X25576821Y76684250D02*
X25576821Y54173169D01*
X21888261Y50484609D02*
X19421328Y50484609D01*
X25576821Y54173169D02*
X21888261Y50484609D01*
X19421328Y50484609D02*
X13536739Y50484609D01*
X13536739Y50484609D02*
X2525030Y61496318D01*
X2525030Y61496318D02*
X2525030Y73374970D01*
X2525030Y73374970D02*
X6050030Y73374970D01*
X6050030Y73374970D02*
X7675000Y71750000D01*
X7675000Y71750000D02*
X7825000Y71750000D01*
X104055540Y32252421D02*
X102969466Y44666296D01*
X106484417Y30214351D02*
X104055540Y32252421D01*
X102969466Y44666296D02*
X104992021Y47076683D01*
X102645433Y49045704D02*
X101539783Y61683336D01*
X104992021Y47076683D02*
X102645433Y49045704D01*
X101539783Y61683336D02*
X103508804Y64029924D01*
X101539783Y66800526D02*
X96127120Y72213189D01*
X101539783Y61683336D02*
X101539783Y66800526D01*
X96127120Y83257908D02*
X90651128Y88733900D01*
X96127120Y83022880D02*
X96127120Y83257908D01*
X90651128Y88733900D02*
X61273225Y88733899D01*
X96127120Y72213189D02*
X96127120Y83022880D01*
X96127120Y83022880D02*
X96127120Y83197880D01*
X31916617Y84084720D02*
X24826811Y76994914D01*
X56624046Y84084720D02*
X31916617Y84084720D01*
X61273225Y88733899D02*
X56624046Y84084720D01*
X24826811Y76994914D02*
X24826811Y54483833D01*
X24826811Y54483833D02*
X21577597Y51234619D01*
X21412216Y51400000D02*
X13682022Y51400000D01*
X21577597Y51234619D02*
X21412216Y51400000D01*
X13682022Y51400000D02*
X3275040Y61806982D01*
X3275040Y61806982D02*
X3275040Y72624960D01*
X6443699Y71506301D02*
X6443699Y70506301D01*
X5325040Y72624960D02*
X6443699Y71506301D01*
X3275040Y72624960D02*
X5325040Y72624960D01*
X6443699Y70506301D02*
X7825000Y69125000D01*
X40740922Y26133428D02*
X49998308Y37165952D01*
X41275424Y20024044D02*
X40740922Y26133428D01*
X45455608Y16516453D02*
X41275424Y20024044D01*
X49998308Y37165952D02*
X51538646Y37300714D01*
X49243753Y39401576D02*
X48154737Y51849090D01*
X51657049Y37376581D02*
X49243753Y39401576D01*
X48154737Y51849090D02*
X50181947Y54265024D01*
X47701422Y56346431D02*
X46628392Y68611224D01*
X50181947Y54265024D02*
X47701422Y56346431D01*
X46628392Y68611224D02*
X48709799Y71091749D01*
X30147465Y69351870D02*
X27250000Y66454405D01*
X31707467Y69351870D02*
X30147465Y69351870D01*
X32448113Y68611224D02*
X31707467Y69351870D01*
X46628392Y68611224D02*
X32448113Y68611224D01*
X27250000Y53725000D02*
X22509589Y48984589D01*
X27250000Y66454405D02*
X27250000Y53725000D01*
X22509589Y48984589D02*
X18800000Y48984589D01*
X12915411Y48984589D02*
X1025010Y60874990D01*
X18800000Y48984589D02*
X12915411Y48984589D01*
X1025010Y60874990D02*
X1025010Y74874990D01*
X1025010Y74874990D02*
X5924990Y74874990D01*
X5924990Y74874990D02*
X7875000Y76825000D01*
X12424334Y90024990D02*
X11514335Y90934989D01*
X15174990Y90024990D02*
X12424334Y90024990D01*
X17675000Y92525000D02*
X15174990Y90024990D01*
X11514335Y90934989D02*
X8198737Y90934989D01*
X8198737Y90934989D02*
X7406874Y90143126D01*
M02*
