G04 #@! TF.GenerationSoftware,KiCad,Pcbnew,(5.1.4-0)*
G04 #@! TF.CreationDate,2020-10-31T16:51:09+08:00*
G04 #@! TF.ProjectId,ahokore,61686f6b-6f72-4652-9e6b-696361645f70,rev?*
G04 #@! TF.SameCoordinates,Original*
G04 #@! TF.FileFunction,Copper,L2,Bot*
G04 #@! TF.FilePolarity,Positive*
%FSLAX46Y46*%
G04 Gerber Fmt 4.6, Leading zero omitted, Abs format (unit mm)*
G04 Created by KiCad (PCBNEW (5.1.4-0)) date 2020-10-31 16:51:09*
%MOMM*%
%LPD*%
G04 APERTURE LIST*
%ADD10C,4.400000*%
%ADD11C,2.000000*%
%ADD12C,1.600000*%
%ADD13C,0.100000*%
%ADD14C,0.500000*%
%ADD15C,1.200000*%
%ADD16C,1.752600*%
%ADD17R,1.752600X1.752600*%
%ADD18C,2.250000*%
%ADD19C,1.250000*%
%ADD20C,2.300000*%
%ADD21C,0.800000*%
%ADD22C,0.250000*%
G04 APERTURE END LIST*
D10*
X-19675000Y70550000D03*
X20325000Y70550000D03*
X20325000Y30550000D03*
X-19675000Y30550000D03*
X90325000Y20550000D03*
X-89675000Y20550000D03*
X-109675000Y85550000D03*
X110325000Y85550000D03*
D11*
X84523266Y74704606D03*
X89687267Y73048376D03*
D12*
X112605576Y40370072D03*
D13*
G36*
X111878345Y39503392D02*
G01*
X111738896Y41097303D01*
X113332807Y41236752D01*
X113472256Y39642841D01*
X111878345Y39503392D01*
X111878345Y39503392D01*
G37*
D12*
X104835258Y39690258D03*
D14*
X111210904Y40248054D03*
D13*
G36*
X109788211Y39872629D02*
G01*
X109744633Y40370727D01*
X112633597Y40623479D01*
X112677175Y40125381D01*
X109788211Y39872629D01*
X109788211Y39872629D01*
G37*
D15*
X110115090Y40152183D03*
D13*
G36*
X109370428Y39484742D02*
G01*
X109265841Y40680175D01*
X110859752Y40819624D01*
X110964339Y39624191D01*
X109370428Y39484742D01*
X109370428Y39484742D01*
G37*
D15*
X107325744Y39908147D03*
D13*
G36*
X106581082Y39240706D02*
G01*
X106476495Y40436139D01*
X108070406Y40575588D01*
X108174993Y39380155D01*
X106581082Y39240706D01*
X106581082Y39240706D01*
G37*
D14*
X106229930Y39812276D03*
D13*
G36*
X104807237Y39436851D02*
G01*
X104763659Y39934949D01*
X107652623Y40187701D01*
X107696201Y39689603D01*
X104807237Y39436851D01*
X104807237Y39436851D01*
G37*
D12*
X111180601Y57333293D03*
D13*
G36*
X110453370Y56466613D02*
G01*
X110313921Y58060524D01*
X111907832Y58199973D01*
X112047281Y56606062D01*
X110453370Y56466613D01*
X110453370Y56466613D01*
G37*
D12*
X103410283Y56653479D03*
D14*
X109785929Y57211275D03*
D13*
G36*
X108363236Y56835850D02*
G01*
X108319658Y57333948D01*
X111208622Y57586700D01*
X111252200Y57088602D01*
X108363236Y56835850D01*
X108363236Y56835850D01*
G37*
D15*
X108690115Y57115404D03*
D13*
G36*
X107945453Y56447963D02*
G01*
X107840866Y57643396D01*
X109434777Y57782845D01*
X109539364Y56587412D01*
X107945453Y56447963D01*
X107945453Y56447963D01*
G37*
D15*
X105900769Y56871368D03*
D13*
G36*
X105156107Y56203927D02*
G01*
X105051520Y57399360D01*
X106645431Y57538809D01*
X106750018Y56343376D01*
X105156107Y56203927D01*
X105156107Y56203927D01*
G37*
D14*
X104804955Y56775497D03*
D13*
G36*
X103382262Y56400072D02*
G01*
X103338684Y56898170D01*
X106227648Y57150922D01*
X106271226Y56652824D01*
X103382262Y56400072D01*
X103382262Y56400072D01*
G37*
D12*
X109670588Y74251683D03*
D13*
G36*
X108943357Y73385003D02*
G01*
X108803908Y74978914D01*
X110397819Y75118363D01*
X110537268Y73524452D01*
X108943357Y73385003D01*
X108943357Y73385003D01*
G37*
D12*
X101900270Y73571869D03*
D14*
X108275916Y74129665D03*
D13*
G36*
X106853223Y73754240D02*
G01*
X106809645Y74252338D01*
X109698609Y74505090D01*
X109742187Y74006992D01*
X106853223Y73754240D01*
X106853223Y73754240D01*
G37*
D15*
X107180102Y74033794D03*
D13*
G36*
X106435440Y73366353D02*
G01*
X106330853Y74561786D01*
X107924764Y74701235D01*
X108029351Y73505802D01*
X106435440Y73366353D01*
X106435440Y73366353D01*
G37*
D15*
X104390756Y73789758D03*
D13*
G36*
X103646094Y73122317D02*
G01*
X103541507Y74317750D01*
X105135418Y74457199D01*
X105240005Y73261766D01*
X103646094Y73122317D01*
X103646094Y73122317D01*
G37*
D14*
X103294942Y73693887D03*
D13*
G36*
X101872249Y73318462D02*
G01*
X101828671Y73816560D01*
X104717635Y74069312D01*
X104761213Y73571214D01*
X101872249Y73318462D01*
X101872249Y73318462D01*
G37*
D11*
X106484416Y30214351D03*
X111648417Y28558121D03*
X105002334Y47154640D03*
X110166335Y45498410D03*
X32409113Y50791563D03*
X37573114Y49135333D03*
X-59496809Y55118746D03*
X-54698863Y52590958D03*
X-77003865Y61539017D03*
X-72205919Y59011229D03*
X-95324955Y58654830D03*
X-90527009Y56127042D03*
X-114322374Y48040172D03*
X-109524428Y45512384D03*
X103520685Y64089953D03*
X108684686Y62433723D03*
X66203050Y77578832D03*
X71367051Y75922602D03*
X48695119Y71168522D03*
X53859120Y69512292D03*
X-40247509Y68612406D03*
X-35449563Y66084618D03*
X-58015161Y72054055D03*
X-53217215Y69526267D03*
X-75443089Y78344365D03*
X-70645143Y75816577D03*
X-93843307Y75590140D03*
X-89045361Y73062352D03*
X-112840727Y64975483D03*
X-108042781Y62447695D03*
D12*
X69762659Y31673384D03*
D13*
G36*
X69113731Y30746619D02*
G01*
X68835894Y32322312D01*
X70411587Y32600149D01*
X70689424Y31024456D01*
X69113731Y30746619D01*
X69113731Y30746619D01*
G37*
D12*
X62081159Y30318928D03*
D14*
X68383928Y31430276D03*
D13*
G36*
X66999369Y30932284D02*
G01*
X66912545Y31424688D01*
X69768487Y31928268D01*
X69855311Y31435864D01*
X66999369Y30932284D01*
X66999369Y30932284D01*
G37*
D15*
X67300640Y31239263D03*
D13*
G36*
X66616983Y30509460D02*
G01*
X66408605Y31691229D01*
X67984297Y31969066D01*
X68192675Y30787297D01*
X66616983Y30509460D01*
X66616983Y30509460D01*
G37*
D15*
X64543178Y30753049D03*
D13*
G36*
X63859521Y30023246D02*
G01*
X63651143Y31205015D01*
X65226835Y31482852D01*
X65435213Y30301083D01*
X63859521Y30023246D01*
X63859521Y30023246D01*
G37*
D14*
X63459890Y30562036D03*
D13*
G36*
X62075331Y30064044D02*
G01*
X61988507Y30556448D01*
X64844449Y31060028D01*
X64931273Y30567624D01*
X62075331Y30064044D01*
X62075331Y30064044D01*
G37*
D12*
X49754336Y27595015D03*
D13*
G36*
X49188651Y26615219D02*
G01*
X48774540Y28160700D01*
X50320021Y28574811D01*
X50734132Y27029330D01*
X49188651Y26615219D01*
X49188651Y26615219D01*
G37*
D12*
X42220114Y25576227D03*
D14*
X48402040Y27232669D03*
D13*
G36*
X47066152Y26615900D02*
G01*
X46936743Y27098863D01*
X49737928Y27849438D01*
X49867337Y27366475D01*
X47066152Y26615900D01*
X47066152Y26615900D01*
G37*
D15*
X47339521Y26947968D03*
D13*
G36*
X46722072Y26161357D02*
G01*
X46411489Y27320468D01*
X47956970Y27734579D01*
X48267553Y26575468D01*
X46722072Y26161357D01*
X46722072Y26161357D01*
G37*
D15*
X44634929Y26223274D03*
D13*
G36*
X44017480Y25436663D02*
G01*
X43706897Y26595774D01*
X45252378Y27009885D01*
X45562961Y25850774D01*
X44017480Y25436663D01*
X44017480Y25436663D01*
G37*
D14*
X43572410Y25938573D03*
D13*
G36*
X42236522Y25321804D02*
G01*
X42107113Y25804767D01*
X44908298Y26555342D01*
X45037707Y26072379D01*
X42236522Y25321804D01*
X42236522Y25321804D01*
G37*
D12*
X30136698Y20993322D03*
D13*
G36*
X29749746Y19930181D02*
G01*
X29073557Y21380274D01*
X30523650Y22056463D01*
X31199839Y20606370D01*
X29749746Y19930181D01*
X29749746Y19930181D01*
G37*
D12*
X23067498Y17696900D03*
D14*
X28867867Y20401657D03*
D13*
G36*
X27659375Y19562284D02*
G01*
X27448066Y20015437D01*
X30076359Y21241030D01*
X30287668Y20787877D01*
X27659375Y19562284D01*
X27659375Y19562284D01*
G37*
D15*
X27870929Y19936777D03*
D13*
G36*
X27399454Y19054898D02*
G01*
X26892312Y20142467D01*
X28342404Y20818656D01*
X28849546Y19731087D01*
X27399454Y19054898D01*
X27399454Y19054898D01*
G37*
D15*
X25333267Y18753445D03*
D13*
G36*
X24861792Y17871566D02*
G01*
X24354650Y18959135D01*
X25804742Y19635324D01*
X26311884Y18547755D01*
X24861792Y17871566D01*
X24861792Y17871566D01*
G37*
D14*
X24336329Y18288565D03*
D13*
G36*
X23127837Y17449192D02*
G01*
X22916528Y17902345D01*
X25544821Y19127938D01*
X25756130Y18674785D01*
X23127837Y17449192D01*
X23127837Y17449192D01*
G37*
D12*
X-25862333Y19324532D03*
D13*
G36*
X-26925474Y18937580D02*
G01*
X-26249285Y20387673D01*
X-24799192Y19711484D01*
X-25475381Y18261391D01*
X-26925474Y18937580D01*
X-26925474Y18937580D01*
G37*
D12*
X-32931533Y22620954D03*
D14*
X-27131164Y19916197D03*
D13*
G36*
X-28550965Y20302417D02*
G01*
X-28339656Y20755570D01*
X-25711363Y19529977D01*
X-25922672Y19076824D01*
X-28550965Y20302417D01*
X-28550965Y20302417D01*
G37*
D15*
X-28128102Y20381077D03*
D13*
G36*
X-29106719Y20175387D02*
G01*
X-28599577Y21262956D01*
X-27149485Y20586767D01*
X-27656627Y19499198D01*
X-29106719Y20175387D01*
X-29106719Y20175387D01*
G37*
D15*
X-30665764Y21564409D03*
D13*
G36*
X-31644381Y21358719D02*
G01*
X-31137239Y22446288D01*
X-29687147Y21770099D01*
X-30194289Y20682530D01*
X-31644381Y21358719D01*
X-31644381Y21358719D01*
G37*
D14*
X-31662702Y22029289D03*
D13*
G36*
X-33082503Y22415509D02*
G01*
X-32871194Y22868662D01*
X-30242901Y21643069D01*
X-30454210Y21189916D01*
X-33082503Y22415509D01*
X-33082503Y22415509D01*
G37*
D12*
X-45206618Y26548695D03*
D13*
G36*
X-46186414Y25983010D02*
G01*
X-45772303Y27528491D01*
X-44226822Y27114380D01*
X-44640933Y25568899D01*
X-46186414Y25983010D01*
X-46186414Y25983010D01*
G37*
D12*
X-52740840Y28567483D03*
D14*
X-46558914Y26911041D03*
D13*
G36*
X-48024211Y27044847D02*
G01*
X-47894802Y27527810D01*
X-45093617Y26777235D01*
X-45223026Y26294272D01*
X-48024211Y27044847D01*
X-48024211Y27044847D01*
G37*
D15*
X-47621433Y27195742D03*
D13*
G36*
X-48549465Y26823242D02*
G01*
X-48238882Y27982353D01*
X-46693401Y27568242D01*
X-47003984Y26409131D01*
X-48549465Y26823242D01*
X-48549465Y26823242D01*
G37*
D15*
X-50326025Y27920436D03*
D13*
G36*
X-51254057Y27547936D02*
G01*
X-50943474Y28707047D01*
X-49397993Y28292936D01*
X-49708576Y27133825D01*
X-51254057Y27547936D01*
X-51254057Y27547936D01*
G37*
D14*
X-51388544Y28205137D03*
D13*
G36*
X-52853841Y28338943D02*
G01*
X-52724432Y28821906D01*
X-49923247Y28071331D01*
X-50052656Y27588368D01*
X-52853841Y28338943D01*
X-52853841Y28338943D01*
G37*
D12*
X-65116683Y30900016D03*
D13*
G36*
X-66043448Y30251088D02*
G01*
X-65765611Y31826781D01*
X-64189918Y31548944D01*
X-64467755Y29973251D01*
X-66043448Y30251088D01*
X-66043448Y30251088D01*
G37*
D12*
X-72798183Y32254472D03*
D14*
X-66495414Y31143124D03*
D13*
G36*
X-67966797Y31148712D02*
G01*
X-67879973Y31641116D01*
X-65024031Y31137536D01*
X-65110855Y30645132D01*
X-67966797Y31148712D01*
X-67966797Y31148712D01*
G37*
D15*
X-67578702Y31334137D03*
D13*
G36*
X-68470737Y30882171D02*
G01*
X-68262359Y32063940D01*
X-66686667Y31786103D01*
X-66895045Y30604334D01*
X-68470737Y30882171D01*
X-68470737Y30882171D01*
G37*
D15*
X-70336164Y31820351D03*
D13*
G36*
X-71228199Y31368385D02*
G01*
X-71019821Y32550154D01*
X-69444129Y32272317D01*
X-69652507Y31090548D01*
X-71228199Y31368385D01*
X-71228199Y31368385D01*
G37*
D14*
X-71419452Y32011364D03*
D13*
G36*
X-72890835Y32016952D02*
G01*
X-72804011Y32509356D01*
X-69948069Y32005776D01*
X-70034893Y31513372D01*
X-72890835Y32016952D01*
X-72890835Y32016952D01*
G37*
D12*
X93605089Y51010684D03*
D13*
G36*
X92877858Y50144004D02*
G01*
X92738409Y51737915D01*
X94332320Y51877364D01*
X94471769Y50283453D01*
X92877858Y50144004D01*
X92877858Y50144004D01*
G37*
D12*
X85834771Y50330870D03*
D14*
X92210417Y50888666D03*
D13*
G36*
X90787724Y50513241D02*
G01*
X90744146Y51011339D01*
X93633110Y51264091D01*
X93676688Y50765993D01*
X90787724Y50513241D01*
X90787724Y50513241D01*
G37*
D15*
X91114603Y50792795D03*
D13*
G36*
X90369941Y50125354D02*
G01*
X90265354Y51320787D01*
X91859265Y51460236D01*
X91963852Y50264803D01*
X90369941Y50125354D01*
X90369941Y50125354D01*
G37*
D15*
X88325257Y50548759D03*
D13*
G36*
X87580595Y49881318D02*
G01*
X87476008Y51076751D01*
X89069919Y51216200D01*
X89174506Y50020767D01*
X87580595Y49881318D01*
X87580595Y49881318D01*
G37*
D14*
X87229443Y50452888D03*
D13*
G36*
X85806750Y50077463D02*
G01*
X85763172Y50575561D01*
X88652136Y50828313D01*
X88695714Y50330215D01*
X85806750Y50077463D01*
X85806750Y50077463D01*
G37*
D12*
X75319416Y53873165D03*
D13*
G36*
X74592185Y53006485D02*
G01*
X74452736Y54600396D01*
X76046647Y54739845D01*
X76186096Y53145934D01*
X74592185Y53006485D01*
X74592185Y53006485D01*
G37*
D12*
X67549098Y53193351D03*
D14*
X73924744Y53751147D03*
D13*
G36*
X72502051Y53375722D02*
G01*
X72458473Y53873820D01*
X75347437Y54126572D01*
X75391015Y53628474D01*
X72502051Y53375722D01*
X72502051Y53375722D01*
G37*
D15*
X72828930Y53655276D03*
D13*
G36*
X72084268Y52987835D02*
G01*
X71979681Y54183268D01*
X73573592Y54322717D01*
X73678179Y53127284D01*
X72084268Y52987835D01*
X72084268Y52987835D01*
G37*
D15*
X70039584Y53411240D03*
D13*
G36*
X69294922Y52743799D02*
G01*
X69190335Y53939232D01*
X70784246Y54078681D01*
X70888833Y52883248D01*
X69294922Y52743799D01*
X69294922Y52743799D01*
G37*
D14*
X68943770Y53315369D03*
D13*
G36*
X67521077Y52939944D02*
G01*
X67477499Y53438042D01*
X70366463Y53690794D01*
X70410041Y53192696D01*
X67521077Y52939944D01*
X67521077Y52939944D01*
G37*
D12*
X57788761Y47576701D03*
D13*
G36*
X57061530Y46710021D02*
G01*
X56922081Y48303932D01*
X58515992Y48443381D01*
X58655441Y46849470D01*
X57061530Y46710021D01*
X57061530Y46710021D01*
G37*
D12*
X50018443Y46896887D03*
D14*
X56394089Y47454683D03*
D13*
G36*
X54971396Y47079258D02*
G01*
X54927818Y47577356D01*
X57816782Y47830108D01*
X57860360Y47332010D01*
X54971396Y47079258D01*
X54971396Y47079258D01*
G37*
D15*
X55298275Y47358812D03*
D13*
G36*
X54553613Y46691371D02*
G01*
X54449026Y47886804D01*
X56042937Y48026253D01*
X56147524Y46830820D01*
X54553613Y46691371D01*
X54553613Y46691371D01*
G37*
D15*
X52508929Y47114776D03*
D13*
G36*
X51764267Y46447335D02*
G01*
X51659680Y47642768D01*
X53253591Y47782217D01*
X53358178Y46586784D01*
X51764267Y46447335D01*
X51764267Y46447335D01*
G37*
D14*
X51413115Y47018905D03*
D13*
G36*
X49990422Y46643480D02*
G01*
X49946844Y47141578D01*
X52835808Y47394330D01*
X52879386Y46896232D01*
X49990422Y46643480D01*
X49990422Y46643480D01*
G37*
D12*
X40011089Y44048089D03*
D13*
G36*
X39283858Y43181409D02*
G01*
X39144409Y44775320D01*
X40738320Y44914769D01*
X40877769Y43320858D01*
X39283858Y43181409D01*
X39283858Y43181409D01*
G37*
D12*
X32240771Y43368275D03*
D14*
X38616417Y43926071D03*
D13*
G36*
X37193724Y43550646D02*
G01*
X37150146Y44048744D01*
X40039110Y44301496D01*
X40082688Y43803398D01*
X37193724Y43550646D01*
X37193724Y43550646D01*
G37*
D15*
X37520603Y43830200D03*
D13*
G36*
X36775941Y43162759D02*
G01*
X36671354Y44358192D01*
X38265265Y44497641D01*
X38369852Y43302208D01*
X36775941Y43162759D01*
X36775941Y43162759D01*
G37*
D15*
X34731257Y43586164D03*
D13*
G36*
X33986595Y42918723D02*
G01*
X33882008Y44114156D01*
X35475919Y44253605D01*
X35580506Y43058172D01*
X33986595Y42918723D01*
X33986595Y42918723D01*
G37*
D14*
X33635443Y43490293D03*
D13*
G36*
X32212750Y43114868D02*
G01*
X32169172Y43612966D01*
X35058136Y43865718D01*
X35101714Y43367620D01*
X32212750Y43114868D01*
X32212750Y43114868D01*
G37*
D12*
X-35415446Y43741854D03*
D13*
G36*
X-36282126Y43014623D02*
G01*
X-36142677Y44608534D01*
X-34548766Y44469085D01*
X-34688215Y42875174D01*
X-36282126Y43014623D01*
X-36282126Y43014623D01*
G37*
D12*
X-43185764Y44421668D03*
D14*
X-36810118Y43863872D03*
D13*
G36*
X-38276389Y43741199D02*
G01*
X-38232811Y44239297D01*
X-35343847Y43986545D01*
X-35387425Y43488447D01*
X-38276389Y43741199D01*
X-38276389Y43741199D01*
G37*
D15*
X-37905932Y43959743D03*
D13*
G36*
X-38755181Y43431751D02*
G01*
X-38650594Y44627184D01*
X-37056683Y44487735D01*
X-37161270Y43292302D01*
X-38755181Y43431751D01*
X-38755181Y43431751D01*
G37*
D15*
X-40695278Y44203779D03*
D13*
G36*
X-41544527Y43675787D02*
G01*
X-41439940Y44871220D01*
X-39846029Y44731771D01*
X-39950616Y43536338D01*
X-41544527Y43675787D01*
X-41544527Y43675787D01*
G37*
D14*
X-41791092Y44299650D03*
D13*
G36*
X-43257363Y44176977D02*
G01*
X-43213785Y44675075D01*
X-40324821Y44422323D01*
X-40368399Y43924225D01*
X-43257363Y44176977D01*
X-43257363Y44176977D01*
G37*
D12*
X-53197774Y47175835D03*
D13*
G36*
X-54064454Y46448604D02*
G01*
X-53925005Y48042515D01*
X-52331094Y47903066D01*
X-52470543Y46309155D01*
X-54064454Y46448604D01*
X-54064454Y46448604D01*
G37*
D12*
X-60968092Y47855649D03*
D14*
X-54592446Y47297853D03*
D13*
G36*
X-56058717Y47175180D02*
G01*
X-56015139Y47673278D01*
X-53126175Y47420526D01*
X-53169753Y46922428D01*
X-56058717Y47175180D01*
X-56058717Y47175180D01*
G37*
D15*
X-55688260Y47393724D03*
D13*
G36*
X-56537509Y46865732D02*
G01*
X-56432922Y48061165D01*
X-54839011Y47921716D01*
X-54943598Y46726283D01*
X-56537509Y46865732D01*
X-56537509Y46865732D01*
G37*
D15*
X-58477606Y47637760D03*
D13*
G36*
X-59326855Y47109768D02*
G01*
X-59222268Y48305201D01*
X-57628357Y48165752D01*
X-57732944Y46970319D01*
X-59326855Y47109768D01*
X-59326855Y47109768D01*
G37*
D14*
X-59573420Y47733631D03*
D13*
G36*
X-61039691Y47610958D02*
G01*
X-60996113Y48109056D01*
X-58107149Y47856304D01*
X-58150727Y47358206D01*
X-61039691Y47610958D01*
X-61039691Y47610958D01*
G37*
D12*
X-70657946Y53584354D03*
D13*
G36*
X-71524626Y52857123D02*
G01*
X-71385177Y54451034D01*
X-69791266Y54311585D01*
X-69930715Y52717674D01*
X-71524626Y52857123D01*
X-71524626Y52857123D01*
G37*
D12*
X-78428264Y54264168D03*
D14*
X-72052618Y53706372D03*
D13*
G36*
X-73518889Y53583699D02*
G01*
X-73475311Y54081797D01*
X-70586347Y53829045D01*
X-70629925Y53330947D01*
X-73518889Y53583699D01*
X-73518889Y53583699D01*
G37*
D15*
X-73148432Y53802243D03*
D13*
G36*
X-73997681Y53274251D02*
G01*
X-73893094Y54469684D01*
X-72299183Y54330235D01*
X-72403770Y53134802D01*
X-73997681Y53274251D01*
X-73997681Y53274251D01*
G37*
D15*
X-75937778Y54046279D03*
D13*
G36*
X-76787027Y53518287D02*
G01*
X-76682440Y54713720D01*
X-75088529Y54574271D01*
X-75193116Y53378838D01*
X-76787027Y53518287D01*
X-76787027Y53518287D01*
G37*
D14*
X-77033592Y54142150D03*
D13*
G36*
X-78499863Y54019477D02*
G01*
X-78456285Y54517575D01*
X-75567321Y54264823D01*
X-75610899Y53766725D01*
X-78499863Y54019477D01*
X-78499863Y54019477D01*
G37*
D12*
X-89011773Y50731836D03*
D13*
G36*
X-89878453Y50004605D02*
G01*
X-89739004Y51598516D01*
X-88145093Y51459067D01*
X-88284542Y49865156D01*
X-89878453Y50004605D01*
X-89878453Y50004605D01*
G37*
D12*
X-96782091Y51411650D03*
D14*
X-90406445Y50853854D03*
D13*
G36*
X-91872716Y50731181D02*
G01*
X-91829138Y51229279D01*
X-88940174Y50976527D01*
X-88983752Y50478429D01*
X-91872716Y50731181D01*
X-91872716Y50731181D01*
G37*
D15*
X-91502259Y50949725D03*
D13*
G36*
X-92351508Y50421733D02*
G01*
X-92246921Y51617166D01*
X-90653010Y51477717D01*
X-90757597Y50282284D01*
X-92351508Y50421733D01*
X-92351508Y50421733D01*
G37*
D15*
X-94291605Y51193761D03*
D13*
G36*
X-95140854Y50665769D02*
G01*
X-95036267Y51861202D01*
X-93442356Y51721753D01*
X-93546943Y50526320D01*
X-95140854Y50665769D01*
X-95140854Y50665769D01*
G37*
D14*
X-95387419Y51289632D03*
D13*
G36*
X-96853690Y51166959D02*
G01*
X-96810112Y51665057D01*
X-93921148Y51412305D01*
X-93964726Y50914207D01*
X-96853690Y51166959D01*
X-96853690Y51166959D01*
G37*
D12*
X-107998273Y40063836D03*
D13*
G36*
X-108864953Y39336605D02*
G01*
X-108725504Y40930516D01*
X-107131593Y40791067D01*
X-107271042Y39197156D01*
X-108864953Y39336605D01*
X-108864953Y39336605D01*
G37*
D12*
X-115768591Y40743650D03*
D14*
X-109392945Y40185854D03*
D13*
G36*
X-110859216Y40063181D02*
G01*
X-110815638Y40561279D01*
X-107926674Y40308527D01*
X-107970252Y39810429D01*
X-110859216Y40063181D01*
X-110859216Y40063181D01*
G37*
D15*
X-110488759Y40281725D03*
D13*
G36*
X-111338008Y39753733D02*
G01*
X-111233421Y40949166D01*
X-109639510Y40809717D01*
X-109744097Y39614284D01*
X-111338008Y39753733D01*
X-111338008Y39753733D01*
G37*
D15*
X-113278105Y40525761D03*
D13*
G36*
X-114127354Y39997769D02*
G01*
X-114022767Y41193202D01*
X-112428856Y41053753D01*
X-112533443Y39858320D01*
X-114127354Y39997769D01*
X-114127354Y39997769D01*
G37*
D14*
X-114373919Y40621632D03*
D13*
G36*
X-115840190Y40498959D02*
G01*
X-115796612Y40997057D01*
X-112907648Y40744305D01*
X-112951226Y40246207D01*
X-115840190Y40498959D01*
X-115840190Y40498959D01*
G37*
D12*
X92194102Y67937794D03*
D13*
G36*
X91466871Y67071114D02*
G01*
X91327422Y68665025D01*
X92921333Y68804474D01*
X93060782Y67210563D01*
X91466871Y67071114D01*
X91466871Y67071114D01*
G37*
D12*
X84423784Y67257980D03*
D14*
X90799430Y67815776D03*
D13*
G36*
X89376737Y67440351D02*
G01*
X89333159Y67938449D01*
X92222123Y68191201D01*
X92265701Y67693103D01*
X89376737Y67440351D01*
X89376737Y67440351D01*
G37*
D15*
X89703616Y67719905D03*
D13*
G36*
X88958954Y67052464D02*
G01*
X88854367Y68247897D01*
X90448278Y68387346D01*
X90552865Y67191913D01*
X88958954Y67052464D01*
X88958954Y67052464D01*
G37*
D15*
X86914270Y67475869D03*
D13*
G36*
X86169608Y66808428D02*
G01*
X86065021Y68003861D01*
X87658932Y68143310D01*
X87763519Y66947877D01*
X86169608Y66808428D01*
X86169608Y66808428D01*
G37*
D14*
X85818456Y67379998D03*
D13*
G36*
X84395763Y67004573D02*
G01*
X84352185Y67502671D01*
X87241149Y67755423D01*
X87284727Y67257325D01*
X84395763Y67004573D01*
X84395763Y67004573D01*
G37*
D12*
X73793089Y70822683D03*
D13*
G36*
X73065858Y69956003D02*
G01*
X72926409Y71549914D01*
X74520320Y71689363D01*
X74659769Y70095452D01*
X73065858Y69956003D01*
X73065858Y69956003D01*
G37*
D12*
X66022771Y70142869D03*
D14*
X72398417Y70700665D03*
D13*
G36*
X70975724Y70325240D02*
G01*
X70932146Y70823338D01*
X73821110Y71076090D01*
X73864688Y70577992D01*
X70975724Y70325240D01*
X70975724Y70325240D01*
G37*
D15*
X71302603Y70604794D03*
D13*
G36*
X70557941Y69937353D02*
G01*
X70453354Y71132786D01*
X72047265Y71272235D01*
X72151852Y70076802D01*
X70557941Y69937353D01*
X70557941Y69937353D01*
G37*
D15*
X68513257Y70360758D03*
D13*
G36*
X67768595Y69693317D02*
G01*
X67664008Y70888750D01*
X69257919Y71028199D01*
X69362506Y69832766D01*
X67768595Y69693317D01*
X67768595Y69693317D01*
G37*
D14*
X67417443Y70264887D03*
D13*
G36*
X65994750Y69889462D02*
G01*
X65951172Y70387560D01*
X68840136Y70640312D01*
X68883714Y70142214D01*
X65994750Y69889462D01*
X65994750Y69889462D01*
G37*
D12*
X56253102Y64445294D03*
D13*
G36*
X55525871Y63578614D02*
G01*
X55386422Y65172525D01*
X56980333Y65311974D01*
X57119782Y63718063D01*
X55525871Y63578614D01*
X55525871Y63578614D01*
G37*
D12*
X48482784Y63765480D03*
D14*
X54858430Y64323276D03*
D13*
G36*
X53435737Y63947851D02*
G01*
X53392159Y64445949D01*
X56281123Y64698701D01*
X56324701Y64200603D01*
X53435737Y63947851D01*
X53435737Y63947851D01*
G37*
D15*
X53762616Y64227405D03*
D13*
G36*
X53017954Y63559964D02*
G01*
X52913367Y64755397D01*
X54507278Y64894846D01*
X54611865Y63699413D01*
X53017954Y63559964D01*
X53017954Y63559964D01*
G37*
D15*
X50973270Y63983369D03*
D13*
G36*
X50228608Y63315928D02*
G01*
X50124021Y64511361D01*
X51717932Y64650810D01*
X51822519Y63455377D01*
X50228608Y63315928D01*
X50228608Y63315928D01*
G37*
D14*
X49877456Y63887498D03*
D13*
G36*
X48454763Y63512073D02*
G01*
X48411185Y64010171D01*
X51300149Y64262923D01*
X51343727Y63764825D01*
X48454763Y63512073D01*
X48454763Y63512073D01*
G37*
D12*
X38536602Y60952794D03*
D13*
G36*
X37809371Y60086114D02*
G01*
X37669922Y61680025D01*
X39263833Y61819474D01*
X39403282Y60225563D01*
X37809371Y60086114D01*
X37809371Y60086114D01*
G37*
D12*
X30766284Y60272980D03*
D14*
X37141930Y60830776D03*
D13*
G36*
X35719237Y60455351D02*
G01*
X35675659Y60953449D01*
X38564623Y61206201D01*
X38608201Y60708103D01*
X35719237Y60455351D01*
X35719237Y60455351D01*
G37*
D15*
X36046116Y60734905D03*
D13*
G36*
X35301454Y60067464D02*
G01*
X35196867Y61262897D01*
X36790778Y61402346D01*
X36895365Y60206913D01*
X35301454Y60067464D01*
X35301454Y60067464D01*
G37*
D15*
X33256770Y60490869D03*
D13*
G36*
X32512108Y59823428D02*
G01*
X32407521Y61018861D01*
X34001432Y61158310D01*
X34106019Y59962877D01*
X32512108Y59823428D01*
X32512108Y59823428D01*
G37*
D14*
X32160956Y60394998D03*
D13*
G36*
X30738263Y60019573D02*
G01*
X30694685Y60517671D01*
X33583649Y60770423D01*
X33627227Y60272325D01*
X30738263Y60019573D01*
X30738263Y60019573D01*
G37*
D12*
X-33896101Y60642818D03*
D13*
G36*
X-34762781Y59915587D02*
G01*
X-34623332Y61509498D01*
X-33029421Y61370049D01*
X-33168870Y59776138D01*
X-34762781Y59915587D01*
X-34762781Y59915587D01*
G37*
D12*
X-41666419Y61322632D03*
D14*
X-35290773Y60764836D03*
D13*
G36*
X-36757044Y60642163D02*
G01*
X-36713466Y61140261D01*
X-33824502Y60887509D01*
X-33868080Y60389411D01*
X-36757044Y60642163D01*
X-36757044Y60642163D01*
G37*
D15*
X-36386587Y60860707D03*
D13*
G36*
X-37235836Y60332715D02*
G01*
X-37131249Y61528148D01*
X-35537338Y61388699D01*
X-35641925Y60193266D01*
X-37235836Y60332715D01*
X-37235836Y60332715D01*
G37*
D15*
X-39175933Y61104743D03*
D13*
G36*
X-40025182Y60576751D02*
G01*
X-39920595Y61772184D01*
X-38326684Y61632735D01*
X-38431271Y60437302D01*
X-40025182Y60576751D01*
X-40025182Y60576751D01*
G37*
D14*
X-40271747Y61200614D03*
D13*
G36*
X-41738018Y61077941D02*
G01*
X-41694440Y61576039D01*
X-38805476Y61323287D01*
X-38849054Y60825189D01*
X-41738018Y61077941D01*
X-41738018Y61077941D01*
G37*
D12*
X-51723287Y64102947D03*
D13*
G36*
X-52589967Y63375716D02*
G01*
X-52450518Y64969627D01*
X-50856607Y64830178D01*
X-50996056Y63236267D01*
X-52589967Y63375716D01*
X-52589967Y63375716D01*
G37*
D12*
X-59493605Y64782761D03*
D14*
X-53117959Y64224965D03*
D13*
G36*
X-54584230Y64102292D02*
G01*
X-54540652Y64600390D01*
X-51651688Y64347638D01*
X-51695266Y63849540D01*
X-54584230Y64102292D01*
X-54584230Y64102292D01*
G37*
D15*
X-54213773Y64320836D03*
D13*
G36*
X-55063022Y63792844D02*
G01*
X-54958435Y64988277D01*
X-53364524Y64848828D01*
X-53469111Y63653395D01*
X-55063022Y63792844D01*
X-55063022Y63792844D01*
G37*
D15*
X-57003119Y64564872D03*
D13*
G36*
X-57852368Y64036880D02*
G01*
X-57747781Y65232313D01*
X-56153870Y65092864D01*
X-56258457Y63897431D01*
X-57852368Y64036880D01*
X-57852368Y64036880D01*
G37*
D14*
X-58098933Y64660743D03*
D13*
G36*
X-59565204Y64538070D02*
G01*
X-59521626Y65036168D01*
X-56632662Y64783416D01*
X-56676240Y64285318D01*
X-59565204Y64538070D01*
X-59565204Y64538070D01*
G37*
D12*
X-69188115Y70521430D03*
D13*
G36*
X-70054795Y69794199D02*
G01*
X-69915346Y71388110D01*
X-68321435Y71248661D01*
X-68460884Y69654750D01*
X-70054795Y69794199D01*
X-70054795Y69794199D01*
G37*
D12*
X-76958433Y71201244D03*
D14*
X-70582787Y70643448D03*
D13*
G36*
X-72049058Y70520775D02*
G01*
X-72005480Y71018873D01*
X-69116516Y70766121D01*
X-69160094Y70268023D01*
X-72049058Y70520775D01*
X-72049058Y70520775D01*
G37*
D15*
X-71678601Y70739319D03*
D13*
G36*
X-72527850Y70211327D02*
G01*
X-72423263Y71406760D01*
X-70829352Y71267311D01*
X-70933939Y70071878D01*
X-72527850Y70211327D01*
X-72527850Y70211327D01*
G37*
D15*
X-74467947Y70983355D03*
D13*
G36*
X-75317196Y70455363D02*
G01*
X-75212609Y71650796D01*
X-73618698Y71511347D01*
X-73723285Y70315914D01*
X-75317196Y70455363D01*
X-75317196Y70455363D01*
G37*
D14*
X-75563761Y71079226D03*
D13*
G36*
X-77030032Y70956553D02*
G01*
X-76986454Y71454651D01*
X-74097490Y71201899D01*
X-74141068Y70703801D01*
X-77030032Y70956553D01*
X-77030032Y70956553D01*
G37*
D12*
X-87565260Y67650226D03*
D13*
G36*
X-88431940Y66922995D02*
G01*
X-88292491Y68516906D01*
X-86698580Y68377457D01*
X-86838029Y66783546D01*
X-88431940Y66922995D01*
X-88431940Y66922995D01*
G37*
D12*
X-95335578Y68330040D03*
D14*
X-88959932Y67772244D03*
D13*
G36*
X-90426203Y67649571D02*
G01*
X-90382625Y68147669D01*
X-87493661Y67894917D01*
X-87537239Y67396819D01*
X-90426203Y67649571D01*
X-90426203Y67649571D01*
G37*
D15*
X-90055746Y67868115D03*
D13*
G36*
X-90904995Y67340123D02*
G01*
X-90800408Y68535556D01*
X-89206497Y68396107D01*
X-89311084Y67200674D01*
X-90904995Y67340123D01*
X-90904995Y67340123D01*
G37*
D15*
X-92845092Y68112151D03*
D13*
G36*
X-93694341Y67584159D02*
G01*
X-93589754Y68779592D01*
X-91995843Y68640143D01*
X-92100430Y67444710D01*
X-93694341Y67584159D01*
X-93694341Y67584159D01*
G37*
D14*
X-93940906Y68208022D03*
D13*
G36*
X-95407177Y68085349D02*
G01*
X-95363599Y68583447D01*
X-92474635Y68330695D01*
X-92518213Y67832597D01*
X-95407177Y68085349D01*
X-95407177Y68085349D01*
G37*
D12*
X-106526115Y56995929D03*
D13*
G36*
X-107392795Y56268698D02*
G01*
X-107253346Y57862609D01*
X-105659435Y57723160D01*
X-105798884Y56129249D01*
X-107392795Y56268698D01*
X-107392795Y56268698D01*
G37*
D12*
X-114296433Y57675743D03*
D14*
X-107920787Y57117947D03*
D13*
G36*
X-109387058Y56995274D02*
G01*
X-109343480Y57493372D01*
X-106454516Y57240620D01*
X-106498094Y56742522D01*
X-109387058Y56995274D01*
X-109387058Y56995274D01*
G37*
D15*
X-109016601Y57213818D03*
D13*
G36*
X-109865850Y56685826D02*
G01*
X-109761263Y57881259D01*
X-108167352Y57741810D01*
X-108271939Y56546377D01*
X-109865850Y56685826D01*
X-109865850Y56685826D01*
G37*
D15*
X-111805947Y57457854D03*
D13*
G36*
X-112655196Y56929862D02*
G01*
X-112550609Y58125295D01*
X-110956698Y57985846D01*
X-111061285Y56790413D01*
X-112655196Y56929862D01*
X-112655196Y56929862D01*
G37*
D14*
X-112901761Y57553725D03*
D13*
G36*
X-114368032Y57431052D02*
G01*
X-114324454Y57929150D01*
X-111435490Y57676398D01*
X-111479068Y57178300D01*
X-114368032Y57431052D01*
X-114368032Y57431052D01*
G37*
D12*
X90620589Y85739683D03*
D13*
G36*
X89893358Y84873003D02*
G01*
X89753909Y86466914D01*
X91347820Y86606363D01*
X91487269Y85012452D01*
X89893358Y84873003D01*
X89893358Y84873003D01*
G37*
D12*
X82850271Y85059869D03*
D14*
X89225917Y85617665D03*
D13*
G36*
X87803224Y85242240D02*
G01*
X87759646Y85740338D01*
X90648610Y85993090D01*
X90692188Y85494992D01*
X87803224Y85242240D01*
X87803224Y85242240D01*
G37*
D15*
X88130103Y85521794D03*
D13*
G36*
X87385441Y84854353D02*
G01*
X87280854Y86049786D01*
X88874765Y86189235D01*
X88979352Y84993802D01*
X87385441Y84854353D01*
X87385441Y84854353D01*
G37*
D15*
X85340757Y85277758D03*
D13*
G36*
X84596095Y84610317D02*
G01*
X84491508Y85805750D01*
X86085419Y85945199D01*
X86190006Y84749766D01*
X84596095Y84610317D01*
X84596095Y84610317D01*
G37*
D14*
X84244943Y85181887D03*
D13*
G36*
X82822250Y84806462D02*
G01*
X82778672Y85304560D01*
X85667636Y85557312D01*
X85711214Y85059214D01*
X82822250Y84806462D01*
X82822250Y84806462D01*
G37*
D12*
X71080261Y86492200D03*
D13*
G36*
X70353030Y85625520D02*
G01*
X70213581Y87219431D01*
X71807492Y87358880D01*
X71946941Y85764969D01*
X70353030Y85625520D01*
X70353030Y85625520D01*
G37*
D12*
X63309943Y85812386D03*
D14*
X69685589Y86370182D03*
D13*
G36*
X68262896Y85994757D02*
G01*
X68219318Y86492855D01*
X71108282Y86745607D01*
X71151860Y86247509D01*
X68262896Y85994757D01*
X68262896Y85994757D01*
G37*
D15*
X68589775Y86274311D03*
D13*
G36*
X67845113Y85606870D02*
G01*
X67740526Y86802303D01*
X69334437Y86941752D01*
X69439024Y85746319D01*
X67845113Y85606870D01*
X67845113Y85606870D01*
G37*
D15*
X65800429Y86030275D03*
D13*
G36*
X65055767Y85362834D02*
G01*
X64951180Y86558267D01*
X66545091Y86697716D01*
X66649678Y85502283D01*
X65055767Y85362834D01*
X65055767Y85362834D01*
G37*
D14*
X64704615Y85934404D03*
D13*
G36*
X63281922Y85558979D02*
G01*
X63238344Y86057077D01*
X66127308Y86309829D01*
X66170886Y85811731D01*
X63281922Y85558979D01*
X63281922Y85558979D01*
G37*
D12*
X55194808Y81093012D03*
D13*
G36*
X54467577Y80226332D02*
G01*
X54328128Y81820243D01*
X55922039Y81959692D01*
X56061488Y80365781D01*
X54467577Y80226332D01*
X54467577Y80226332D01*
G37*
D12*
X47424490Y80413198D03*
D14*
X53800136Y80970994D03*
D13*
G36*
X52377443Y80595569D02*
G01*
X52333865Y81093667D01*
X55222829Y81346419D01*
X55266407Y80848321D01*
X52377443Y80595569D01*
X52377443Y80595569D01*
G37*
D15*
X52704322Y80875123D03*
D13*
G36*
X51959660Y80207682D02*
G01*
X51855073Y81403115D01*
X53448984Y81542564D01*
X53553571Y80347131D01*
X51959660Y80207682D01*
X51959660Y80207682D01*
G37*
D15*
X49914976Y80631087D03*
D13*
G36*
X49170314Y79963646D02*
G01*
X49065727Y81159079D01*
X50659638Y81298528D01*
X50764225Y80103095D01*
X49170314Y79963646D01*
X49170314Y79963646D01*
G37*
D14*
X48819162Y80535216D03*
D13*
G36*
X47396469Y80159791D02*
G01*
X47352891Y80657889D01*
X50241855Y80910641D01*
X50285433Y80412543D01*
X47396469Y80159791D01*
X47396469Y80159791D01*
G37*
D12*
X37092416Y77939665D03*
D13*
G36*
X36365185Y77072985D02*
G01*
X36225736Y78666896D01*
X37819647Y78806345D01*
X37959096Y77212434D01*
X36365185Y77072985D01*
X36365185Y77072985D01*
G37*
D12*
X29322098Y77259851D03*
D14*
X35697744Y77817647D03*
D13*
G36*
X34275051Y77442222D02*
G01*
X34231473Y77940320D01*
X37120437Y78193072D01*
X37164015Y77694974D01*
X34275051Y77442222D01*
X34275051Y77442222D01*
G37*
D15*
X34601930Y77721776D03*
D13*
G36*
X33857268Y77054335D02*
G01*
X33752681Y78249768D01*
X35346592Y78389217D01*
X35451179Y77193784D01*
X33857268Y77054335D01*
X33857268Y77054335D01*
G37*
D15*
X31812584Y77477740D03*
D13*
G36*
X31067922Y76810299D02*
G01*
X30963335Y78005732D01*
X32557246Y78145181D01*
X32661833Y76949748D01*
X31067922Y76810299D01*
X31067922Y76810299D01*
G37*
D14*
X30716770Y77381869D03*
D13*
G36*
X29294077Y77006444D02*
G01*
X29250499Y77504542D01*
X32139463Y77757294D01*
X32183041Y77259196D01*
X29294077Y77006444D01*
X29294077Y77006444D01*
G37*
D12*
X-32435601Y77597318D03*
D13*
G36*
X-33302281Y76870087D02*
G01*
X-33162832Y78463998D01*
X-31568921Y78324549D01*
X-31708370Y76730638D01*
X-33302281Y76870087D01*
X-33302281Y76870087D01*
G37*
D12*
X-40205919Y78277132D03*
D14*
X-33830273Y77719336D03*
D13*
G36*
X-35296544Y77596663D02*
G01*
X-35252966Y78094761D01*
X-32364002Y77842009D01*
X-32407580Y77343911D01*
X-35296544Y77596663D01*
X-35296544Y77596663D01*
G37*
D15*
X-34926087Y77815207D03*
D13*
G36*
X-35775336Y77287215D02*
G01*
X-35670749Y78482648D01*
X-34076838Y78343199D01*
X-34181425Y77147766D01*
X-35775336Y77287215D01*
X-35775336Y77287215D01*
G37*
D15*
X-37715433Y78059243D03*
D13*
G36*
X-38564682Y77531251D02*
G01*
X-38460095Y78726684D01*
X-36866184Y78587235D01*
X-36970771Y77391802D01*
X-38564682Y77531251D01*
X-38564682Y77531251D01*
G37*
D14*
X-38811247Y78155114D03*
D13*
G36*
X-40277518Y78032441D02*
G01*
X-40233940Y78530539D01*
X-37344976Y78277787D01*
X-37388554Y77779689D01*
X-40277518Y78032441D01*
X-40277518Y78032441D01*
G37*
D12*
X-50210947Y81016354D03*
D13*
G36*
X-51077627Y80289123D02*
G01*
X-50938178Y81883034D01*
X-49344267Y81743585D01*
X-49483716Y80149674D01*
X-51077627Y80289123D01*
X-51077627Y80289123D01*
G37*
D12*
X-57981265Y81696168D03*
D14*
X-51605619Y81138372D03*
D13*
G36*
X-53071890Y81015699D02*
G01*
X-53028312Y81513797D01*
X-50139348Y81261045D01*
X-50182926Y80762947D01*
X-53071890Y81015699D01*
X-53071890Y81015699D01*
G37*
D15*
X-52701433Y81234243D03*
D13*
G36*
X-53550682Y80706251D02*
G01*
X-53446095Y81901684D01*
X-51852184Y81762235D01*
X-51956771Y80566802D01*
X-53550682Y80706251D01*
X-53550682Y80706251D01*
G37*
D15*
X-55490779Y81478279D03*
D13*
G36*
X-56340028Y80950287D02*
G01*
X-56235441Y82145720D01*
X-54641530Y82006271D01*
X-54746117Y80810838D01*
X-56340028Y80950287D01*
X-56340028Y80950287D01*
G37*
D14*
X-56586593Y81574150D03*
D13*
G36*
X-58052864Y81451477D02*
G01*
X-58009286Y81949575D01*
X-55120322Y81696823D01*
X-55163900Y81198725D01*
X-58052864Y81451477D01*
X-58052864Y81451477D01*
G37*
D12*
X-67943615Y86669429D03*
D13*
G36*
X-68810295Y85942198D02*
G01*
X-68670846Y87536109D01*
X-67076935Y87396660D01*
X-67216384Y85802749D01*
X-68810295Y85942198D01*
X-68810295Y85942198D01*
G37*
D12*
X-75713933Y87349243D03*
D14*
X-69338287Y86791447D03*
D13*
G36*
X-70804558Y86668774D02*
G01*
X-70760980Y87166872D01*
X-67872016Y86914120D01*
X-67915594Y86416022D01*
X-70804558Y86668774D01*
X-70804558Y86668774D01*
G37*
D15*
X-70434101Y86887318D03*
D13*
G36*
X-71283350Y86359326D02*
G01*
X-71178763Y87554759D01*
X-69584852Y87415310D01*
X-69689439Y86219877D01*
X-71283350Y86359326D01*
X-71283350Y86359326D01*
G37*
D15*
X-73223447Y87131354D03*
D13*
G36*
X-74072696Y86603362D02*
G01*
X-73968109Y87798795D01*
X-72374198Y87659346D01*
X-72478785Y86463913D01*
X-74072696Y86603362D01*
X-74072696Y86603362D01*
G37*
D14*
X-74319261Y87227225D03*
D13*
G36*
X-75785532Y87104552D02*
G01*
X-75741954Y87602650D01*
X-72852990Y87349898D01*
X-72896568Y86851800D01*
X-75785532Y87104552D01*
X-75785532Y87104552D01*
G37*
D12*
X-86231615Y83811929D03*
D13*
G36*
X-87098295Y83084698D02*
G01*
X-86958846Y84678609D01*
X-85364935Y84539160D01*
X-85504384Y82945249D01*
X-87098295Y83084698D01*
X-87098295Y83084698D01*
G37*
D12*
X-94001933Y84491743D03*
D14*
X-87626287Y83933947D03*
D13*
G36*
X-89092558Y83811274D02*
G01*
X-89048980Y84309372D01*
X-86160016Y84056620D01*
X-86203594Y83558522D01*
X-89092558Y83811274D01*
X-89092558Y83811274D01*
G37*
D15*
X-88722101Y84029818D03*
D13*
G36*
X-89571350Y83501826D02*
G01*
X-89466763Y84697259D01*
X-87872852Y84557810D01*
X-87977439Y83362377D01*
X-89571350Y83501826D01*
X-89571350Y83501826D01*
G37*
D15*
X-91511447Y84273854D03*
D13*
G36*
X-92360696Y83745862D02*
G01*
X-92256109Y84941295D01*
X-90662198Y84801846D01*
X-90766785Y83606413D01*
X-92360696Y83745862D01*
X-92360696Y83745862D01*
G37*
D14*
X-92607261Y84369725D03*
D13*
G36*
X-94073532Y84247052D02*
G01*
X-94029954Y84745150D01*
X-91140990Y84492398D01*
X-91184568Y83994300D01*
X-94073532Y84247052D01*
X-94073532Y84247052D01*
G37*
D12*
X-105016100Y73914318D03*
D13*
G36*
X-105882780Y73187087D02*
G01*
X-105743331Y74780998D01*
X-104149420Y74641549D01*
X-104288869Y73047638D01*
X-105882780Y73187087D01*
X-105882780Y73187087D01*
G37*
D12*
X-112786418Y74594132D03*
D14*
X-106410772Y74036336D03*
D13*
G36*
X-107877043Y73913663D02*
G01*
X-107833465Y74411761D01*
X-104944501Y74159009D01*
X-104988079Y73660911D01*
X-107877043Y73913663D01*
X-107877043Y73913663D01*
G37*
D15*
X-107506586Y74132207D03*
D13*
G36*
X-108355835Y73604215D02*
G01*
X-108251248Y74799648D01*
X-106657337Y74660199D01*
X-106761924Y73464766D01*
X-108355835Y73604215D01*
X-108355835Y73604215D01*
G37*
D15*
X-110295932Y74376243D03*
D13*
G36*
X-111145181Y73848251D02*
G01*
X-111040594Y75043684D01*
X-109446683Y74904235D01*
X-109551270Y73708802D01*
X-111145181Y73848251D01*
X-111145181Y73848251D01*
G37*
D14*
X-111391746Y74472114D03*
D13*
G36*
X-112858017Y74349441D02*
G01*
X-112814439Y74847539D01*
X-109925475Y74594787D01*
X-109969053Y74096689D01*
X-112858017Y74349441D01*
X-112858017Y74349441D01*
G37*
D16*
X7945000Y89520000D03*
X-7295000Y61580000D03*
X7945000Y86980000D03*
X7945000Y84440000D03*
X7945000Y81900000D03*
X7945000Y79360000D03*
X7945000Y76820000D03*
X7945000Y74280000D03*
X7945000Y71740000D03*
X7945000Y69200000D03*
X7945000Y66660000D03*
X7945000Y64120000D03*
X7945000Y61580000D03*
X-7295000Y64120000D03*
X-7295000Y66660000D03*
X-7295000Y69200000D03*
X-7295000Y71740000D03*
X-7295000Y74280000D03*
X-7295000Y76820000D03*
X-7295000Y79360000D03*
X-7295000Y81900000D03*
X-7295000Y84440000D03*
X-7295000Y86980000D03*
D17*
X-7295000Y89520000D03*
D11*
X-19977393Y85040403D03*
X-19977393Y89540403D03*
X-13477393Y85040403D03*
X-13477393Y89540403D03*
D18*
X21775000Y92525000D03*
D19*
X19675000Y92525000D03*
X17675000Y92525000D03*
X15675000Y92525000D03*
D18*
X13575000Y92525000D03*
D11*
X-60978892Y38178456D03*
X-56180946Y35650668D03*
X-43210804Y34741786D03*
X-38412858Y32213998D03*
X45455608Y16516453D03*
X50828757Y15782104D03*
X51657048Y37376580D03*
X56821049Y35720350D03*
X-36177849Y13405581D03*
X-32533809Y9389243D03*
X67683825Y60653486D03*
X72847826Y58997256D03*
X30927466Y67726869D03*
X36091467Y66070639D03*
X64512311Y20993582D03*
X69801011Y19793726D03*
X27859061Y9345101D03*
X33278099Y9554946D03*
X-54460540Y19059812D03*
X-50174430Y15737273D03*
X-73696099Y22684361D03*
X-69136721Y19748024D03*
X87486998Y40829003D03*
X92650999Y39172773D03*
X69165471Y43718173D03*
X74329472Y42061943D03*
X33890766Y33856253D03*
X39054767Y32200023D03*
X-78485512Y44603707D03*
X-73687566Y42075919D03*
X-96807038Y41714539D03*
X-92009092Y39186751D03*
X-115804458Y31099881D03*
X-111006512Y28572093D03*
X86004914Y57769293D03*
X91168915Y56113063D03*
X50176768Y54233214D03*
X55340769Y52576984D03*
X-41729156Y51677096D03*
X-36931210Y49149308D03*
D20*
X2825000Y53050000D03*
D13*
G36*
X-1050496Y54198796D02*
G01*
X-1026227Y54195196D01*
X-1002429Y54189235D01*
X-979329Y54180970D01*
X-957151Y54170480D01*
X-936107Y54157867D01*
X-916402Y54143253D01*
X-898223Y54126777D01*
X-881747Y54108598D01*
X-867133Y54088893D01*
X-854520Y54067849D01*
X-844030Y54045671D01*
X-835765Y54022571D01*
X-829804Y53998773D01*
X-826204Y53974504D01*
X-825000Y53950000D01*
X-825000Y52150000D01*
X-826204Y52125496D01*
X-829804Y52101227D01*
X-835765Y52077429D01*
X-844030Y52054329D01*
X-854520Y52032151D01*
X-867133Y52011107D01*
X-881747Y51991402D01*
X-898223Y51973223D01*
X-916402Y51956747D01*
X-936107Y51942133D01*
X-957151Y51929520D01*
X-979329Y51919030D01*
X-1002429Y51910765D01*
X-1026227Y51904804D01*
X-1050496Y51901204D01*
X-1075000Y51900000D01*
X-2875000Y51900000D01*
X-2899504Y51901204D01*
X-2923773Y51904804D01*
X-2947571Y51910765D01*
X-2970671Y51919030D01*
X-2992849Y51929520D01*
X-3013893Y51942133D01*
X-3033598Y51956747D01*
X-3051777Y51973223D01*
X-3068253Y51991402D01*
X-3082867Y52011107D01*
X-3095480Y52032151D01*
X-3105970Y52054329D01*
X-3114235Y52077429D01*
X-3120196Y52101227D01*
X-3123796Y52125496D01*
X-3125000Y52150000D01*
X-3125000Y53950000D01*
X-3123796Y53974504D01*
X-3120196Y53998773D01*
X-3114235Y54022571D01*
X-3105970Y54045671D01*
X-3095480Y54067849D01*
X-3082867Y54088893D01*
X-3068253Y54108598D01*
X-3051777Y54126777D01*
X-3033598Y54143253D01*
X-3013893Y54157867D01*
X-2992849Y54170480D01*
X-2970671Y54180970D01*
X-2947571Y54189235D01*
X-2923773Y54195196D01*
X-2899504Y54198796D01*
X-2875000Y54200000D01*
X-1075000Y54200000D01*
X-1050496Y54198796D01*
X-1050496Y54198796D01*
G37*
D20*
X-1975000Y53050000D03*
D21*
X-32596472Y26209642D03*
D22*
X-11246485Y91771311D02*
X2828689Y91771311D01*
X-13477393Y89540403D02*
X-11246485Y91771311D01*
X2828689Y91771311D02*
X7675000Y86925000D01*
X94031351Y85218086D02*
X107074586Y74273512D01*
X90620589Y85739683D02*
X94031351Y86038086D01*
X107074586Y74273512D02*
X107095662Y74032603D01*
X55194809Y81093012D02*
X55103295Y82139017D01*
X40855193Y81268903D02*
X51281086Y82181050D01*
X38138420Y78031179D02*
X40855193Y81268903D01*
X37092416Y77939665D02*
X38138420Y78031179D01*
X51281086Y82181050D02*
X52687276Y81001117D01*
X55103295Y82139017D02*
X61389278Y88425000D01*
X61389278Y88425000D02*
X66450000Y88425000D01*
X66450000Y88425000D02*
X68525000Y86350000D01*
X94031351Y86038086D02*
X94031351Y85218086D01*
X-96577116Y86147487D02*
X-90014212Y85573307D01*
X-106046336Y78201868D02*
X-96577116Y86147487D01*
X-106410773Y74036336D02*
X-106046336Y78201868D01*
X-90014212Y85573307D02*
X-88815636Y84144901D01*
X-66596446Y86830623D02*
X-56597237Y85955805D01*
X-66897611Y86577915D02*
X-66596446Y86830623D01*
X-67943615Y86669429D02*
X-66897611Y86577915D01*
X-56597237Y85955805D02*
X-52609254Y81203112D01*
X-51605619Y81138371D02*
X-36466883Y79813904D01*
X-36466883Y79813904D02*
X-34923355Y77974398D01*
X-86140101Y84857933D02*
X-81891427Y88422994D01*
X-86231615Y83811928D02*
X-86140101Y84857933D01*
X-80923193Y89235439D02*
X-71711161Y88429491D01*
X-81891427Y88422994D02*
X-80923193Y89235439D01*
X-71711161Y88429491D02*
X-70498469Y86984259D01*
X34601930Y77721776D02*
X34421776Y77721776D01*
X25849990Y75896745D02*
X25849990Y47625020D01*
X33373361Y78770191D02*
X28723436Y78770191D01*
X28723436Y78770191D02*
X25849990Y75896745D01*
X34421776Y77721776D02*
X33373361Y78770191D01*
X25849990Y47625020D02*
X13771328Y47625020D01*
X13771328Y47625020D02*
X-4819653Y66216001D01*
X-4819653Y68946579D02*
X-7075000Y71201926D01*
X-4819653Y66216001D02*
X-4819653Y68946579D01*
X-7075000Y71201926D02*
X-7075000Y71550000D01*
X-7075000Y71550000D02*
X-7200000Y71675000D01*
X73238061Y88650000D02*
X85000000Y88650000D01*
X71080261Y86492200D02*
X73238061Y88650000D01*
X85000000Y88650000D02*
X87900000Y85750000D01*
X-110813948Y68455296D02*
X-107953055Y65045817D01*
X-110295932Y74376243D02*
X-110813948Y68455296D01*
X-107953055Y65045817D02*
X-108234626Y61827453D01*
X-90539525Y83335575D02*
X-91212517Y75643242D01*
X-91312208Y84256423D02*
X-90539525Y83335575D01*
X-91511447Y84273854D02*
X-91312208Y84256423D01*
X-91212517Y75643242D02*
X-89374630Y73452934D01*
X-72179739Y84952458D02*
X-72740290Y78545324D01*
X-73297529Y86284589D02*
X-72179739Y84952458D01*
X-73223447Y87131354D02*
X-73297529Y86284589D01*
X-72740290Y78545324D02*
X-70924221Y76381017D01*
X-54737917Y78820953D02*
X-55333054Y72018501D01*
X-56630171Y81076053D02*
X-54737917Y78820953D01*
X-56586593Y81574150D02*
X-56630171Y81076053D01*
X-55333054Y72018501D02*
X-53139594Y69404437D01*
X-37715433Y78059243D02*
X-38441207Y69763603D01*
X-38441207Y69763603D02*
X-35701502Y66498549D01*
X31812584Y77477740D02*
X32560035Y68934334D01*
X32560035Y68934334D02*
X35884122Y66145094D01*
X49246328Y75652693D02*
X53602480Y71997447D01*
X48819163Y80535215D02*
X49246328Y75652693D01*
X53602480Y71997447D02*
X53821052Y69499163D01*
X64704616Y85934404D02*
X64748194Y85436307D01*
X65800429Y83411552D02*
X71300000Y77911981D01*
X65800429Y86030275D02*
X65800429Y83411552D01*
X71300000Y77911981D02*
X71300000Y75800000D01*
X86575014Y81945193D02*
X87179530Y75035547D01*
X84288521Y83863789D02*
X86575014Y81945193D01*
X84244943Y85181886D02*
X84288521Y84683789D01*
X87179530Y75035547D02*
X89454494Y73126626D01*
X84288521Y84683789D02*
X84288521Y83863789D01*
X105573305Y71320582D02*
X106159605Y64619132D01*
X103338520Y73195789D02*
X105573305Y71320582D01*
X103294943Y73693886D02*
X103338520Y73195789D01*
X106159605Y64619132D02*
X108746574Y62448408D01*
X108746574Y62448408D02*
X108873090Y62459477D01*
X95571938Y68233317D02*
X108693819Y57222752D01*
X92194102Y67937795D02*
X95571938Y68233317D01*
X108693819Y57222752D02*
X108694327Y57216947D01*
X73793089Y70822683D02*
X84895484Y71794017D01*
X84895484Y71794017D02*
X89528763Y67906234D01*
X61734822Y71198166D02*
X69814418Y71905039D01*
X56053863Y64427863D02*
X61734822Y71198166D01*
X54858430Y64323276D02*
X56053863Y64427863D01*
X69814418Y71905039D02*
X71313566Y70647105D01*
X38445088Y61998799D02*
X40545074Y64501464D01*
X40545074Y64501464D02*
X52141419Y65516013D01*
X38536602Y60952794D02*
X38445088Y61998799D01*
X52141419Y65516013D02*
X53642288Y64256634D01*
X-53117959Y64224965D02*
X-37791600Y62884082D01*
X-37791600Y62884082D02*
X-36185216Y60969669D01*
X-69188115Y70521429D02*
X-58632653Y69597946D01*
X-58632653Y69597946D02*
X-54211068Y64328507D01*
X-77515634Y72680437D02*
X-72778946Y72266030D01*
X-83893267Y67328967D02*
X-77515634Y72680437D01*
X-87565260Y67650225D02*
X-83893267Y67328967D01*
X-72778946Y72266030D02*
X-71629901Y70896652D01*
X-95892780Y69809233D02*
X-91361382Y69412787D01*
X-106158738Y61195072D02*
X-95892780Y69809233D01*
X-106526115Y56995929D02*
X-106158738Y61195072D01*
X-91361382Y69412787D02*
X-90223202Y68056356D01*
X30167622Y61783320D02*
X26600000Y58215698D01*
X34997701Y61783320D02*
X30167622Y61783320D01*
X36046116Y60734905D02*
X34997701Y61783320D01*
X26600000Y58215698D02*
X26600000Y47475000D01*
X26600000Y47475000D02*
X26600000Y46875010D01*
X26600000Y46875010D02*
X13460664Y46875010D01*
X13460664Y46875010D02*
X-5569663Y65905337D01*
X-5569663Y68194663D02*
X-6550000Y69175000D01*
X-5569663Y65905337D02*
X-5569663Y68194663D01*
X-6550000Y69175000D02*
X-7075000Y69175000D01*
X-111046400Y54792561D02*
X-111657264Y47810360D01*
X-112945339Y57055628D02*
X-111046400Y54792561D01*
X-112901761Y57553725D02*
X-112945339Y57055628D01*
X-111657264Y47810360D02*
X-109781967Y45575469D01*
X-109781967Y45575469D02*
X-109779788Y45600373D01*
X-92845092Y68112151D02*
X-93547593Y60082529D01*
X-93547593Y60082529D02*
X-90441610Y56380965D01*
X-73723939Y68336580D02*
X-74347470Y61209586D01*
X-75607339Y70581129D02*
X-73723939Y68336580D01*
X-75563761Y71079226D02*
X-75607339Y70581129D01*
X-74347470Y61209586D02*
X-72585803Y59110113D01*
X-56220728Y61872356D02*
X-56795093Y55307336D01*
X-58142510Y64162646D02*
X-56220728Y61872356D01*
X-58098932Y64660744D02*
X-58142510Y64162646D01*
X-56795093Y55307336D02*
X-54760714Y52882857D01*
X-54760714Y52882857D02*
X-54767251Y52808143D01*
X-39175932Y61104743D02*
X-39926151Y52529704D01*
X-39926151Y52529704D02*
X-37138940Y49208035D01*
X33256770Y60490869D02*
X33986885Y52145619D01*
X33986885Y52145619D02*
X37493856Y49202921D01*
X52230462Y61451560D02*
X52838871Y54497406D01*
X49921034Y63389400D02*
X52230462Y61451560D01*
X49877456Y63887497D02*
X49921034Y63389400D01*
X52838871Y54497406D02*
X55315337Y52419405D01*
X69738958Y67855372D02*
X70335731Y61034232D01*
X67461021Y69766789D02*
X69738958Y67855372D01*
X67417443Y70264887D02*
X67461021Y69766789D01*
X70335731Y61034232D02*
X72711444Y59040772D01*
X88053782Y65042806D02*
X88651678Y58208822D01*
X85862034Y66881900D02*
X88053782Y65042806D01*
X85818456Y67379998D02*
X85862034Y66881900D01*
X88651678Y58208822D02*
X91201812Y56069005D01*
X107051108Y54429220D02*
X107653892Y47539373D01*
X104848533Y56277400D02*
X107051108Y54429220D01*
X104804955Y56775497D02*
X104848533Y56277400D01*
X107653892Y47539373D02*
X110103273Y45484098D01*
X41057093Y44139603D02*
X44139425Y47812984D01*
X44139425Y47812984D02*
X53917782Y48668479D01*
X40011089Y44048090D02*
X41057093Y44139603D01*
X53917782Y48668479D02*
X55367470Y47452047D01*
X62351171Y54169035D02*
X71297687Y54951754D01*
X57697248Y48622706D02*
X62351171Y54169035D01*
X57788761Y47576701D02*
X57697248Y48622706D01*
X71297687Y54951754D02*
X72796783Y53693863D01*
X72828929Y53655276D02*
X86252235Y54829663D01*
X86252235Y54829663D02*
X91023048Y50826476D01*
X97033085Y51310595D02*
X109900731Y40513358D01*
X93605089Y51010684D02*
X97033085Y51310595D01*
X109900731Y40513358D02*
X109902372Y40494601D01*
X-107631634Y44254544D02*
X-97339293Y52890843D01*
X-107998273Y40063836D02*
X-107631634Y44254544D01*
X-83702513Y56156050D02*
X-74508979Y55351721D01*
X-88920260Y51777840D02*
X-83702513Y56156050D01*
X-89011773Y50731835D02*
X-88920260Y51777840D01*
X-74508979Y55351721D02*
X-73201515Y53793544D01*
X-60382302Y52685351D02*
X-56029558Y47497953D01*
X-70657946Y53584354D02*
X-60382302Y52685351D01*
X-56029558Y47497953D02*
X-55885418Y47485342D01*
X-53197774Y47175836D02*
X-53151428Y47171781D01*
X-53151428Y47171781D02*
X-39555193Y45982265D01*
X-39555193Y45982265D02*
X-37986269Y44112494D01*
X-97339293Y52890843D02*
X-92910946Y52503413D01*
X-92910946Y52503413D02*
X-91800111Y51179572D01*
X35225803Y46125000D02*
X13150000Y46125000D01*
X37520603Y43830200D02*
X35225803Y46125000D01*
X13150000Y46125000D02*
X-7475000Y66750000D01*
X-114417497Y40123535D02*
X-112526897Y37870406D01*
X-112526897Y37870406D02*
X-113149806Y30750526D01*
X-114373919Y40621633D02*
X-114417497Y40123535D01*
X-113149806Y30750526D02*
X-111274509Y28515634D01*
X-93526282Y48521584D02*
X-94133212Y41584346D01*
X-95430997Y50791535D02*
X-93526282Y48521584D01*
X-95387419Y51289632D02*
X-95430997Y50791535D01*
X-94133212Y41584346D02*
X-92167012Y39241120D01*
X-75937778Y54046279D02*
X-76666872Y45712698D01*
X-76666872Y45712698D02*
X-73737150Y42221191D01*
X-58477606Y47637762D02*
X-59214534Y39214630D01*
X-59214534Y39214630D02*
X-56264150Y35698499D01*
X-40695278Y44203779D02*
X-41418512Y35937180D01*
X-41418512Y35937180D02*
X-38617166Y32598667D01*
X34731257Y43586164D02*
X35465263Y35196438D01*
X35465263Y35196438D02*
X38839487Y32365128D01*
X52508930Y47114776D02*
X53246797Y38680898D01*
X53246797Y38680898D02*
X56776416Y35719197D01*
X70039584Y53411240D02*
X70768504Y45079646D01*
X70768504Y45079646D02*
X74321177Y42098600D01*
X89540253Y48052356D02*
X90145963Y41129064D01*
X87273021Y49954790D02*
X89540253Y48052356D01*
X87229443Y50452888D02*
X87273021Y49954790D01*
X90145963Y41129064D02*
X92558512Y39104695D01*
X108539880Y37412466D02*
X109137107Y30586132D01*
X106273508Y39314178D02*
X108539880Y37412466D01*
X106229930Y39812275D02*
X106273508Y39314178D01*
X109137107Y30586132D02*
X111586490Y28530856D01*
X34955750Y26736445D02*
X46445166Y27741639D01*
X30136698Y20993323D02*
X34955750Y26736445D01*
X46445166Y27741639D02*
X47341342Y26989658D01*
X51486083Y30908089D02*
X66276820Y32202111D01*
X48402039Y27232669D02*
X51486083Y30908089D01*
X66276820Y32202111D02*
X67225057Y31406445D01*
X67225057Y31406445D02*
X67362643Y31290997D01*
X-62054299Y33469662D02*
X-49976574Y32412998D01*
X-65116683Y30900016D02*
X-62054299Y33469662D01*
X-49976574Y32412998D02*
X-47613073Y29596287D01*
X-47613073Y29596287D02*
X-47802637Y27429563D01*
X-32596472Y26209642D02*
X-28146385Y20906234D01*
X-44381881Y27240731D02*
X-32596472Y26209642D01*
X-45206618Y26548694D02*
X-44381881Y27240731D01*
X-28146385Y20906234D02*
X-28167271Y20667497D01*
X-71105174Y31636821D02*
X-71866022Y22940294D01*
X-71419453Y32011364D02*
X-71105174Y31636821D01*
X-71866022Y22940294D02*
X-69179311Y19738396D01*
X-51044099Y27794644D02*
X-51921777Y17762731D01*
X-51388543Y28205136D02*
X-51044099Y27794644D01*
X-51921777Y17762731D02*
X-50252831Y15773758D01*
X-33138884Y19489215D02*
X-33892162Y10879207D01*
X-30665764Y21564409D02*
X-33138884Y19489215D01*
X-33892162Y10879207D02*
X-32687685Y9443767D01*
X25564907Y16105788D02*
X33308870Y9607831D01*
X25333267Y18753446D02*
X25564907Y16105788D01*
X33308870Y9607831D02*
X33218542Y9599929D01*
X46704915Y24486351D02*
X47204012Y18781638D01*
X44634929Y26223275D02*
X46704915Y24486351D01*
X47204012Y18781638D02*
X50603764Y15928907D01*
X66210789Y28253757D02*
X66729325Y22326872D01*
X63459890Y30562036D02*
X66210789Y28253757D01*
X66729325Y22326872D02*
X69772654Y19773215D01*
X-8910708Y91021301D02*
X1303699Y91021301D01*
X-13477393Y86454616D02*
X-8910708Y91021301D01*
X-13477393Y85040403D02*
X-13477393Y86454616D01*
X1303699Y91021301D02*
X7950000Y84375000D01*
X21642497Y14552221D02*
X26919718Y9275000D01*
X21642497Y21607984D02*
X21642497Y14552221D01*
X33890766Y33856253D02*
X21642497Y21607984D01*
X26919718Y9275000D02*
X27900000Y9275000D01*
M02*
