M48
; DRILL file {KiCad (5.1.4-0)} date 2020 October 31, Saturday 16:51:14
; FORMAT={-:-/ absolute / inch / decimal}
; #@! TF.CreationDate,2020-10-31T16:51:14+08:00
; #@! TF.GenerationSoftware,Kicad,Pcbnew,(5.1.4-0)
; #@! TF.FileFunction,NonPlated,1,2,NPTH
FMAT,2
INCH
T1C0.0472
T2C0.0669
T3C0.1339
%
G90
G05
T1
X-1.9725Y1.7818
X-4.0143Y2.8368
X3.7011Y3.29
X2.3488Y2.484
X2.0967Y1.0586
X-0.9266Y0.6432
X-1.1563Y2.98
X1.3284Y0.8234
X-4.0726Y2.17
X-3.383Y1.921
X-2.4505Y1.1334
X3.7594Y2.6232
X4.5073Y2.2053
X1.591Y3.0152
X4.449Y2.8721
X-2.6034Y2.7015
X3.0964Y2.07
X2.2905Y3.1507
X4.5657Y1.5384
X3.0381Y2.7368
X-1.2729Y1.6465
X-3.2663Y3.2547
X-3.3247Y2.5879
X-1.8558Y3.1155
X-1.9141Y2.4487
X2.4071Y1.8203
X-2.6617Y2.0347
X2.8814Y1.2066
X-1.6739Y0.9505
X-4.1309Y1.5031
X-1.2146Y2.3132
X-2.5419Y3.3631
X3.8178Y1.9563
X2.9798Y3.4031
X1.6493Y2.3485
X1.7077Y1.6818
T2
X-3.7012Y3.1267
X-3.2698Y3.089
X-3.7595Y2.46
X-3.3281Y2.4223
X2.0011Y1.6188
X2.4325Y1.6566
X-3.0966Y1.9068
X-2.6651Y1.8691
X-2.2906Y2.9875
X-1.8592Y2.9498
X-2.349Y2.3208
X-1.9175Y2.283
X-2.1244Y0.9
X-1.7061Y0.7879
X-1.6495Y2.1853
X-1.218Y2.1475
X-2.9768Y3.2352
X-2.5453Y3.1974
X1.2433Y2.147
X-4.5658Y1.3752
X-4.1344Y1.3374
X1.6747Y2.1847
X3.4117Y1.7548
X3.8431Y1.7925
X2.5738Y3.2016
X3.0052Y3.2394
X-4.4491Y2.7088
X-4.0177Y2.6711
X1.7331Y1.518
X-4.5075Y2.0421
X-4.076Y2.0044
X1.3016Y1.4802
X3.295Y3.0884
X3.7265Y3.1262
X1.9428Y2.2825
X2.3742Y2.3202
X-2.4073Y1.6538
X-1.9759Y1.6161
X1.7319Y0.7897
X2.1502Y0.9018
X-1.3789Y0.6717
X-0.9864Y0.4887
X-3.8179Y1.7931
X-3.3864Y1.7553
X-1.5911Y2.852
X-1.1597Y2.8143
X1.0157Y0.4952
X1.4082Y0.6782
X-3.0382Y2.5735
X-2.6068Y2.5358
X3.3534Y2.4217
X3.7848Y2.4594
X4.1013Y2.0038
X4.5327Y2.0415
X4.4744Y2.7083
X1.185Y2.8137
X1.6164Y2.8515
X2.6904Y1.8685
X3.1218Y1.9063
X4.043Y2.6705
X-2.8948Y1.0438
X-2.4683Y0.9686
X1.8845Y2.9492
X2.3159Y2.987
X4.1597Y1.3369
X4.5911Y1.3746
X2.6321Y2.5353
X3.0635Y2.573
X2.4945Y0.9704
X2.921Y1.0456
X-1.7078Y1.5185
X-1.2764Y1.4808
T3
X3.5107Y3.1073
X2.1585Y2.3014
X1.212Y0.5867
X-4.2917Y2.0232
X-2.1916Y1.635
X-4.2334Y2.69
X-2.6816Y1.0062
X4.2587Y2.6894
X1.941Y0.8457
X-2.8225Y2.5547
X-1.1827Y0.5802
X-3.6022Y1.7742
X1.4007Y2.8326
X3.5691Y2.4406
X4.317Y2.0227
X2.9061Y1.8874
X2.1002Y2.9681
X4.3754Y1.3557
X2.8478Y2.5541
X-1.4921Y1.4997
X-3.4855Y3.1079
X-3.5438Y2.4411
X-2.1333Y2.3019
X2.2168Y1.6377
X2.7077Y1.008
X-2.0749Y2.9687
X-1.9153Y0.8439
X-2.8808Y1.8879
X-4.3501Y1.3563
X-2.7611Y3.2163
X1.459Y2.1659
X3.6274Y1.7736
X-1.4337Y2.1664
X2.7895Y3.2205
X1.5173Y1.4991
X-1.3754Y2.8332
T0
M30
