G04 #@! TF.GenerationSoftware,KiCad,Pcbnew,(5.1.4-0)*
G04 #@! TF.CreationDate,2021-07-03T08:26:25+10:00*
G04 #@! TF.ProjectId,ahokore,61686f6b-6f72-4652-9e6b-696361645f70,rev?*
G04 #@! TF.SameCoordinates,Original*
G04 #@! TF.FileFunction,Copper,L1,Top*
G04 #@! TF.FilePolarity,Positive*
%FSLAX46Y46*%
G04 Gerber Fmt 4.6, Leading zero omitted, Abs format (unit mm)*
G04 Created by KiCad (PCBNEW (5.1.4-0)) date 2021-07-03 08:26:25*
%MOMM*%
%LPD*%
G04 APERTURE LIST*
%ADD10C,3.800000*%
%ADD11C,0.254000*%
G04 APERTURE END LIST*
D10*
X250000000Y-75000000D03*
X97500000Y-67500000D03*
X190000000Y-88000000D03*
X10000000Y-75000000D03*
X162500000Y-67500000D03*
X242000000Y-13500000D03*
X70000000Y-88000000D03*
X170000000Y-6000000D03*
X90000000Y-6000000D03*
X18000000Y-13500000D03*
D11*
G36*
X240578981Y-642189D02*
G01*
X242282314Y-870975D01*
X243958563Y-1250272D01*
X245594479Y-1777082D01*
X247177072Y-2447223D01*
X248693829Y-3255396D01*
X250132751Y-4195208D01*
X251482418Y-5259200D01*
X252732163Y-6438962D01*
X253872086Y-7725146D01*
X254893162Y-9107573D01*
X255787310Y-10575301D01*
X256547443Y-12116698D01*
X257167547Y-13719570D01*
X257642706Y-15371207D01*
X257970132Y-17063548D01*
X258104394Y-18206369D01*
X262095770Y-63817140D01*
X262169925Y-65549440D01*
X262090501Y-67266239D01*
X261858777Y-68969178D01*
X261476585Y-70644790D01*
X260946960Y-72279776D01*
X260274088Y-73861215D01*
X259463299Y-75376578D01*
X258521012Y-76813871D01*
X257454697Y-78161697D01*
X256272768Y-79409421D01*
X254984620Y-80547123D01*
X253600440Y-81565809D01*
X252131174Y-82457423D01*
X250588472Y-83214896D01*
X248984540Y-83832232D01*
X247332075Y-84304545D01*
X245643440Y-84628233D01*
X244001429Y-84797193D01*
X241462880Y-84962473D01*
X241461793Y-84962557D01*
X241460776Y-84962614D01*
X241451238Y-84963331D01*
X234998016Y-85494058D01*
X234994401Y-85494400D01*
X234990869Y-85494684D01*
X234981523Y-85495617D01*
X234981353Y-85495633D01*
X234981281Y-85495642D01*
X228543023Y-86183868D01*
X228539390Y-86184301D01*
X228535894Y-86184669D01*
X228526592Y-86185827D01*
X228526403Y-86185850D01*
X228526323Y-86185862D01*
X222106810Y-87031183D01*
X222103242Y-87031697D01*
X222099703Y-87032157D01*
X222090244Y-87033570D01*
X215693220Y-88035494D01*
X215689635Y-88036100D01*
X215686139Y-88036642D01*
X215676717Y-88038286D01*
X209306083Y-89196205D01*
X209302549Y-89196892D01*
X209299032Y-89197525D01*
X209289690Y-89199392D01*
X209289653Y-89199399D01*
X209289637Y-89199403D01*
X202949211Y-90512620D01*
X202945667Y-90513399D01*
X202942195Y-90514112D01*
X202933045Y-90516174D01*
X202932864Y-90516214D01*
X202932787Y-90516233D01*
X196626399Y-91983955D01*
X196622884Y-91984818D01*
X196619421Y-91985618D01*
X196610280Y-91987914D01*
X196610145Y-91987947D01*
X196610088Y-91987962D01*
X190341423Y-93609331D01*
X190338001Y-93610261D01*
X190334487Y-93611163D01*
X190325271Y-93613719D01*
X184098034Y-95387776D01*
X184098023Y-95387779D01*
X179003274Y-96829597D01*
X173878298Y-98126562D01*
X168719162Y-99279913D01*
X163529829Y-100288762D01*
X158314335Y-101152326D01*
X153076747Y-101869930D01*
X147821216Y-102441009D01*
X142551737Y-102865123D01*
X137272508Y-103141940D01*
X131987590Y-103271243D01*
X126701129Y-103252933D01*
X121417193Y-103087021D01*
X116140036Y-102773644D01*
X110873608Y-102313035D01*
X105622147Y-101705564D01*
X100389700Y-100951700D01*
X95180266Y-100052020D01*
X89998096Y-99007258D01*
X84847007Y-97818182D01*
X79730056Y-96485464D01*
X75904995Y-95388645D01*
X73453569Y-94670628D01*
X73452533Y-94670338D01*
X73451545Y-94670039D01*
X73442339Y-94667443D01*
X67198278Y-92953538D01*
X67194751Y-92952616D01*
X67191350Y-92951676D01*
X67182263Y-92949352D01*
X67182085Y-92949305D01*
X67182008Y-92949287D01*
X60898014Y-91388469D01*
X60894541Y-91387651D01*
X60891044Y-91386776D01*
X60881859Y-91384664D01*
X60881722Y-91384632D01*
X60881661Y-91384619D01*
X54561393Y-89977796D01*
X54557885Y-89977060D01*
X54554383Y-89976274D01*
X54545050Y-89974367D01*
X54545013Y-89974359D01*
X54544997Y-89974356D01*
X48192197Y-88722361D01*
X48188653Y-88721707D01*
X48185152Y-88721011D01*
X48175920Y-88719359D01*
X48175737Y-88719325D01*
X48175658Y-88719312D01*
X42535796Y-87750324D01*
X67465000Y-87750324D01*
X67465000Y-88249676D01*
X67562418Y-88739432D01*
X67753512Y-89200773D01*
X68030937Y-89615968D01*
X68384032Y-89969063D01*
X68799227Y-90246488D01*
X69260568Y-90437582D01*
X69750324Y-90535000D01*
X70249676Y-90535000D01*
X70739432Y-90437582D01*
X71200773Y-90246488D01*
X71615968Y-89969063D01*
X71969063Y-89615968D01*
X72246488Y-89200773D01*
X72437582Y-88739432D01*
X72535000Y-88249676D01*
X72535000Y-87750324D01*
X187465000Y-87750324D01*
X187465000Y-88249676D01*
X187562418Y-88739432D01*
X187753512Y-89200773D01*
X188030937Y-89615968D01*
X188384032Y-89969063D01*
X188799227Y-90246488D01*
X189260568Y-90437582D01*
X189750324Y-90535000D01*
X190249676Y-90535000D01*
X190739432Y-90437582D01*
X191200773Y-90246488D01*
X191615968Y-89969063D01*
X191969063Y-89615968D01*
X192246488Y-89200773D01*
X192437582Y-88739432D01*
X192535000Y-88249676D01*
X192535000Y-87750324D01*
X192437582Y-87260568D01*
X192246488Y-86799227D01*
X191969063Y-86384032D01*
X191615968Y-86030937D01*
X191200773Y-85753512D01*
X190739432Y-85562418D01*
X190249676Y-85465000D01*
X189750324Y-85465000D01*
X189260568Y-85562418D01*
X188799227Y-85753512D01*
X188384032Y-86030937D01*
X188030937Y-86384032D01*
X187753512Y-86799227D01*
X187562418Y-87260568D01*
X187465000Y-87750324D01*
X72535000Y-87750324D01*
X72437582Y-87260568D01*
X72246488Y-86799227D01*
X71969063Y-86384032D01*
X71615968Y-86030937D01*
X71200773Y-85753512D01*
X70739432Y-85562418D01*
X70249676Y-85465000D01*
X69750324Y-85465000D01*
X69260568Y-85562418D01*
X68799227Y-85753512D01*
X68384032Y-86030937D01*
X68030937Y-86384032D01*
X67753512Y-86799227D01*
X67562418Y-87260568D01*
X67465000Y-87750324D01*
X42535796Y-87750324D01*
X41794229Y-87622915D01*
X41790704Y-87622353D01*
X41787153Y-87621737D01*
X41777700Y-87620282D01*
X35371310Y-86680113D01*
X35367725Y-86679631D01*
X35364207Y-86679109D01*
X35354883Y-86677907D01*
X35354721Y-86677885D01*
X35354650Y-86677877D01*
X28927272Y-85894519D01*
X28923718Y-85894130D01*
X28920147Y-85893688D01*
X28910820Y-85892716D01*
X28910635Y-85892696D01*
X28910554Y-85892689D01*
X22465965Y-85266601D01*
X22462375Y-85266296D01*
X22458821Y-85265945D01*
X22449287Y-85265186D01*
X16002306Y-84797536D01*
X14273710Y-84615889D01*
X12587221Y-84285048D01*
X10936816Y-83805597D01*
X9335564Y-83181331D01*
X7796155Y-82417202D01*
X6330752Y-81519242D01*
X4950987Y-80494582D01*
X3667769Y-79351323D01*
X2491249Y-78098508D01*
X1430763Y-76746075D01*
X494700Y-75304729D01*
X201144Y-74750324D01*
X7465000Y-74750324D01*
X7465000Y-75249676D01*
X7562418Y-75739432D01*
X7753512Y-76200773D01*
X8030937Y-76615968D01*
X8384032Y-76969063D01*
X8799227Y-77246488D01*
X9260568Y-77437582D01*
X9750324Y-77535000D01*
X10249676Y-77535000D01*
X10739432Y-77437582D01*
X11200773Y-77246488D01*
X11615968Y-76969063D01*
X11969063Y-76615968D01*
X12246488Y-76200773D01*
X12437582Y-75739432D01*
X12535000Y-75249676D01*
X12535000Y-74750324D01*
X247465000Y-74750324D01*
X247465000Y-75249676D01*
X247562418Y-75739432D01*
X247753512Y-76200773D01*
X248030937Y-76615968D01*
X248384032Y-76969063D01*
X248799227Y-77246488D01*
X249260568Y-77437582D01*
X249750324Y-77535000D01*
X250249676Y-77535000D01*
X250739432Y-77437582D01*
X251200773Y-77246488D01*
X251615968Y-76969063D01*
X251969063Y-76615968D01*
X252246488Y-76200773D01*
X252437582Y-75739432D01*
X252535000Y-75249676D01*
X252535000Y-74750324D01*
X252437582Y-74260568D01*
X252246488Y-73799227D01*
X251969063Y-73384032D01*
X251615968Y-73030937D01*
X251200773Y-72753512D01*
X250739432Y-72562418D01*
X250249676Y-72465000D01*
X249750324Y-72465000D01*
X249260568Y-72562418D01*
X248799227Y-72753512D01*
X248384032Y-73030937D01*
X248030937Y-73384032D01*
X247753512Y-73799227D01*
X247562418Y-74260568D01*
X247465000Y-74750324D01*
X12535000Y-74750324D01*
X12437582Y-74260568D01*
X12246488Y-73799227D01*
X11969063Y-73384032D01*
X11615968Y-73030937D01*
X11200773Y-72753512D01*
X10739432Y-72562418D01*
X10249676Y-72465000D01*
X9750324Y-72465000D01*
X9260568Y-72562418D01*
X8799227Y-72753512D01*
X8384032Y-73030937D01*
X8030937Y-73384032D01*
X7753512Y-73799227D01*
X7562418Y-74260568D01*
X7465000Y-74750324D01*
X201144Y-74750324D01*
X-309530Y-73785877D01*
X-975561Y-72201542D01*
X-1498115Y-70564275D01*
X-1873057Y-68887040D01*
X-2088568Y-67250324D01*
X94965000Y-67250324D01*
X94965000Y-67749676D01*
X95062418Y-68239432D01*
X95253512Y-68700773D01*
X95530937Y-69115968D01*
X95884032Y-69469063D01*
X96299227Y-69746488D01*
X96760568Y-69937582D01*
X97250324Y-70035000D01*
X97749676Y-70035000D01*
X98239432Y-69937582D01*
X98700773Y-69746488D01*
X99115968Y-69469063D01*
X99469063Y-69115968D01*
X99746488Y-68700773D01*
X99937582Y-68239432D01*
X100035000Y-67749676D01*
X100035000Y-67250324D01*
X159965000Y-67250324D01*
X159965000Y-67749676D01*
X160062418Y-68239432D01*
X160253512Y-68700773D01*
X160530937Y-69115968D01*
X160884032Y-69469063D01*
X161299227Y-69746488D01*
X161760568Y-69937582D01*
X162250324Y-70035000D01*
X162749676Y-70035000D01*
X163239432Y-69937582D01*
X163700773Y-69746488D01*
X164115968Y-69469063D01*
X164469063Y-69115968D01*
X164746488Y-68700773D01*
X164937582Y-68239432D01*
X165035000Y-67749676D01*
X165035000Y-67250324D01*
X164937582Y-66760568D01*
X164746488Y-66299227D01*
X164469063Y-65884032D01*
X164115968Y-65530937D01*
X163700773Y-65253512D01*
X163239432Y-65062418D01*
X162749676Y-64965000D01*
X162250324Y-64965000D01*
X161760568Y-65062418D01*
X161299227Y-65253512D01*
X160884032Y-65530937D01*
X160530937Y-65884032D01*
X160253512Y-66299227D01*
X160062418Y-66760568D01*
X159965000Y-67250324D01*
X100035000Y-67250324D01*
X99937582Y-66760568D01*
X99746488Y-66299227D01*
X99469063Y-65884032D01*
X99115968Y-65530937D01*
X98700773Y-65253512D01*
X98239432Y-65062418D01*
X97749676Y-64965000D01*
X97250324Y-64965000D01*
X96760568Y-65062418D01*
X96299227Y-65253512D01*
X95884032Y-65530937D01*
X95530937Y-65884032D01*
X95253512Y-66299227D01*
X95062418Y-66760568D01*
X94965000Y-67250324D01*
X-2088568Y-67250324D01*
X-2097418Y-67183115D01*
X-2169453Y-65465240D01*
X-2095401Y-63818268D01*
X1894654Y-18211823D01*
X2122474Y-16492954D01*
X2498847Y-14816036D01*
X3000035Y-13250324D01*
X15465000Y-13250324D01*
X15465000Y-13749676D01*
X15562418Y-14239432D01*
X15753512Y-14700773D01*
X16030937Y-15115968D01*
X16384032Y-15469063D01*
X16799227Y-15746488D01*
X17260568Y-15937582D01*
X17750324Y-16035000D01*
X18249676Y-16035000D01*
X18739432Y-15937582D01*
X19200773Y-15746488D01*
X19615968Y-15469063D01*
X19969063Y-15115968D01*
X20246488Y-14700773D01*
X20437582Y-14239432D01*
X20535000Y-13749676D01*
X20535000Y-13250324D01*
X239465000Y-13250324D01*
X239465000Y-13749676D01*
X239562418Y-14239432D01*
X239753512Y-14700773D01*
X240030937Y-15115968D01*
X240384032Y-15469063D01*
X240799227Y-15746488D01*
X241260568Y-15937582D01*
X241750324Y-16035000D01*
X242249676Y-16035000D01*
X242739432Y-15937582D01*
X243200773Y-15746488D01*
X243615968Y-15469063D01*
X243969063Y-15115968D01*
X244246488Y-14700773D01*
X244437582Y-14239432D01*
X244535000Y-13749676D01*
X244535000Y-13250324D01*
X244437582Y-12760568D01*
X244246488Y-12299227D01*
X243969063Y-11884032D01*
X243615968Y-11530937D01*
X243200773Y-11253512D01*
X242739432Y-11062418D01*
X242249676Y-10965000D01*
X241750324Y-10965000D01*
X241260568Y-11062418D01*
X240799227Y-11253512D01*
X240384032Y-11530937D01*
X240030937Y-11884032D01*
X239753512Y-12299227D01*
X239562418Y-12760568D01*
X239465000Y-13250324D01*
X20535000Y-13250324D01*
X20437582Y-12760568D01*
X20246488Y-12299227D01*
X19969063Y-11884032D01*
X19615968Y-11530937D01*
X19200773Y-11253512D01*
X18739432Y-11062418D01*
X18249676Y-10965000D01*
X17750324Y-10965000D01*
X17260568Y-11062418D01*
X16799227Y-11253512D01*
X16384032Y-11530937D01*
X16030937Y-11884032D01*
X15753512Y-12299227D01*
X15562418Y-12760568D01*
X15465000Y-13250324D01*
X3000035Y-13250324D01*
X3022799Y-13179212D01*
X3690178Y-11595450D01*
X4495708Y-10077275D01*
X5432992Y-8636741D01*
X6494637Y-7285203D01*
X7672219Y-6033399D01*
X7990494Y-5750324D01*
X87465000Y-5750324D01*
X87465000Y-6249676D01*
X87562418Y-6739432D01*
X87753512Y-7200773D01*
X88030937Y-7615968D01*
X88384032Y-7969063D01*
X88799227Y-8246488D01*
X89260568Y-8437582D01*
X89750324Y-8535000D01*
X90249676Y-8535000D01*
X90739432Y-8437582D01*
X91200773Y-8246488D01*
X91615968Y-7969063D01*
X91969063Y-7615968D01*
X92246488Y-7200773D01*
X92437582Y-6739432D01*
X92535000Y-6249676D01*
X92535000Y-5750324D01*
X167465000Y-5750324D01*
X167465000Y-6249676D01*
X167562418Y-6739432D01*
X167753512Y-7200773D01*
X168030937Y-7615968D01*
X168384032Y-7969063D01*
X168799227Y-8246488D01*
X169260568Y-8437582D01*
X169750324Y-8535000D01*
X170249676Y-8535000D01*
X170739432Y-8437582D01*
X171200773Y-8246488D01*
X171615968Y-7969063D01*
X171969063Y-7615968D01*
X172246488Y-7200773D01*
X172437582Y-6739432D01*
X172535000Y-6249676D01*
X172535000Y-5750324D01*
X172437582Y-5260568D01*
X172246488Y-4799227D01*
X171969063Y-4384032D01*
X171615968Y-4030937D01*
X171200773Y-3753512D01*
X170739432Y-3562418D01*
X170249676Y-3465000D01*
X169750324Y-3465000D01*
X169260568Y-3562418D01*
X168799227Y-3753512D01*
X168384032Y-4030937D01*
X168030937Y-4384032D01*
X167753512Y-4799227D01*
X167562418Y-5260568D01*
X167465000Y-5750324D01*
X92535000Y-5750324D01*
X92437582Y-5260568D01*
X92246488Y-4799227D01*
X91969063Y-4384032D01*
X91615968Y-4030937D01*
X91200773Y-3753512D01*
X90739432Y-3562418D01*
X90249676Y-3465000D01*
X89750324Y-3465000D01*
X89260568Y-3562418D01*
X88799227Y-3753512D01*
X88384032Y-4030937D01*
X88030937Y-4384032D01*
X87753512Y-4799227D01*
X87562418Y-5260568D01*
X87465000Y-5750324D01*
X7990494Y-5750324D01*
X8956414Y-4891232D01*
X10337051Y-3867750D01*
X11803212Y-2971043D01*
X13343280Y-2208221D01*
X14945058Y-1585324D01*
X16595882Y-1107277D01*
X18282644Y-777876D01*
X19997085Y-599194D01*
X21147663Y-565046D01*
X238846810Y-565046D01*
X240578981Y-642189D01*
X240578981Y-642189D01*
G37*
X240578981Y-642189D02*
X242282314Y-870975D01*
X243958563Y-1250272D01*
X245594479Y-1777082D01*
X247177072Y-2447223D01*
X248693829Y-3255396D01*
X250132751Y-4195208D01*
X251482418Y-5259200D01*
X252732163Y-6438962D01*
X253872086Y-7725146D01*
X254893162Y-9107573D01*
X255787310Y-10575301D01*
X256547443Y-12116698D01*
X257167547Y-13719570D01*
X257642706Y-15371207D01*
X257970132Y-17063548D01*
X258104394Y-18206369D01*
X262095770Y-63817140D01*
X262169925Y-65549440D01*
X262090501Y-67266239D01*
X261858777Y-68969178D01*
X261476585Y-70644790D01*
X260946960Y-72279776D01*
X260274088Y-73861215D01*
X259463299Y-75376578D01*
X258521012Y-76813871D01*
X257454697Y-78161697D01*
X256272768Y-79409421D01*
X254984620Y-80547123D01*
X253600440Y-81565809D01*
X252131174Y-82457423D01*
X250588472Y-83214896D01*
X248984540Y-83832232D01*
X247332075Y-84304545D01*
X245643440Y-84628233D01*
X244001429Y-84797193D01*
X241462880Y-84962473D01*
X241461793Y-84962557D01*
X241460776Y-84962614D01*
X241451238Y-84963331D01*
X234998016Y-85494058D01*
X234994401Y-85494400D01*
X234990869Y-85494684D01*
X234981523Y-85495617D01*
X234981353Y-85495633D01*
X234981281Y-85495642D01*
X228543023Y-86183868D01*
X228539390Y-86184301D01*
X228535894Y-86184669D01*
X228526592Y-86185827D01*
X228526403Y-86185850D01*
X228526323Y-86185862D01*
X222106810Y-87031183D01*
X222103242Y-87031697D01*
X222099703Y-87032157D01*
X222090244Y-87033570D01*
X215693220Y-88035494D01*
X215689635Y-88036100D01*
X215686139Y-88036642D01*
X215676717Y-88038286D01*
X209306083Y-89196205D01*
X209302549Y-89196892D01*
X209299032Y-89197525D01*
X209289690Y-89199392D01*
X209289653Y-89199399D01*
X209289637Y-89199403D01*
X202949211Y-90512620D01*
X202945667Y-90513399D01*
X202942195Y-90514112D01*
X202933045Y-90516174D01*
X202932864Y-90516214D01*
X202932787Y-90516233D01*
X196626399Y-91983955D01*
X196622884Y-91984818D01*
X196619421Y-91985618D01*
X196610280Y-91987914D01*
X196610145Y-91987947D01*
X196610088Y-91987962D01*
X190341423Y-93609331D01*
X190338001Y-93610261D01*
X190334487Y-93611163D01*
X190325271Y-93613719D01*
X184098034Y-95387776D01*
X184098023Y-95387779D01*
X179003274Y-96829597D01*
X173878298Y-98126562D01*
X168719162Y-99279913D01*
X163529829Y-100288762D01*
X158314335Y-101152326D01*
X153076747Y-101869930D01*
X147821216Y-102441009D01*
X142551737Y-102865123D01*
X137272508Y-103141940D01*
X131987590Y-103271243D01*
X126701129Y-103252933D01*
X121417193Y-103087021D01*
X116140036Y-102773644D01*
X110873608Y-102313035D01*
X105622147Y-101705564D01*
X100389700Y-100951700D01*
X95180266Y-100052020D01*
X89998096Y-99007258D01*
X84847007Y-97818182D01*
X79730056Y-96485464D01*
X75904995Y-95388645D01*
X73453569Y-94670628D01*
X73452533Y-94670338D01*
X73451545Y-94670039D01*
X73442339Y-94667443D01*
X67198278Y-92953538D01*
X67194751Y-92952616D01*
X67191350Y-92951676D01*
X67182263Y-92949352D01*
X67182085Y-92949305D01*
X67182008Y-92949287D01*
X60898014Y-91388469D01*
X60894541Y-91387651D01*
X60891044Y-91386776D01*
X60881859Y-91384664D01*
X60881722Y-91384632D01*
X60881661Y-91384619D01*
X54561393Y-89977796D01*
X54557885Y-89977060D01*
X54554383Y-89976274D01*
X54545050Y-89974367D01*
X54545013Y-89974359D01*
X54544997Y-89974356D01*
X48192197Y-88722361D01*
X48188653Y-88721707D01*
X48185152Y-88721011D01*
X48175920Y-88719359D01*
X48175737Y-88719325D01*
X48175658Y-88719312D01*
X42535796Y-87750324D01*
X67465000Y-87750324D01*
X67465000Y-88249676D01*
X67562418Y-88739432D01*
X67753512Y-89200773D01*
X68030937Y-89615968D01*
X68384032Y-89969063D01*
X68799227Y-90246488D01*
X69260568Y-90437582D01*
X69750324Y-90535000D01*
X70249676Y-90535000D01*
X70739432Y-90437582D01*
X71200773Y-90246488D01*
X71615968Y-89969063D01*
X71969063Y-89615968D01*
X72246488Y-89200773D01*
X72437582Y-88739432D01*
X72535000Y-88249676D01*
X72535000Y-87750324D01*
X187465000Y-87750324D01*
X187465000Y-88249676D01*
X187562418Y-88739432D01*
X187753512Y-89200773D01*
X188030937Y-89615968D01*
X188384032Y-89969063D01*
X188799227Y-90246488D01*
X189260568Y-90437582D01*
X189750324Y-90535000D01*
X190249676Y-90535000D01*
X190739432Y-90437582D01*
X191200773Y-90246488D01*
X191615968Y-89969063D01*
X191969063Y-89615968D01*
X192246488Y-89200773D01*
X192437582Y-88739432D01*
X192535000Y-88249676D01*
X192535000Y-87750324D01*
X192437582Y-87260568D01*
X192246488Y-86799227D01*
X191969063Y-86384032D01*
X191615968Y-86030937D01*
X191200773Y-85753512D01*
X190739432Y-85562418D01*
X190249676Y-85465000D01*
X189750324Y-85465000D01*
X189260568Y-85562418D01*
X188799227Y-85753512D01*
X188384032Y-86030937D01*
X188030937Y-86384032D01*
X187753512Y-86799227D01*
X187562418Y-87260568D01*
X187465000Y-87750324D01*
X72535000Y-87750324D01*
X72437582Y-87260568D01*
X72246488Y-86799227D01*
X71969063Y-86384032D01*
X71615968Y-86030937D01*
X71200773Y-85753512D01*
X70739432Y-85562418D01*
X70249676Y-85465000D01*
X69750324Y-85465000D01*
X69260568Y-85562418D01*
X68799227Y-85753512D01*
X68384032Y-86030937D01*
X68030937Y-86384032D01*
X67753512Y-86799227D01*
X67562418Y-87260568D01*
X67465000Y-87750324D01*
X42535796Y-87750324D01*
X41794229Y-87622915D01*
X41790704Y-87622353D01*
X41787153Y-87621737D01*
X41777700Y-87620282D01*
X35371310Y-86680113D01*
X35367725Y-86679631D01*
X35364207Y-86679109D01*
X35354883Y-86677907D01*
X35354721Y-86677885D01*
X35354650Y-86677877D01*
X28927272Y-85894519D01*
X28923718Y-85894130D01*
X28920147Y-85893688D01*
X28910820Y-85892716D01*
X28910635Y-85892696D01*
X28910554Y-85892689D01*
X22465965Y-85266601D01*
X22462375Y-85266296D01*
X22458821Y-85265945D01*
X22449287Y-85265186D01*
X16002306Y-84797536D01*
X14273710Y-84615889D01*
X12587221Y-84285048D01*
X10936816Y-83805597D01*
X9335564Y-83181331D01*
X7796155Y-82417202D01*
X6330752Y-81519242D01*
X4950987Y-80494582D01*
X3667769Y-79351323D01*
X2491249Y-78098508D01*
X1430763Y-76746075D01*
X494700Y-75304729D01*
X201144Y-74750324D01*
X7465000Y-74750324D01*
X7465000Y-75249676D01*
X7562418Y-75739432D01*
X7753512Y-76200773D01*
X8030937Y-76615968D01*
X8384032Y-76969063D01*
X8799227Y-77246488D01*
X9260568Y-77437582D01*
X9750324Y-77535000D01*
X10249676Y-77535000D01*
X10739432Y-77437582D01*
X11200773Y-77246488D01*
X11615968Y-76969063D01*
X11969063Y-76615968D01*
X12246488Y-76200773D01*
X12437582Y-75739432D01*
X12535000Y-75249676D01*
X12535000Y-74750324D01*
X247465000Y-74750324D01*
X247465000Y-75249676D01*
X247562418Y-75739432D01*
X247753512Y-76200773D01*
X248030937Y-76615968D01*
X248384032Y-76969063D01*
X248799227Y-77246488D01*
X249260568Y-77437582D01*
X249750324Y-77535000D01*
X250249676Y-77535000D01*
X250739432Y-77437582D01*
X251200773Y-77246488D01*
X251615968Y-76969063D01*
X251969063Y-76615968D01*
X252246488Y-76200773D01*
X252437582Y-75739432D01*
X252535000Y-75249676D01*
X252535000Y-74750324D01*
X252437582Y-74260568D01*
X252246488Y-73799227D01*
X251969063Y-73384032D01*
X251615968Y-73030937D01*
X251200773Y-72753512D01*
X250739432Y-72562418D01*
X250249676Y-72465000D01*
X249750324Y-72465000D01*
X249260568Y-72562418D01*
X248799227Y-72753512D01*
X248384032Y-73030937D01*
X248030937Y-73384032D01*
X247753512Y-73799227D01*
X247562418Y-74260568D01*
X247465000Y-74750324D01*
X12535000Y-74750324D01*
X12437582Y-74260568D01*
X12246488Y-73799227D01*
X11969063Y-73384032D01*
X11615968Y-73030937D01*
X11200773Y-72753512D01*
X10739432Y-72562418D01*
X10249676Y-72465000D01*
X9750324Y-72465000D01*
X9260568Y-72562418D01*
X8799227Y-72753512D01*
X8384032Y-73030937D01*
X8030937Y-73384032D01*
X7753512Y-73799227D01*
X7562418Y-74260568D01*
X7465000Y-74750324D01*
X201144Y-74750324D01*
X-309530Y-73785877D01*
X-975561Y-72201542D01*
X-1498115Y-70564275D01*
X-1873057Y-68887040D01*
X-2088568Y-67250324D01*
X94965000Y-67250324D01*
X94965000Y-67749676D01*
X95062418Y-68239432D01*
X95253512Y-68700773D01*
X95530937Y-69115968D01*
X95884032Y-69469063D01*
X96299227Y-69746488D01*
X96760568Y-69937582D01*
X97250324Y-70035000D01*
X97749676Y-70035000D01*
X98239432Y-69937582D01*
X98700773Y-69746488D01*
X99115968Y-69469063D01*
X99469063Y-69115968D01*
X99746488Y-68700773D01*
X99937582Y-68239432D01*
X100035000Y-67749676D01*
X100035000Y-67250324D01*
X159965000Y-67250324D01*
X159965000Y-67749676D01*
X160062418Y-68239432D01*
X160253512Y-68700773D01*
X160530937Y-69115968D01*
X160884032Y-69469063D01*
X161299227Y-69746488D01*
X161760568Y-69937582D01*
X162250324Y-70035000D01*
X162749676Y-70035000D01*
X163239432Y-69937582D01*
X163700773Y-69746488D01*
X164115968Y-69469063D01*
X164469063Y-69115968D01*
X164746488Y-68700773D01*
X164937582Y-68239432D01*
X165035000Y-67749676D01*
X165035000Y-67250324D01*
X164937582Y-66760568D01*
X164746488Y-66299227D01*
X164469063Y-65884032D01*
X164115968Y-65530937D01*
X163700773Y-65253512D01*
X163239432Y-65062418D01*
X162749676Y-64965000D01*
X162250324Y-64965000D01*
X161760568Y-65062418D01*
X161299227Y-65253512D01*
X160884032Y-65530937D01*
X160530937Y-65884032D01*
X160253512Y-66299227D01*
X160062418Y-66760568D01*
X159965000Y-67250324D01*
X100035000Y-67250324D01*
X99937582Y-66760568D01*
X99746488Y-66299227D01*
X99469063Y-65884032D01*
X99115968Y-65530937D01*
X98700773Y-65253512D01*
X98239432Y-65062418D01*
X97749676Y-64965000D01*
X97250324Y-64965000D01*
X96760568Y-65062418D01*
X96299227Y-65253512D01*
X95884032Y-65530937D01*
X95530937Y-65884032D01*
X95253512Y-66299227D01*
X95062418Y-66760568D01*
X94965000Y-67250324D01*
X-2088568Y-67250324D01*
X-2097418Y-67183115D01*
X-2169453Y-65465240D01*
X-2095401Y-63818268D01*
X1894654Y-18211823D01*
X2122474Y-16492954D01*
X2498847Y-14816036D01*
X3000035Y-13250324D01*
X15465000Y-13250324D01*
X15465000Y-13749676D01*
X15562418Y-14239432D01*
X15753512Y-14700773D01*
X16030937Y-15115968D01*
X16384032Y-15469063D01*
X16799227Y-15746488D01*
X17260568Y-15937582D01*
X17750324Y-16035000D01*
X18249676Y-16035000D01*
X18739432Y-15937582D01*
X19200773Y-15746488D01*
X19615968Y-15469063D01*
X19969063Y-15115968D01*
X20246488Y-14700773D01*
X20437582Y-14239432D01*
X20535000Y-13749676D01*
X20535000Y-13250324D01*
X239465000Y-13250324D01*
X239465000Y-13749676D01*
X239562418Y-14239432D01*
X239753512Y-14700773D01*
X240030937Y-15115968D01*
X240384032Y-15469063D01*
X240799227Y-15746488D01*
X241260568Y-15937582D01*
X241750324Y-16035000D01*
X242249676Y-16035000D01*
X242739432Y-15937582D01*
X243200773Y-15746488D01*
X243615968Y-15469063D01*
X243969063Y-15115968D01*
X244246488Y-14700773D01*
X244437582Y-14239432D01*
X244535000Y-13749676D01*
X244535000Y-13250324D01*
X244437582Y-12760568D01*
X244246488Y-12299227D01*
X243969063Y-11884032D01*
X243615968Y-11530937D01*
X243200773Y-11253512D01*
X242739432Y-11062418D01*
X242249676Y-10965000D01*
X241750324Y-10965000D01*
X241260568Y-11062418D01*
X240799227Y-11253512D01*
X240384032Y-11530937D01*
X240030937Y-11884032D01*
X239753512Y-12299227D01*
X239562418Y-12760568D01*
X239465000Y-13250324D01*
X20535000Y-13250324D01*
X20437582Y-12760568D01*
X20246488Y-12299227D01*
X19969063Y-11884032D01*
X19615968Y-11530937D01*
X19200773Y-11253512D01*
X18739432Y-11062418D01*
X18249676Y-10965000D01*
X17750324Y-10965000D01*
X17260568Y-11062418D01*
X16799227Y-11253512D01*
X16384032Y-11530937D01*
X16030937Y-11884032D01*
X15753512Y-12299227D01*
X15562418Y-12760568D01*
X15465000Y-13250324D01*
X3000035Y-13250324D01*
X3022799Y-13179212D01*
X3690178Y-11595450D01*
X4495708Y-10077275D01*
X5432992Y-8636741D01*
X6494637Y-7285203D01*
X7672219Y-6033399D01*
X7990494Y-5750324D01*
X87465000Y-5750324D01*
X87465000Y-6249676D01*
X87562418Y-6739432D01*
X87753512Y-7200773D01*
X88030937Y-7615968D01*
X88384032Y-7969063D01*
X88799227Y-8246488D01*
X89260568Y-8437582D01*
X89750324Y-8535000D01*
X90249676Y-8535000D01*
X90739432Y-8437582D01*
X91200773Y-8246488D01*
X91615968Y-7969063D01*
X91969063Y-7615968D01*
X92246488Y-7200773D01*
X92437582Y-6739432D01*
X92535000Y-6249676D01*
X92535000Y-5750324D01*
X167465000Y-5750324D01*
X167465000Y-6249676D01*
X167562418Y-6739432D01*
X167753512Y-7200773D01*
X168030937Y-7615968D01*
X168384032Y-7969063D01*
X168799227Y-8246488D01*
X169260568Y-8437582D01*
X169750324Y-8535000D01*
X170249676Y-8535000D01*
X170739432Y-8437582D01*
X171200773Y-8246488D01*
X171615968Y-7969063D01*
X171969063Y-7615968D01*
X172246488Y-7200773D01*
X172437582Y-6739432D01*
X172535000Y-6249676D01*
X172535000Y-5750324D01*
X172437582Y-5260568D01*
X172246488Y-4799227D01*
X171969063Y-4384032D01*
X171615968Y-4030937D01*
X171200773Y-3753512D01*
X170739432Y-3562418D01*
X170249676Y-3465000D01*
X169750324Y-3465000D01*
X169260568Y-3562418D01*
X168799227Y-3753512D01*
X168384032Y-4030937D01*
X168030937Y-4384032D01*
X167753512Y-4799227D01*
X167562418Y-5260568D01*
X167465000Y-5750324D01*
X92535000Y-5750324D01*
X92437582Y-5260568D01*
X92246488Y-4799227D01*
X91969063Y-4384032D01*
X91615968Y-4030937D01*
X91200773Y-3753512D01*
X90739432Y-3562418D01*
X90249676Y-3465000D01*
X89750324Y-3465000D01*
X89260568Y-3562418D01*
X88799227Y-3753512D01*
X88384032Y-4030937D01*
X88030937Y-4384032D01*
X87753512Y-4799227D01*
X87562418Y-5260568D01*
X87465000Y-5750324D01*
X7990494Y-5750324D01*
X8956414Y-4891232D01*
X10337051Y-3867750D01*
X11803212Y-2971043D01*
X13343280Y-2208221D01*
X14945058Y-1585324D01*
X16595882Y-1107277D01*
X18282644Y-777876D01*
X19997085Y-599194D01*
X21147663Y-565046D01*
X238846810Y-565046D01*
X240578981Y-642189D01*
M02*
