G04 #@! TF.GenerationSoftware,KiCad,Pcbnew,(5.1.4-0)*
G04 #@! TF.CreationDate,2021-07-03T08:26:25+10:00*
G04 #@! TF.ProjectId,ahokore,61686f6b-6f72-4652-9e6b-696361645f70,rev?*
G04 #@! TF.SameCoordinates,Original*
G04 #@! TF.FileFunction,Soldermask,Top*
G04 #@! TF.FilePolarity,Negative*
%FSLAX46Y46*%
G04 Gerber Fmt 4.6, Leading zero omitted, Abs format (unit mm)*
G04 Created by KiCad (PCBNEW (5.1.4-0)) date 2021-07-03 08:26:25*
%MOMM*%
%LPD*%
G04 APERTURE LIST*
%ADD10C,0.500000*%
G04 APERTURE END LIST*
D10*
G36*
X190569085Y-86123975D02*
G01*
X190924143Y-86271045D01*
X190924145Y-86271046D01*
X191243690Y-86484559D01*
X191515441Y-86756310D01*
X191728954Y-87075855D01*
X191728955Y-87075857D01*
X191876025Y-87430915D01*
X191951000Y-87807842D01*
X191951000Y-88192158D01*
X191876025Y-88569085D01*
X191728955Y-88924143D01*
X191728954Y-88924145D01*
X191515441Y-89243690D01*
X191243690Y-89515441D01*
X190924145Y-89728954D01*
X190924144Y-89728955D01*
X190924143Y-89728955D01*
X190569085Y-89876025D01*
X190192158Y-89951000D01*
X189807842Y-89951000D01*
X189430915Y-89876025D01*
X189075857Y-89728955D01*
X189075856Y-89728955D01*
X189075855Y-89728954D01*
X188756310Y-89515441D01*
X188484559Y-89243690D01*
X188271046Y-88924145D01*
X188271045Y-88924143D01*
X188123975Y-88569085D01*
X188049000Y-88192158D01*
X188049000Y-87807842D01*
X188123975Y-87430915D01*
X188271045Y-87075857D01*
X188271046Y-87075855D01*
X188484559Y-86756310D01*
X188756310Y-86484559D01*
X189075855Y-86271046D01*
X189075857Y-86271045D01*
X189430915Y-86123975D01*
X189807842Y-86049000D01*
X190192158Y-86049000D01*
X190569085Y-86123975D01*
X190569085Y-86123975D01*
G37*
G36*
X70569085Y-86123975D02*
G01*
X70924143Y-86271045D01*
X70924145Y-86271046D01*
X71243690Y-86484559D01*
X71515441Y-86756310D01*
X71728954Y-87075855D01*
X71728955Y-87075857D01*
X71876025Y-87430915D01*
X71951000Y-87807842D01*
X71951000Y-88192158D01*
X71876025Y-88569085D01*
X71728955Y-88924143D01*
X71728954Y-88924145D01*
X71515441Y-89243690D01*
X71243690Y-89515441D01*
X70924145Y-89728954D01*
X70924144Y-89728955D01*
X70924143Y-89728955D01*
X70569085Y-89876025D01*
X70192158Y-89951000D01*
X69807842Y-89951000D01*
X69430915Y-89876025D01*
X69075857Y-89728955D01*
X69075856Y-89728955D01*
X69075855Y-89728954D01*
X68756310Y-89515441D01*
X68484559Y-89243690D01*
X68271046Y-88924145D01*
X68271045Y-88924143D01*
X68123975Y-88569085D01*
X68049000Y-88192158D01*
X68049000Y-87807842D01*
X68123975Y-87430915D01*
X68271045Y-87075857D01*
X68271046Y-87075855D01*
X68484559Y-86756310D01*
X68756310Y-86484559D01*
X69075855Y-86271046D01*
X69075857Y-86271045D01*
X69430915Y-86123975D01*
X69807842Y-86049000D01*
X70192158Y-86049000D01*
X70569085Y-86123975D01*
X70569085Y-86123975D01*
G37*
G36*
X250569085Y-73123975D02*
G01*
X250924143Y-73271045D01*
X250924145Y-73271046D01*
X251243690Y-73484559D01*
X251515441Y-73756310D01*
X251728954Y-74075855D01*
X251728955Y-74075857D01*
X251876025Y-74430915D01*
X251951000Y-74807842D01*
X251951000Y-75192158D01*
X251876025Y-75569085D01*
X251728955Y-75924143D01*
X251728954Y-75924145D01*
X251515441Y-76243690D01*
X251243690Y-76515441D01*
X250924145Y-76728954D01*
X250924144Y-76728955D01*
X250924143Y-76728955D01*
X250569085Y-76876025D01*
X250192158Y-76951000D01*
X249807842Y-76951000D01*
X249430915Y-76876025D01*
X249075857Y-76728955D01*
X249075856Y-76728955D01*
X249075855Y-76728954D01*
X248756310Y-76515441D01*
X248484559Y-76243690D01*
X248271046Y-75924145D01*
X248271045Y-75924143D01*
X248123975Y-75569085D01*
X248049000Y-75192158D01*
X248049000Y-74807842D01*
X248123975Y-74430915D01*
X248271045Y-74075857D01*
X248271046Y-74075855D01*
X248484559Y-73756310D01*
X248756310Y-73484559D01*
X249075855Y-73271046D01*
X249075857Y-73271045D01*
X249430915Y-73123975D01*
X249807842Y-73049000D01*
X250192158Y-73049000D01*
X250569085Y-73123975D01*
X250569085Y-73123975D01*
G37*
G36*
X10569085Y-73123975D02*
G01*
X10924143Y-73271045D01*
X10924145Y-73271046D01*
X11243690Y-73484559D01*
X11515441Y-73756310D01*
X11728954Y-74075855D01*
X11728955Y-74075857D01*
X11876025Y-74430915D01*
X11951000Y-74807842D01*
X11951000Y-75192158D01*
X11876025Y-75569085D01*
X11728955Y-75924143D01*
X11728954Y-75924145D01*
X11515441Y-76243690D01*
X11243690Y-76515441D01*
X10924145Y-76728954D01*
X10924144Y-76728955D01*
X10924143Y-76728955D01*
X10569085Y-76876025D01*
X10192158Y-76951000D01*
X9807842Y-76951000D01*
X9430915Y-76876025D01*
X9075857Y-76728955D01*
X9075856Y-76728955D01*
X9075855Y-76728954D01*
X8756310Y-76515441D01*
X8484559Y-76243690D01*
X8271046Y-75924145D01*
X8271045Y-75924143D01*
X8123975Y-75569085D01*
X8049000Y-75192158D01*
X8049000Y-74807842D01*
X8123975Y-74430915D01*
X8271045Y-74075857D01*
X8271046Y-74075855D01*
X8484559Y-73756310D01*
X8756310Y-73484559D01*
X9075855Y-73271046D01*
X9075857Y-73271045D01*
X9430915Y-73123975D01*
X9807842Y-73049000D01*
X10192158Y-73049000D01*
X10569085Y-73123975D01*
X10569085Y-73123975D01*
G37*
G36*
X163069085Y-65623975D02*
G01*
X163424143Y-65771045D01*
X163424145Y-65771046D01*
X163743690Y-65984559D01*
X164015441Y-66256310D01*
X164228954Y-66575855D01*
X164228955Y-66575857D01*
X164376025Y-66930915D01*
X164451000Y-67307842D01*
X164451000Y-67692158D01*
X164376025Y-68069085D01*
X164228955Y-68424143D01*
X164228954Y-68424145D01*
X164015441Y-68743690D01*
X163743690Y-69015441D01*
X163424145Y-69228954D01*
X163424144Y-69228955D01*
X163424143Y-69228955D01*
X163069085Y-69376025D01*
X162692158Y-69451000D01*
X162307842Y-69451000D01*
X161930915Y-69376025D01*
X161575857Y-69228955D01*
X161575856Y-69228955D01*
X161575855Y-69228954D01*
X161256310Y-69015441D01*
X160984559Y-68743690D01*
X160771046Y-68424145D01*
X160771045Y-68424143D01*
X160623975Y-68069085D01*
X160549000Y-67692158D01*
X160549000Y-67307842D01*
X160623975Y-66930915D01*
X160771045Y-66575857D01*
X160771046Y-66575855D01*
X160984559Y-66256310D01*
X161256310Y-65984559D01*
X161575855Y-65771046D01*
X161575857Y-65771045D01*
X161930915Y-65623975D01*
X162307842Y-65549000D01*
X162692158Y-65549000D01*
X163069085Y-65623975D01*
X163069085Y-65623975D01*
G37*
G36*
X98069085Y-65623975D02*
G01*
X98424143Y-65771045D01*
X98424145Y-65771046D01*
X98743690Y-65984559D01*
X99015441Y-66256310D01*
X99228954Y-66575855D01*
X99228955Y-66575857D01*
X99376025Y-66930915D01*
X99451000Y-67307842D01*
X99451000Y-67692158D01*
X99376025Y-68069085D01*
X99228955Y-68424143D01*
X99228954Y-68424145D01*
X99015441Y-68743690D01*
X98743690Y-69015441D01*
X98424145Y-69228954D01*
X98424144Y-69228955D01*
X98424143Y-69228955D01*
X98069085Y-69376025D01*
X97692158Y-69451000D01*
X97307842Y-69451000D01*
X96930915Y-69376025D01*
X96575857Y-69228955D01*
X96575856Y-69228955D01*
X96575855Y-69228954D01*
X96256310Y-69015441D01*
X95984559Y-68743690D01*
X95771046Y-68424145D01*
X95771045Y-68424143D01*
X95623975Y-68069085D01*
X95549000Y-67692158D01*
X95549000Y-67307842D01*
X95623975Y-66930915D01*
X95771045Y-66575857D01*
X95771046Y-66575855D01*
X95984559Y-66256310D01*
X96256310Y-65984559D01*
X96575855Y-65771046D01*
X96575857Y-65771045D01*
X96930915Y-65623975D01*
X97307842Y-65549000D01*
X97692158Y-65549000D01*
X98069085Y-65623975D01*
X98069085Y-65623975D01*
G37*
G36*
X242569085Y-11623975D02*
G01*
X242924143Y-11771045D01*
X242924145Y-11771046D01*
X243243690Y-11984559D01*
X243515441Y-12256310D01*
X243728954Y-12575855D01*
X243728955Y-12575857D01*
X243876025Y-12930915D01*
X243951000Y-13307842D01*
X243951000Y-13692158D01*
X243876025Y-14069085D01*
X243728955Y-14424143D01*
X243728954Y-14424145D01*
X243515441Y-14743690D01*
X243243690Y-15015441D01*
X242924145Y-15228954D01*
X242924144Y-15228955D01*
X242924143Y-15228955D01*
X242569085Y-15376025D01*
X242192158Y-15451000D01*
X241807842Y-15451000D01*
X241430915Y-15376025D01*
X241075857Y-15228955D01*
X241075856Y-15228955D01*
X241075855Y-15228954D01*
X240756310Y-15015441D01*
X240484559Y-14743690D01*
X240271046Y-14424145D01*
X240271045Y-14424143D01*
X240123975Y-14069085D01*
X240049000Y-13692158D01*
X240049000Y-13307842D01*
X240123975Y-12930915D01*
X240271045Y-12575857D01*
X240271046Y-12575855D01*
X240484559Y-12256310D01*
X240756310Y-11984559D01*
X241075855Y-11771046D01*
X241075857Y-11771045D01*
X241430915Y-11623975D01*
X241807842Y-11549000D01*
X242192158Y-11549000D01*
X242569085Y-11623975D01*
X242569085Y-11623975D01*
G37*
G36*
X18569085Y-11623975D02*
G01*
X18924143Y-11771045D01*
X18924145Y-11771046D01*
X19243690Y-11984559D01*
X19515441Y-12256310D01*
X19728954Y-12575855D01*
X19728955Y-12575857D01*
X19876025Y-12930915D01*
X19951000Y-13307842D01*
X19951000Y-13692158D01*
X19876025Y-14069085D01*
X19728955Y-14424143D01*
X19728954Y-14424145D01*
X19515441Y-14743690D01*
X19243690Y-15015441D01*
X18924145Y-15228954D01*
X18924144Y-15228955D01*
X18924143Y-15228955D01*
X18569085Y-15376025D01*
X18192158Y-15451000D01*
X17807842Y-15451000D01*
X17430915Y-15376025D01*
X17075857Y-15228955D01*
X17075856Y-15228955D01*
X17075855Y-15228954D01*
X16756310Y-15015441D01*
X16484559Y-14743690D01*
X16271046Y-14424145D01*
X16271045Y-14424143D01*
X16123975Y-14069085D01*
X16049000Y-13692158D01*
X16049000Y-13307842D01*
X16123975Y-12930915D01*
X16271045Y-12575857D01*
X16271046Y-12575855D01*
X16484559Y-12256310D01*
X16756310Y-11984559D01*
X17075855Y-11771046D01*
X17075857Y-11771045D01*
X17430915Y-11623975D01*
X17807842Y-11549000D01*
X18192158Y-11549000D01*
X18569085Y-11623975D01*
X18569085Y-11623975D01*
G37*
G36*
X170569085Y-4123975D02*
G01*
X170924143Y-4271045D01*
X170924145Y-4271046D01*
X171243690Y-4484559D01*
X171515441Y-4756310D01*
X171728954Y-5075855D01*
X171728955Y-5075857D01*
X171876025Y-5430915D01*
X171951000Y-5807842D01*
X171951000Y-6192158D01*
X171876025Y-6569085D01*
X171728955Y-6924143D01*
X171728954Y-6924145D01*
X171515441Y-7243690D01*
X171243690Y-7515441D01*
X170924145Y-7728954D01*
X170924144Y-7728955D01*
X170924143Y-7728955D01*
X170569085Y-7876025D01*
X170192158Y-7951000D01*
X169807842Y-7951000D01*
X169430915Y-7876025D01*
X169075857Y-7728955D01*
X169075856Y-7728955D01*
X169075855Y-7728954D01*
X168756310Y-7515441D01*
X168484559Y-7243690D01*
X168271046Y-6924145D01*
X168271045Y-6924143D01*
X168123975Y-6569085D01*
X168049000Y-6192158D01*
X168049000Y-5807842D01*
X168123975Y-5430915D01*
X168271045Y-5075857D01*
X168271046Y-5075855D01*
X168484559Y-4756310D01*
X168756310Y-4484559D01*
X169075855Y-4271046D01*
X169075857Y-4271045D01*
X169430915Y-4123975D01*
X169807842Y-4049000D01*
X170192158Y-4049000D01*
X170569085Y-4123975D01*
X170569085Y-4123975D01*
G37*
G36*
X90569085Y-4123975D02*
G01*
X90924143Y-4271045D01*
X90924145Y-4271046D01*
X91243690Y-4484559D01*
X91515441Y-4756310D01*
X91728954Y-5075855D01*
X91728955Y-5075857D01*
X91876025Y-5430915D01*
X91951000Y-5807842D01*
X91951000Y-6192158D01*
X91876025Y-6569085D01*
X91728955Y-6924143D01*
X91728954Y-6924145D01*
X91515441Y-7243690D01*
X91243690Y-7515441D01*
X90924145Y-7728954D01*
X90924144Y-7728955D01*
X90924143Y-7728955D01*
X90569085Y-7876025D01*
X90192158Y-7951000D01*
X89807842Y-7951000D01*
X89430915Y-7876025D01*
X89075857Y-7728955D01*
X89075856Y-7728955D01*
X89075855Y-7728954D01*
X88756310Y-7515441D01*
X88484559Y-7243690D01*
X88271046Y-6924145D01*
X88271045Y-6924143D01*
X88123975Y-6569085D01*
X88049000Y-6192158D01*
X88049000Y-5807842D01*
X88123975Y-5430915D01*
X88271045Y-5075857D01*
X88271046Y-5075855D01*
X88484559Y-4756310D01*
X88756310Y-4484559D01*
X89075855Y-4271046D01*
X89075857Y-4271045D01*
X89430915Y-4123975D01*
X89807842Y-4049000D01*
X90192158Y-4049000D01*
X90569085Y-4123975D01*
X90569085Y-4123975D01*
G37*
M02*
