M48
; DRILL file {KiCad (5.1.4-0)} date 2021 February 22, Monday 17:12:33
; FORMAT={-:-/ absolute / inch / decimal}
; #@! TF.CreationDate,2021-02-22T17:12:33+11:00
; #@! TF.GenerationSoftware,Kicad,Pcbnew,(5.1.4-0)
; #@! TF.FileFunction,Plated,1,2,PTH
FMAT,2
INCH
T1C0.0157
T2C0.0236
T3C0.0295
T4C0.0315
T5C0.0394
T6C0.0433
T7C0.0500
T8C0.0591
T9C0.0610
T10C0.0630
%
G90
G05
T1
X0.6386Y-2.1598
X0.6969Y-1.493
X0.7553Y-0.8263
X1.3857Y-1.7509
X1.4441Y-1.0841
X1.5024Y-0.4174
X2.1123Y-1.5773
X2.1706Y-0.9106
X2.229Y-0.2438
X2.5152Y-2.5732
X2.7994Y-1.8548
X2.8577Y-1.1881
X2.916Y-0.5213
X3.2361Y-2.7243
X3.4968Y-2.0146
X3.5551Y-1.3479
X3.6134Y-0.6811
X4.0315Y-3.0354
X4.4331Y-1.0315
X4.4724Y-1.1772
X4.5591Y-3.1496
X4.5984Y-3.1496
X4.7638Y-3.2913
X4.7638Y-3.3346
X4.7638Y-3.378
X4.7638Y-3.4213
X4.7638Y-3.4665
X4.7638Y-3.5945
X4.7638Y-3.6378
X4.7638Y-3.6811
X4.7638Y-3.7244
X4.9449Y-2.9921
X4.9714Y-0.5118
X4.9882Y-3.1102
X4.9921Y-3.2805
X5.0315Y-3.1102
X5.0591Y-0.4193
X5.0748Y-0.6299
X5.0994Y-3.6176
X5.1181Y-0.2165
X5.1181Y-0.4429
X5.1772Y-0.4242
X5.2648Y-0.5118
X5.2835Y-3.2805
X5.3071Y-0.4055
X5.3228Y-3.2677
X5.3346Y-3.1102
X5.4724Y-3.2913
X5.4724Y-3.5079
X5.4724Y-3.5512
X5.4724Y-3.5945
X5.4724Y-3.6378
X5.4724Y-3.6811
X5.4724Y-3.7244
X5.5118Y-0.2362
X5.6339Y-0.5512
X5.6417Y-0.7087
X5.7087Y-0.8484
X5.7087Y-1.3165
X5.7087Y-1.4744
X5.8266Y-0.9844
X5.8276Y-1.7717
X5.9213Y-0.9843
X5.9326Y-1.0472
X5.9606Y-0.9843
X6.1102Y-1.5413
X6.327Y-2.9132
X6.7522Y-0.6698
X6.8105Y-1.3365
X6.8689Y-2.0033
X7.1137Y-2.6939
X7.4496Y-0.51
X7.5079Y-1.1767
X7.5663Y-1.8435
X7.9149Y-2.539
X8.1367Y-0.2325
X8.195Y-0.8993
X8.2534Y-1.566
X8.8632Y-0.4061
X8.9216Y-1.0728
X8.9799Y-1.7396
X9.6104Y-0.8149
X9.6687Y-1.4817
X9.7271Y-2.1484
X4.9508Y-3.3346
X4.9508Y-3.378
X4.9508Y-3.4213
X4.9508Y-3.4646
X4.9508Y-3.5079
X4.9508Y-3.5512
X4.9508Y-3.5945
X4.9508Y-3.6378
X4.9508Y-3.6811
X5.2854Y-3.3346
X5.2854Y-3.378
X5.2854Y-3.4213
X5.2854Y-3.4646
X5.2854Y-3.5079
X5.2854Y-3.5512
X5.2854Y-3.5945
X5.2854Y-3.6378
X5.2854Y-3.6811
T3
X5.0781Y-0.9494
X5.1569Y-0.9494
T4
X6.0236Y-0.315
X6.1024Y-0.315
X6.1811Y-0.315
T5
X4.3307Y-1.0315
X4.3307Y-1.1315
X4.3307Y-1.2315
X4.3307Y-1.3315
T6
X4.008Y-0.1491
X4.008Y-0.3262
X4.2639Y-0.1491
X4.2639Y-0.3262
T7
X1.8731Y-1.3074
X1.2049Y-0.8142
X1.3938Y-0.9138
X2.062Y-1.4069
X8.7558Y-2.182
X8.9591Y-2.2472
X7.4288Y-1.0177
X3.3159Y-1.078
X3.5048Y-1.1775
X9.3863Y-1.2574
X2.8986Y-3.0994
X3.0673Y-3.2303
X7.2255Y-0.9525
X2.5018Y-2.2516
X2.6907Y-2.3512
X9.5896Y-1.3226
X7.3422Y-2.286
X7.5455Y-2.3512
X7.9709Y-1.3417
X6.6448Y-2.4458
X6.8481Y-2.511
X8.6391Y-0.8485
X8.8425Y-0.9138
X2.6185Y-0.9181
X2.8074Y-1.0177
X2.3309Y-3.0697
X0.3411Y-2.5566
X0.53Y-2.6561
X3.2576Y-1.7447
X3.4465Y-1.8442
X8.1742Y-1.4069
X2.1514Y-2.9541
X6.2476Y-3.5073
X6.461Y-3.499
X9.503Y-2.5909
X9.7063Y-2.6561
X9.4446Y-1.9242
X9.6479Y-1.9894
X1.1465Y-1.481
X1.3354Y-1.5805
X0.4577Y-1.2231
X0.6466Y-1.3226
X1.8148Y-1.9742
X2.0037Y-2.0737
X7.2838Y-1.6192
X7.4871Y-1.6844
X7.6971Y-3.0224
X7.9053Y-3.0697
X2.5602Y-1.5849
X2.7491Y-1.6844
X8.0293Y-2.0085
X0.5883Y-1.9894
X0.3994Y-1.8899
X3.1992Y-2.4115
X3.3881Y-2.511
X8.2326Y-2.0737
X3.6318Y-3.3409
X3.7752Y-3.499
X7.9126Y-0.675
X8.1159Y-0.7402
X1.9314Y-0.6407
X2.1203Y-0.7402
X1.0882Y-2.1477
X6.5281Y-1.1123
X6.7314Y-1.1775
X1.2771Y-2.2472
X6.9573Y-3.2013
X7.1689Y-3.2303
X8.9008Y-1.5805
X6.5865Y-1.779
X6.7898Y-1.8442
X8.6975Y-1.5153
T8
X5.9409Y-0.315
T9
X4.9803Y-1.3386
X5.2559Y-1.3386
T10
X6.2638Y-0.315
T2
G00X4.948Y-0.1102
M15
G01X4.948Y-0.0866
M16
G05
G00X4.948Y-0.2846
M15
G01X4.948Y-0.2413
M16
G05
G00X5.2882Y-0.1102
M15
G01X5.2882Y-0.0866
M16
G05
G00X5.2882Y-0.2846
M15
G01X5.2882Y-0.2413
M16
G05
T0
M30
